<svg height="18" viewBox="0 0 18 18" width="18" xmlns="http://www.w3.org/2000/svg"><path d="m9.4989303 4.81895307 6.1626 5.49082503c.309264.2755516.3365932.7496382.0610416 1.0589022s-.7496382.3365932-1.0589022.0610416l-.7622774-.6797969.0006077 4.881575c0 .3106602-.2518398.5625-.5625.5625s-.5625-.2518398-.5625-.5625l-.0006077-5.883575-3.7769923-3.365-3.77700772 3.365.00060772 5.883575c0 .2795942-.20399026.5115438-.47125958.5551378l-.09124042.0073622c-.31066017 0-.5625-.2518398-.5625-.5625l-.00060772-4.881575-.76106198.6797969c-.28114905.2505015-.69851523.2506882-.97910243.0162973l-.0797998-.0773389c-.27555159-.309264-.24822232-.7833506.06104163-1.0589022l6.1626-5.49082503c.28436941-.25337076.71349119-.25337076.9978606 0zm1.6075668 4.54606003c.0828942.06142024.1320035.15963884.1320035.26297876v3.43773004c0 .4522184-.4399589.8185015-.9822255.8185015-.54226667 0-.98222557-.3662831-.98222557-.8185015s.4399589-.8185015.98222557-.8185015c.114591 0 .2250889.0163566.3274045.0470647v-1.4896909l-2.61922853.7857567v2.1301525c0 .4522184-.43995889.8185015-.98222553.8185015s-.98222554-.3662831-.98222554-.8185015c0-.4522185.4399589-.8185016.98222554-.8185016.114591 0 .2250889.0163566.32740455.0470648v-2.3388808c0-.1442631.09514977-.2721537.23327511-.314105l3.2740456-.98222552c.0992428-.02967162.2066719-.01126295.2895463.05115782z" fill="#777"/></svg>