<svg height="15" viewBox="0 0 15 15" width="15" xmlns="http://www.w3.org/2000/svg"><g fill="none"><rect fill="#000" height="15" opacity=".6" rx="1.875" width="15"/><rect fill="#2f6499" height="13.5" rx="1.5" width="13.5" x=".75" y=".75"/><path d="m4.30833333 11.4713297c.21052121.0559605.43455474.0861305.66692134.0861305h.66552345l.00088855.3790098c0 .311229-.29836282.56353-.666412.56353-.3680492 0-.666412-.252301-.666412-.56353zm6.38295947.0002346.0003739.4649057c0 .311229-.298278.56353-.6662225.56353-.36794462 0-.66622253-.252301-.66622253-.56353l-.00088834-.3790098h.66711087c.2319755 0 .4556437-.0300857.6658486-.0858959zm-.561486-8.55489763c.829944 0 1.5027466.67280261 1.5027466 1.50274669v5.25961347c0 .82994407-.6728026 1.50274667-1.5027466 1.50274667h-5.25961352c-.82994407 0-1.50274669-.6728026-1.50274669-1.50274667v-5.25961347c0-.82994408.67280262-1.50274669 1.50274669-1.50274669zm-5.24127678 6.38667341c-.31122904 0-.56353002.252301-.56353002.56353 0 .31122912.25230098.56353012.56353002.56353012.31122902 0 .56353001-.252301.56353001-.56353012 0-.311229-.25230099-.56353-.56353001-.56353zm5.21666668 0c-.31122903 0-.56353003.252301-.56353003.56353 0 .31122912.252301.56353012.56353003.56353012.311229 0 .56353-.252301.56353-.56353012 0-.311229-.252301-.56353-.56353-.56353zm.56147-3.84500675h-6.3416667v2.42105266c0 .3565628.31547343.64561401.70462963.64561401h4.93240737c.3891563 0 .7046297-.28905121.7046297-.64561401zm-.7046297-1.58333333h-4.93240737c-.3891562 0-.70462963.3364013-.70462963.75137335v.37568667h6.3416667v-.37568667c0-.41497205-.3154734-.75137335-.7046297-.75137335z" fill="#000" fill-rule="evenodd"/></g></svg>