<svg height="18" viewBox="0 0 19 18" width="19" xmlns="http://www.w3.org/2000/svg"><g fill="none" transform="translate(.0181)"><circle cx="9" cy="9" fill="#000" opacity=".6" r="9"/><circle cx="9" cy="9" fill="#51585e" r="8.25"/><path d="m10.45 4.75c.1656854 0 .3.13431458.3.3v7.9c0 .1656854-.1343146.3-.3.3h-5.9c-.16568542 0-.3-.1343146-.3-.3v-7.9c0-.16568542.13431458-.3.3-.3zm-1.57502388 2.25170338h-2.74998749c-.165 0-.30250125.105-.35500126.25249875l-.49248749 1.4175c-.01750013.0525-.02749988.10750125-.02749988.165v1.78998747c0 .2074988.16750125.375.375.375s.375-.1675012.375-.375v-.1249987h3v.1249987c0 .2050013.16750125.375.375.375.20500125 0 .375-.1675012.375-.375v-1.78998747c0-.05500125-.01000012-.1125-.02749987-.165l-.4924875-1.4175c-.05003401-.14749875-.1900365-.25249875-.35503651-.25249875zm-2.74999874 1.99999875c.20749874 0 .375.16750125.375.375s-.16750126.375-.375.375c-.20749875 0-.375-.16750125-.375-.375s.16750125-.375.375-.375zm2.74998749 0c.20749875 0 .375.16750125.375.375s-.16750125.375-.375.375-.375-.16750125-.375-.375.16750125-.375.375-.375zm-.17999999-1.62499875c.10750125 0 .2025.07000125.23749875.16999875l.31750124.9550125h-3.49998749l.31750124-.9550125c.03499988-.10000125.13000125-.16999875.23749876-.16999875zm3.75503512-2.62500688h1.1c.1104569 0 .2.08954305.2.2v6.3h-1.5v-6.3c0-.11045695.0895431-.2.2-.2zm.6394427 8.3211146.6605573-1.3211146h-1.5l.6605573 1.3211146c.0246989.0493978.0847662.0694202.1341641.0447213.0193527-.0096763.0350449-.0253686.0447213-.0447213z" fill="#000" fill-rule="evenodd"/></g></svg>