<svg height="10" viewBox="0 0 8 10" width="8" xmlns="http://www.w3.org/2000/svg"><g fill="none"><path d="m6.45638209 0c.37609148 0 .72425864.1747833.96936352.49369282l.06615442.10027904c.10687134.18244079.16414241.39064697.16414241.60600579l.00033965 7.60002235c0 .08452163-.00881715.16822686-.03378359.28090951l-.0458696.14760544-.06668844.14497209-.07146019.1153718-.06179076.08041635-.07556165.08214374-.10781751.09508139-.10964934.07580657-.12987138.06948085-.07954583.03314166c-.04905188.01754418-.04905188.01754418-.1303233.03957053l-.15920996.02799023-.1287681.00750984h-4.22425693c-.10907652 0-.21669708-.01468463-.35383951-.05390448l-.14047138-.05265064-.10280855-.05337186-.14765925-.09957233-.10159134-.09041744-.10489342-.11895698-.0784479-.11480897-.05509066-.10505725-.06607418-.17129918-.02223491-.08669691c-.01814821-.0826435-.02722855-.16749219-.02722706-.25204115l-.00144536-.591-.00199757-.28322281-.02893303.00146741c-.51942228.01887315-.91865829-.24714738-.98830514-.67658602l-.01042408-.11069391c-.01253177-.43076054.32054599-.82795908.77223753-.84441048l.25542472-.030777c.00229529-.08066906.00229529-.18987309 0-.32761211-.03371432-.00977655-.08956256-.02247896-.1233309-.03714759-.45095098-.19588858-.51469301-.68984012-.30519389-1.15166694l.43196772-.89919451c.00947774-.02096777.00947724-.90442739-.00000149-2.65037885 0-.6627417.5372583-1.2 1.2-1.2z" fill="#000" opacity=".6"/><path d="m6.45638209.5c.22551627 0 .42612467.10664329.55414621.27225087l.04994362.07444573c.06074822.1037037.09557052.22443696.09557052.3533034l.00033965 7.6c0 .05011473-.00526633.09899944-.01527578.1461309l-.02384038.085169-.03771531.08786746-.0419297.07097489-.03740085.05020216-.03821292.04374726-.06347463.05861778-.06028924.04402764-.07874284.044385-.06117341.02581362c-.01766844.00664526-.03607223.01258439-.05479097.01776541l-.09216812.01890871-.0953255.00639017h-4.22425693c-.06480353 0-.12755032-.00880593-.18710905-.02528645l-.09162788-.0324093-.04872236-.02328158-.09538019-.0610859-.05713707-.04808259-.06450448-.06946502-.04937574-.06908366-.02934081-.05219473-.04389022-.10543844-.01765973-.06765121c-.01032579-.04702168-.01559212-.09590639-.01559212-.14602112l-.00144537-.591.66089153-.02540436.09415983-.01277867-.00300941.57818303h4.12374307v-7.499h-4.12374307l-.00049701.60518552c-.30277731.25714038-.49010086.63138619-.49010086 1.05120766l.00555985.11160682-.07728011.00485305c-.0660555.00624911-.12924699.01672474-.18947556.03124346l.00119711-1.85409651c0-.38659932.31340067-.7.7-.7zm-2.256326 3.31599576c.25595671 0 .43735449.1230815.49018767.54084433l.02877808.57142067.62174436.19704693c.31792476.09362657.4520938.24201607.40250712.44516851-.03257321.13344966-.16664108.18318709-.40220364.14921229-.11574123-.01797477-.23380508-.05174093-.31880324-.0684414l-.60646039-.16066363c-.26277038-.06961813-.29780643-.22302452-.30247791-.41885973l-.07592051-.64933479-.16065403.0000192c-.19078646.30319659-.10110927.79611708-.16066363 1.25944922h.29120123c.32132726 0 .83343457.3031966.51210731.90960578l-.48199088.90963778c-.32132726.60639318-.80328614.15159989-.64265452-.1515999l.48199089-.90963778c.0648808-.12244607-.03044986-.14599339-.10942109-.15052172l-.84425517-.00107817-.15426327.28432918-.14131385.24161291c-.14333507.22167486-.22812622.57718916-.61780982.57718916l-1.02876487.03740254c-.68581553.02491902-.53293243-.61986625-.19003789-.63235508l1.0908756-.03994917c.05913462-.0063629.08251176-.03738214.18447811-.22729991.13109959-.24417998.20388236-.45229962.20388236-.59080509 0-.35265986.06565766-1.09536109.16065723-1.51599895h-.48199088l-.09191427.16896043-.3097352.59819487c-.14617965.27634582-.31140187.31036692-.44324586.25309522-.13184399-.05727171-.15972216-.24295654-.05677328-.47029852l.50001914-1.00474529c.02972597-.06576327.08142637-.15159989.32132725-.15159989zm-.965957-1.51599576c.3549322 0 .64265451.27147032.64265451.60639318 0 .33492926-.28771911.60639318-.64265451.60639318-.3549322 0-.64265452-.27147032-.64265452-.60639318 0-.31522754.25486538-.57423664.58076149-.60361755z" fill="#019b41"/></g></svg>