<svg height="9" viewBox="0 0 11 9" width="11" xmlns="http://www.w3.org/2000/svg"><path d="m10.0493285 0c.3869702 0 .7006715.31340068.7006715.7v7.59309317c0 .38659933-.3137013.7-.7006715.7l-4.17193572-.00009317-.75042427.007-4.17629705-.00690683c-.38697016 0-.70067146-.31340067-.70067146-.7v-7.59309317c0-.38659932.3137013-.7.70067146-.7zm-4.92265514.749-4.12595394.001-.00100096 7.493 4.1269549-.001v-1.748l-.62530437.00082255-.00029515-1.00082255-1.00066408.00082255v-2l1.00066408-.00082255.00029515-.99917745.62530437-.00082255zm4.87166855.001-4.12094913-.001v1.745l.62589466.00082255-.00029515.99917745 1.00125438.00082255v2l-1.00125438-.00082255.00029515 1.00082255-.62589466-.00082255v1.748l4.12094913.001z" fill="#983E44"/></svg>