<svg height="6" viewBox="0 0 8 6" width="8" xmlns="http://www.w3.org/2000/svg"><path d="m4.74424478.00381365c.27614238 0 .5.22385763.5.5l-.00034769 1.24618635h-.751l.001-.99618635h-2.247v4.496h2.247l-.001-.99981365h.751l.00034769 1.25c0 .27614237-.22385762.5-.5.5h-2.74734769c-.27614238 0-.5-.22385763-.5-.5v-4.99618635c0-.27614237.22385762-.5.5-.5zm1.84154166 1.6162696 1.41421356 1.41421356-1.41421356 1.4151974-.53033009-.53033008.54264244-.54235048-3.1012017.00009318v-.75l3.0352017-.00009318-.47664244-.47640031z" fill="#777" transform="translate(.0081)"/></svg>