<svg height="18" viewBox="0 0 18 18" width="18" xmlns="http://www.w3.org/2000/svg"><g fill="none"><circle cx="9" cy="9" fill="#000" opacity=".6" r="9"/><circle cx="9" cy="9" fill="#802D19" r="8.25"/><path d="m4.33219182 13.4602521c-.56625353-.145147-1.05995548-.6661354-1.19210692-1.258018-.08901014-.3987537-.02672993-.8612893.16530454-1.2277241.12702014-.2423618.39770557-.5208347.63150605-.6497263.3295444-.1816314.40961456-.1970143 1.12899472-.2169742.63145117-.0175177.6551594-.0202617.79691486-.0920999.08035554-.04072105.70197217-.49045301 1.3813886-.99942263.67941643-.50894766 1.24429795-.91666337 1.25538374-.90596174.01106385.01065224.01704578.81354355.01328649 1.78426388l-.00683807 1.76489119-1.06258973.792744c-.58441886.4360174-1.1343181.827044-1.22196172.8689725-.32774983.1566993-.47121206.1788709-1.14046468.1762641-.38992905-.0015367-.66223894-.0150646-.74883983-.0372582zm4.82934464-.0252997-.05776137-.0649397v-8.76545977l2.19822491-1.10462793 2.198225 1.11900654v8.77369176l-.0627116.0536399c-.0527947.0451499-.1065663.0536618-.3399057.0536618-.2588862 0-.2815024-.004577-.3423974-.0688966l-.0652031-.0688746v-1.9666855h-2.78928433v1.9824361l-.06148224.0610103c-.05507774.0546497-.09057971.0610103-.34071252.0610103-.25752517 0-.28371947-.005049-.33698616-.0649452zm3.52846524-6.90776623v-1.05221738h-2.78928432v2.10443476h2.78928432z" fill="#000"/></g></svg>