<svg height="18" viewBox="0 0 19 18" width="19" xmlns="http://www.w3.org/2000/svg"><g fill="none" transform="translate(.8)"><circle cx="9" cy="9" fill="#000" opacity=".6" r="9"/><circle cx="9" cy="9" fill="#51585e" r="8.25"/><path d="m10.45 4.75c.1656854 0 .3.13431458.3.3v7.9c0 .1656854-.1343146.3-.3.3h-5.9c-.16568542 0-.3-.1343146-.3-.3v-7.9c0-.16568542.13431458-.3.3-.3zm2 .0016965h1.1c.1104569 0 .2.08954305.2.2v6.3h-1.5v-6.3c0-.11045695.0895431-.2.2-.2zm1.3 7-.6605573 1.3211146c-.0096764.0193527-.0253686.035045-.0447213.0447213-.0493979.0246989-.1094652.0046765-.1341641-.0447213l-.6605573-1.3211146zm-4.45-5.00521079c.2475 0 .45.20279572.45.45068572v2.70424286c0 .24786861-.2025.45068571-.45.45068571h-3.15l-.9.9014143v-4.05634287c0-.24786857.26894919-.45068572.4243761-.45068572zm-1.83372857 1.93071429h-1.20484286c-.11834673 0-.21428571.09593898-.21428571.21428571 0 .11834674.09593898.21428572.21428571.21428572h1.20484286c.11834673 0 .21428571-.09593898.21428571-.21428572 0-.11834673-.09593898-.21428571-.21428571-.21428571zm1.09868571-.92314286h-2.30352857c-.11834673 0-.21428571.09593899-.21428571.21428572s.09593898.21428571.21428571.21428571h2.30352857c.11834673 0 .21428572-.09593898.21428572-.21428571s-.09593899-.21428572-.21428572-.21428572z" fill="#000" fill-rule="evenodd"/></g></svg>