<svg height="18" viewBox="0 0 19 18" width="19" xmlns="http://www.w3.org/2000/svg"><g fill="none" transform="translate(.2)"><circle cx="9" cy="9" fill="#000" opacity=".6" r="9"/><circle cx="9" cy="9" fill="#51585e" r="8.25"/><path d="m10.45 4.75c.1656854 0 .3.13431458.3.3v7.9c0 .1656854-.1343146.3-.3.3h-5.9c-.16568542 0-.3-.1343146-.3-.3v-7.9c0-.16568542.13431458-.3.3-.3zm2 .0016965h1.1c.1104569 0 .2.08954305.2.2v6.3h-1.5v-6.3c0-.11045695.0895431-.2.2-.2zm1.3 7-.6605573 1.3211146c-.0096764.0193527-.0253686.035045-.0447213.0447213-.0493979.0246989-.1094652.0046765-.1341641-.0447213l-.6605573-1.3211146zm-4.16339422-4.94606524c.07120813.05276149.11339422.13713366.11339422.22590518v2.9530941c0 .38846666-.37793544.70311276-.84375573.70311276-.4658203 0-.84375574-.3146461-.84375574-.70311276 0-.38846667.37793544-.70311279.84375574-.70311279.09843647 0 .19335686.01405071.28124851.04042975v-1.2796809l-2.24998131.6749842v1.829853c0 .3884667-.37793544.7031128-.84375574.7031128-.46582029 0-.84375573-.3146461-.84375573-.7031128s.37793544-.7031128.84375573-.7031128c.09843647 0 .19335687.01405071.28124852.04042975v-2.00915576c0-.12392545.08173597-.23378661.20038901-.26982382l2.81248514-.84375573c.08525204-.02548865.17753623-.00967515.24872738.04394582z" fill="#000" fill-rule="evenodd"/></g></svg>