<svg height="18" viewBox="0 0 18 18" width="18" xmlns="http://www.w3.org/2000/svg"><path d="m9.76536686 3.31703659 2.71190694 1.12330864c.4900562.20298791.8794043.59233602 1.0823922 1.0823922l1.1233087 2.71190696c.2029879.49005617.2029879 1.04067755 0 1.53073372l-1.1233087 2.71190699c-.2029879.4900561-.592336.8794043-1.0823922 1.0823922l-2.71190694 1.1233086c-.49005617.2029879-1.04067755.2029879-1.53073372 0l-2.71190696-1.1233086c-.49005618-.2029879-.87940429-.5923361-1.0823922-1.0823922l-1.12330864-2.71190699c-.20298792-.49005617-.20298792-1.04067755 0-1.53073372l1.12330864-2.71190696c.20298791-.49005618.59233602-.87940429 1.0823922-1.0823922l2.71190696-1.12330864c.43560548-.18043371.91906496-.20048189 1.36530467-.06014457z" fill="#202510" fill-rule="evenodd"/></svg>