<?xml version="1.0" encoding="UTF-8" standalone="no"?>
<svg
   id="svg4"
   viewBox="0 0 32 32"
   height="32"
   width="32"
   version="1.1"
   sodipodi:docname="charge_socket_type1.svg"
   inkscape:version="1.4.2 (ebf0e940d0, 2025-05-08)"
   xmlns:inkscape="http://www.inkscape.org/namespaces/inkscape"
   xmlns:sodipodi="http://sodipodi.sourceforge.net/DTD/sodipodi-0.dtd"
   xmlns="http://www.w3.org/2000/svg"
   xmlns:svg="http://www.w3.org/2000/svg"
   xmlns:rdf="http://www.w3.org/1999/02/22-rdf-syntax-ns#"
   xmlns:cc="http://creativecommons.org/ns#"
   xmlns:dc="http://purl.org/dc/elements/1.1/">
  <sodipodi:namedview
     id="namedview1"
     pagecolor="#ffffff"
     bordercolor="#000000"
     borderopacity="0.25"
     inkscape:showpageshadow="2"
     inkscape:pageopacity="0.0"
     inkscape:pagecheckerboard="0"
     inkscape:deskcolor="#d1d1d1"
     inkscape:zoom="14.816257"
     inkscape:cx="30.10207"
     inkscape:cy="6.6481028"
     inkscape:window-width="1920"
     inkscape:window-height="1131"
     inkscape:window-x="0"
     inkscape:window-y="32"
     inkscape:window-maximized="1"
     inkscape:current-layer="svg4"
     showguides="true" />
  <metadata
     id="metadata10">
    <rdf:RDF>
      <cc:Work
         rdf:about="">
        <dc:format>image/svg+xml</dc:format>
        <dc:type
           rdf:resource="http://purl.org/dc/dcmitype/StillImage" />
      </cc:Work>
    </rdf:RDF>
  </metadata>
  <defs
     id="defs8" />
  <path
     id="path28"
     style="fill:#000000;stroke:none;stroke-width:0.904459"
     d="M 18.983353,0 C 13.413367,2.331e-4 8.898066,4.5155439 8.8978352,10.085528 c -2.108e-4,4.13768 2.5267378,7.855764 6.3740038,9.378559 0.254265,1.361525 1.424593,2.392449 2.851743,2.433554 V 26.2949 c 0,1.553032 -3.854464,1.630862 -3.810486,0.02446 V 26.3074 24.810827 c 0,-0.821707 -0.380905,-1.558114 -0.961996,-2.223643 -0.581091,-0.665531 -1.44384,-1.247495 -2.51187,-1.247495 H 2.9305906 v 1.788048 H 10.83923 c 0.396102,0 0.82375,0.243891 1.165392,0.635182 0.341641,0.391291 0.518256,0.941854 0.518256,1.047918 v 1.459594 c -0.109872,4.013022 7.388753,4.018683 7.388753,0.02447 v -4.399977 c 1.395959,-0.07159 2.533601,-1.091191 2.783773,-2.430839 3.847266,-1.522795 6.374215,-5.240879 6.374005,-9.378559 C 29.069177,4.5153392 24.55355,-5.78e-5 18.983353,6.1e-6 Z m 5.29e-4,1.3644301 c 4.835054,2.276e-4 8.754584,3.9197586 8.754816,8.7548139 1.33e-4,4.026366 -2.745849,7.533727 -6.654604,8.499762 v 0.626467 c 0,0.675854 -0.544458,1.220313 -1.220313,1.220313 h -1.76032 c -0.675854,0 -1.220312,-0.544459 -1.220312,-1.220313 v -0.626467 c -3.908755,-0.966035 -6.654737,-4.473396 -6.654611,-8.499762 2.31e-4,-4.835265 3.920088,-8.7548833 8.755351,-8.7548139 z m 0.02178,1.2309893 c -4.116827,3.47e-5 -7.454172,3.3373795 -7.454203,7.4542126 3.1e-5,4.116836 3.337376,7.454181 7.454209,7.454216 4.116833,-3.5e-5 7.454178,-3.33738 7.454209,-7.454216 -3.1e-5,-4.1168331 -3.337376,-7.4541779 -7.454209,-7.4542126 z m -2.975729,2.538161 c 1.189626,3.48e-5 2.154,0.9644078 2.154031,2.1540325 -3.1e-5,1.1896284 -0.964405,2.1540072 -2.154031,2.1540422 -1.189627,-3.5e-5 -2.154001,-0.9644138 -2.154033,-2.1540422 3.2e-5,-1.1896247 0.964406,-2.1539977 2.154033,-2.1540325 z m 5.907418,0 c 1.189627,3.48e-5 2.154,0.9644078 2.154032,2.1540325 -3.2e-5,1.1896284 -0.964405,2.1540072 -2.154032,2.1540422 -1.189626,-3.5e-5 -2.154001,-0.9644138 -2.154032,-2.1540422 3.1e-5,-1.1896247 0.964406,-2.1539977 2.154032,-2.1540325 z m -5.907415,1.5009192 c -0.360784,-1.973e-4 -0.653313,0.2923267 -0.653113,0.6531133 9.5e-5,0.3605769 0.292539,0.6527724 0.653113,0.6525763 0.360363,-9.87e-5 0.652482,-0.2922091 0.652576,-0.6525763 2e-4,-0.3605769 -0.292003,-0.6530135 -0.652576,-0.6531133 z m 5.907419,0 c -0.360785,-1.973e-4 -0.653313,0.2923267 -0.653113,0.6531133 9.4e-5,0.3605769 0.292539,0.6527724 0.653113,0.6525763 0.360362,-9.87e-5 0.652481,-0.2922091 0.652576,-0.6525763 C 22.59013,6.927036 22.297928,6.6345994 21.937355,6.6344996 Z m -7.130441,3.4760424 c 0.877883,2.5e-5 1.589537,0.711679 1.589558,1.589557 -2.1e-5,0.877879 -0.711675,1.589535 -1.589558,1.589558 -0.877881,-1.8e-5 -1.589547,-0.711674 -1.589568,-1.589558 2.1e-5,-0.877882 0.711687,-1.589538 1.589568,-1.589557 z m 8.353475,0 c 0.877882,1.9e-5 1.589547,0.711675 1.589569,1.589557 -2.2e-5,0.877884 -0.711687,1.58954 -1.589569,1.589558 -0.877882,-2.3e-5 -1.589536,-0.711679 -1.589557,-1.589558 2.1e-5,-0.877878 0.711675,-1.589532 1.589557,-1.589557 z m -8.353475,1.146891 c -0.244658,-2.11e-4 -0.443118,0.198012 -0.443214,0.442666 9.6e-5,0.244654 0.198556,0.442877 0.443214,0.442666 0.244437,-9.7e-5 0.442561,-0.198229 0.442656,-0.442666 -9.5e-5,-0.244435 -0.198219,-0.442568 -0.442656,-0.442666 z m 8.353475,0 c -0.244647,-2.04e-4 -0.443107,0.198017 -0.443203,0.442666 9.6e-5,0.24465 0.198556,0.442872 0.443203,0.442666 0.244227,-3.93e-4 0.442025,-0.198439 0.442119,-0.442666 -9.4e-5,-0.244225 -0.197892,-0.442272 -0.442119,-0.442666 z m -4.176469,0.754265 c 1.189637,2.9e-5 2.154011,0.964409 2.154043,2.154042 -3.2e-5,1.189628 -0.964416,2.154002 -2.154043,2.154032 -1.189628,-3.5e-5 -2.154,-0.964408 -2.154032,-2.154032 3.2e-5,-1.189629 0.964404,-2.154007 2.154032,-2.154042 z m 0,1.500919 c -0.360795,-1.99e-4 -0.653313,0.292332 -0.653112,0.653123 9.4e-5,0.360576 0.292538,0.652773 0.653112,0.652575 0.360362,-9.8e-5 0.652482,-0.292208 0.652576,-0.652575 2e-4,-0.360581 -0.291992,-0.653024 -0.652576,-0.653123 z"
     sodipodi:nodetypes="csccsccsssccssscsccsccscsssscccssssscscsccscscccccccccccssssssssssccccccccccsssssccccc" />
</svg>
