<?xml version="1.0" encoding="UTF-8" standalone="no"?>
<svg
   id="svg4"
   viewBox="0 0 32 32"
   height="32"
   width="32"
   version="1.1"
   sodipodi:docname="charge_socket_type2_cable.svg"
   inkscape:version="1.4.2 (ebf0e940d0, 2025-05-08)"
   xmlns:inkscape="http://www.inkscape.org/namespaces/inkscape"
   xmlns:sodipodi="http://sodipodi.sourceforge.net/DTD/sodipodi-0.dtd"
   xmlns="http://www.w3.org/2000/svg"
   xmlns:svg="http://www.w3.org/2000/svg"
   xmlns:rdf="http://www.w3.org/1999/02/22-rdf-syntax-ns#"
   xmlns:cc="http://creativecommons.org/ns#"
   xmlns:dc="http://purl.org/dc/elements/1.1/">
  <sodipodi:namedview
     id="namedview1"
     pagecolor="#ffffff"
     bordercolor="#000000"
     borderopacity="0.25"
     inkscape:showpageshadow="2"
     inkscape:pageopacity="0.0"
     inkscape:pagecheckerboard="0"
     inkscape:deskcolor="#d1d1d1"
     inkscape:zoom="8.6850925"
     inkscape:cx="25.56104"
     inkscape:cy="-5.0085822"
     inkscape:window-width="1920"
     inkscape:window-height="1131"
     inkscape:window-x="0"
     inkscape:window-y="32"
     inkscape:window-maximized="1"
     inkscape:current-layer="svg4"
     showguides="true" />
  <metadata
     id="metadata10">
    <rdf:RDF>
      <cc:Work
         rdf:about="">
        <dc:format>image/svg+xml</dc:format>
        <dc:type
           rdf:resource="http://purl.org/dc/dcmitype/StillImage" />
      </cc:Work>
    </rdf:RDF>
  </metadata>
  <defs
     id="defs8" />
  <path
     id="path14"
     style="opacity:1;fill:#000000;stroke:none;stroke-width:0.0997132;stroke-dasharray:none"
     d="M 12.756823,1.3e-5 C 10.3496,1.9571531 8.1305555,5.0286061 8.1306255,8.2903771 c 4e-5,5.4017949 4.1327075,9.8382339 9.4090335,10.3195429 v 4.268592 c 0,1.471556 -3.65225,1.545268 -3.610569,0.02318 v -0.01134 -1.418054 c 0,-0.778598 -0.360932,-1.476368 -0.911537,-2.106987 -0.550605,-0.630618 -1.367575,-1.182055 -2.379573,-1.182055 H 3.1437255 v 1.694246 H 10.63798 c 0.375321,0 0.780534,0.231089 1.104253,0.601849 0.323718,0.370759 0.490548,0.892446 0.490548,0.992947 v 1.383016 c -0.104101,3.802484 7.001641,3.80781 7.001641,0.02318 V 18.627427 C 24.611788,18.24746 28.856224,13.764424 28.856275,8.2903641 28.856224,5.0285011 26.636442,1.9570331 24.229049,0 Z m 3.149915,3.1664051 c 0.874374,-1.29e-4 1.583293,0.708571 1.583454,1.582945 1.29e-4,0.874575 -0.708881,1.583591 -1.583454,1.583461 -0.874373,-1.55e-4 -1.583073,-0.709087 -1.582944,-1.583461 1.49e-4,-0.874172 0.70877,-1.58279 1.582944,-1.582945 z m 4.960097,0 c 0.874174,1.55e-4 1.582796,0.708773 1.582945,1.582945 1.29e-4,0.874374 -0.708571,1.583306 -1.582945,1.583461 -0.874573,1.3e-4 -1.583593,-0.708886 -1.583462,-1.583461 1.57e-4,-0.874374 0.709088,-1.583074 1.583462,-1.582945 z m -7.575151,3.090658 c 1.059362,-1.56e-4 1.91826,0.858516 1.918389,1.917878 1.6e-4,1.0595644 -0.858829,1.9185479 -1.918389,1.9183939 -1.059362,-1.3e-4 -1.918031,-0.8590315 -1.917881,-1.9183939 1.3e-4,-1.059161 0.858719,-1.917749 1.917881,-1.917878 z m 5.095098,0 c 1.059362,-1.56e-4 1.918269,0.858516 1.918399,1.917878 1.6e-4,1.0595644 -0.858838,1.9185479 -1.918399,1.9183939 -1.059371,-1.3e-4 -1.918031,-0.8590315 -1.917872,-1.9183939 1.31e-4,-1.059161 0.858709,-1.917749 1.917872,-1.917878 z m 5.095109,0 c 1.059361,-1.56e-4 1.91827,0.858516 1.918389,1.917878 1.6e-4,1.0595644 -0.858828,1.9185489 -1.918389,1.9183939 -1.059362,-1.3e-4 -1.918031,-0.8590315 -1.917882,-1.9183939 1.3e-4,-1.059161 0.858718,-1.917749 1.917882,-1.917878 z m -7.671515,4.5478749 c 1.05957,-1.56e-4 1.91855,0.858829 1.918399,1.918393 -1.29e-4,1.059362 -0.859038,1.918033 -1.918399,1.917878 -1.059163,-1.28e-4 -1.917741,-0.858717 -1.917871,-1.917878 -1.59e-4,-1.059363 0.85851,-1.918265 1.917871,-1.918393 z m 5.152822,0 c 1.059362,1.28e-4 1.918031,0.85903 1.917871,1.918393 -1.29e-4,1.059161 -0.858709,1.91775 -1.917871,1.917878 -1.059162,-1.28e-4 -1.917751,-0.858717 -1.917881,-1.917878 -1.61e-4,-1.059363 0.858519,-1.918265 1.917881,-1.918393 z" />
</svg>
