<?xml version="1.0" encoding="UTF-8" standalone="no"?>
<svg
   id="svg4"
   viewBox="0 0 32 32"
   height="32"
   width="32"
   version="1.1"
   sodipodi:docname="charge_socket_unknown.svg"
   inkscape:version="1.4.2 (ebf0e940d0, 2025-05-08)"
   xmlns:inkscape="http://www.inkscape.org/namespaces/inkscape"
   xmlns:sodipodi="http://sodipodi.sourceforge.net/DTD/sodipodi-0.dtd"
   xmlns="http://www.w3.org/2000/svg"
   xmlns:svg="http://www.w3.org/2000/svg"
   xmlns:rdf="http://www.w3.org/1999/02/22-rdf-syntax-ns#"
   xmlns:cc="http://creativecommons.org/ns#"
   xmlns:dc="http://purl.org/dc/elements/1.1/">
  <sodipodi:namedview
     id="namedview1"
     pagecolor="#ffffff"
     bordercolor="#000000"
     borderopacity="0.25"
     inkscape:showpageshadow="2"
     inkscape:pageopacity="0.0"
     inkscape:pagecheckerboard="0"
     inkscape:deskcolor="#d1d1d1"
     inkscape:zoom="9.7724127"
     inkscape:cx="24.149615"
     inkscape:cy="4.4513061"
     inkscape:window-width="1920"
     inkscape:window-height="1131"
     inkscape:window-x="0"
     inkscape:window-y="32"
     inkscape:window-maximized="1"
     inkscape:current-layer="svg4" />
  <metadata
     id="metadata10">
    <rdf:RDF>
      <cc:Work
         rdf:about="">
        <dc:format>image/svg+xml</dc:format>
        <dc:type
           rdf:resource="http://purl.org/dc/dcmitype/StillImage" />
      </cc:Work>
    </rdf:RDF>
  </metadata>
  <defs
     id="defs8" />
  <path
     id="path28"
     style="fill:#000000;stroke:none;stroke-width:0.904459"
     d="M 18.982422,0 C 13.412436,2.3310068e-4 8.8986683,4.5159533 8.8984375,10.085937 c -2.108e-4,4.13768 2.5257805,7.856112 6.3730465,9.378907 0.254265,1.361525 1.424413,2.392488 2.851563,2.433593 v 4.396485 c 0,1.553032 -3.854525,1.629839 -3.810547,0.02344 v -0.01172 -1.496093 c 0,-0.821707 -0.379847,-1.557127 -0.960938,-2.222657 -0.581091,-0.665531 -1.443688,-1.248046 -2.511718,-1.248046 H 2.9296875 v 1.787109 h 7.9101565 c 0.396102,0 0.82242,0.245428 1.164062,0.636719 0.341641,0.391291 0.519532,0.940811 0.519532,1.046875 v 1.458984 c -0.109872,4.013022 7.388671,4.019604 7.388671,0.02539 v -4.400391 c 1.395959,-0.07159 2.533032,-1.090039 2.783203,-2.429687 3.847267,-1.522795 6.375211,-5.241227 6.375,-9.378907 C 29.07008,4.5157506 24.552619,-6.3899322e-5 18.982422,0 Z m 0.002,1.3652343 c 4.835054,2.277e-4 8.753674,3.9188509 8.753906,8.7539057 1.33e-4,4.026366 -2.745542,7.533965 -6.654297,8.5 v 0.626954 c 0,0.675854 -0.544848,1.21875 -1.220703,1.21875 h -1.759765 c -0.675854,0 -1.220703,-0.542896 -1.220704,-1.21875 V 18.61914 c -3.908754,-0.966035 -6.654422,-4.473633 -6.654296,-8.5 2.31e-4,-4.8352645 3.920596,-8.753975 8.755859,-8.7539057 z m 0.423828,2.6425782 c -0.822726,0 -1.54499,0.163097 -2.166015,0.4921875 -0.615718,0.3237825 -1.096393,0.7724488 -1.441407,1.3457031 -0.339706,0.5679464 -0.509765,1.226194 -0.509765,1.9746094 h 2.253906 c 0,-0.3874775 0.07404,-0.7206339 0.222656,-1.0019532 0.148622,-0.2866271 0.360708,-0.5081799 0.636719,-0.6621093 0.276011,-0.1539294 0.601654,-0.2304688 0.978515,-0.2304688 0.345015,0 0.645611,0.061512 0.900391,0.1835938 0.25478,0.1220819 0.451838,0.2946459 0.589844,0.5175781 0.138006,0.2176243 0.207031,0.4742414 0.207031,0.7714844 0,0.3078588 -0.08851,0.6084555 -0.263672,0.9003906 -0.175161,0.2866272 -0.466291,0.555216 -0.875,0.804688 -0.408709,0.238855 -0.751332,0.470978 -1.027344,0.699218 -0.270703,0.2229319 -0.47277,0.4965299 -0.605468,0.8203129 -0.132698,0.318474 -0.199219,0.740142 -0.199219,1.265625 v 0.662109 h 2.109375 v -0.501953 c 0,-0.313167 0.05901,-0.576746 0.175781,-0.789062 0.122082,-0.212317 0.297151,-0.407422 0.525391,-0.587891 0.233548,-0.185777 0.514659,-0.387845 0.84375,-0.605469 0.530791,-0.3556299 0.929917,-0.7747929 1.195312,-1.2578119 0.270704,-0.4830202 0.40625,-1.0227019 0.40625,-1.6171879 0,-0.6210255 -0.170059,-1.1707255 -0.509765,-1.6484375 C 22.52107,5.0599489 22.055423,4.6828128 21.460938,4.4121093 20.871759,4.1414059 20.188466,4.0078125 19.408203,4.0078125 Z m -0.214844,9.4746095 c -0.371553,0 -0.691635,0.131089 -0.957031,0.396484 -0.265395,0.260088 -0.396484,0.58017 -0.396484,0.957031 0,0.376862 0.131089,0.697495 0.396484,0.962891 0.265396,0.260088 0.585478,0.390625 0.957031,0.390625 0.376862,0 0.694991,-0.130537 0.955079,-0.390625 0.265395,-0.265396 0.398437,-0.586029 0.398437,-0.962891 0,-0.376861 -0.133042,-0.696943 -0.398437,-0.957031 -0.260088,-0.265395 -0.578217,-0.396484 -0.955079,-0.396484 z" />
</svg>
