<?xml version="1.0" encoding="UTF-8" standalone="no"?>
<svg
   id="svg4"
   viewBox="0 0 32 32"
   height="32"
   width="32"
   version="1.1"
   sodipodi:docname="charge_socket_nacs.svg"
   inkscape:version="1.4.2 (ebf0e940d0, 2025-05-08)"
   xmlns:inkscape="http://www.inkscape.org/namespaces/inkscape"
   xmlns:sodipodi="http://sodipodi.sourceforge.net/DTD/sodipodi-0.dtd"
   xmlns="http://www.w3.org/2000/svg"
   xmlns:svg="http://www.w3.org/2000/svg"
   xmlns:rdf="http://www.w3.org/1999/02/22-rdf-syntax-ns#"
   xmlns:cc="http://creativecommons.org/ns#"
   xmlns:dc="http://purl.org/dc/elements/1.1/">
  <sodipodi:namedview
     id="namedview1"
     pagecolor="#ffffff"
     bordercolor="#000000"
     borderopacity="0.25"
     inkscape:showpageshadow="2"
     inkscape:pageopacity="0.0"
     inkscape:pagecheckerboard="0"
     inkscape:deskcolor="#d1d1d1"
     inkscape:zoom="12.538034"
     inkscape:cx="27.67579"
     inkscape:cy="10.807117"
     inkscape:window-width="1920"
     inkscape:window-height="1131"
     inkscape:window-x="0"
     inkscape:window-y="32"
     inkscape:window-maximized="1"
     inkscape:current-layer="svg4"
     showguides="true" />
  <metadata
     id="metadata10">
    <rdf:RDF>
      <cc:Work
         rdf:about="">
        <dc:format>image/svg+xml</dc:format>
        <dc:type
           rdf:resource="http://purl.org/dc/dcmitype/StillImage" />
      </cc:Work>
    </rdf:RDF>
  </metadata>
  <defs
     id="defs8" />
  <path
     id="path32"
     style="fill:#000000;stroke:none;stroke-width:0.516349;stroke-dasharray:none"
     d="M 18.369513,0 C 14.867155,0.0111421 11.10234,0.42406532 8.5573482,2.5927117 7.0564264,3.8716825 6.9638596,6.1765529 6.9613646,8.1227884 6.9615259,13.895996 11.700973,18.661327 17.753024,18.973367 v 4.602279 c 0,1.587551 -3.940149,1.667122 -3.895182,0.02501 v -0.01224 -1.529837 c 0,-0.839971 -0.389382,-1.592745 -0.983389,-2.273071 -0.594006,-0.680331 -1.475921,-1.275221 -2.567689,-1.275221 H 2.2223368 v 1.827792 h 8.0844272 c 0.404904,0 0.842048,0.249302 1.191283,0.649289 0.349235,0.399987 0.529775,0.96279 0.529775,1.071211 v 1.492036 c -0.112306,4.102217 7.552995,4.108006 7.552995,0.02501 V 18.927788 C 25.379405,18.337936 29.777502,13.677539 29.777663,8.1227884 29.775524,6.1765529 29.682569,3.8716825 28.181679,2.5927117 25.636687,0.42406532 21.871872,0.0111446 18.369513,0 Z m 0.02721,1.5442815 c 1.049761,0.00379 2.088948,0.1312491 3.095196,0.3763435 -1.177579,0.9190105 -1.730419,1.8579863 -1.730429,3.4682506 1e-5,2.7155368 2.201383,4.9169124 4.91692,4.9169224 1.088231,1.01e-4 2.145736,-0.3608117 3.006847,-1.0261926 -0.06541,1.9658196 -0.803892,3.3586936 -2.0029,4.7989446 -1.694757,-1.44102 -4.403121,-1.882722 -7.285601,-1.882697 -2.88248,-2.5e-5 -5.590843,0.441677 -7.2856,1.882697 -1.1990068,-1.440251 -1.9374944,-2.833125 -2.0029095,-4.7989446 0.8611107,0.6653819 1.9186275,1.0262956 3.0068565,1.0261926 2.715538,-10e-6 4.91691,-2.2013856 4.91692,-4.9169224 C 17.031884,3.7785084 16.478808,2.8395104 15.301036,1.920625 16.307359,1.6754664 17.346911,1.5478414 18.396725,1.5442815 Z m -6.004222,1.0512051 c 1.671457,-1.696e-4 3.026477,1.3548532 3.026305,3.026306 -1.26e-4,1.6712393 -1.35506,3.0259268 -3.026301,3.0257578 C 10.721478,8.6474164 9.3668771,7.2928179 9.3667478,5.6217926 9.3665759,3.9505537 10.721262,2.5956199 12.392505,2.5954866 Z m 11.954039,0 c 1.671243,1.333e-4 3.025929,1.3550671 3.025757,3.026306 -1.29e-4,1.6710253 -1.35473,3.0256238 -3.025757,3.0257578 -1.671241,1.75e-4 -3.026187,-1.3545145 -3.026316,-3.0257578 -1.72e-4,-1.6714578 1.354859,-3.0264813 3.026316,-3.026306 z M 18.369524,13.029145 c 0.783324,-1.16e-4 1.418456,0.634764 1.41865,1.418091 1.29e-4,0.783552 -0.635099,1.418779 -1.41865,1.418661 -0.78355,1.18e-4 -1.418779,-0.635109 -1.41865,-1.418661 1.94e-4,-0.783327 0.635326,-1.418207 1.41865,-1.418091 z m -4.759606,0.819395 c 0.470051,-1.3e-5 0.851095,0.381037 0.851085,0.851085 10e-6,0.470042 -0.381045,0.851086 -0.851085,0.851073 -0.47004,6e-6 -0.851084,-0.381036 -0.851073,-0.851073 -1.1e-5,-0.470043 0.381033,-0.851092 0.851073,-0.851085 z m 9.519201,0 c 0.470051,-1.3e-5 0.851096,0.381037 0.851085,0.851085 1.1e-5,0.470042 -0.381044,0.851086 -0.851085,0.851073 -0.470039,6e-6 -0.851084,-0.381036 -0.851073,-0.851073 -1.1e-5,-0.470043 0.381034,-0.851092 0.851073,-0.851085 z"
     sodipodi:nodetypes="csccsccsssccssscsccscccscccsccccccsssssssssscscscssssssssss" />
</svg>
