<?xml version="1.0" encoding="UTF-8" standalone="no"?>
<svg
   id="svg4"
   viewBox="0 0 32 32"
   height="32"
   width="32"
   version="1.1"
   sodipodi:docname="charge_socket_type2.svg"
   inkscape:version="1.4.2 (ebf0e940d0, 2025-05-08)"
   xmlns:inkscape="http://www.inkscape.org/namespaces/inkscape"
   xmlns:sodipodi="http://sodipodi.sourceforge.net/DTD/sodipodi-0.dtd"
   xmlns="http://www.w3.org/2000/svg"
   xmlns:svg="http://www.w3.org/2000/svg"
   xmlns:rdf="http://www.w3.org/1999/02/22-rdf-syntax-ns#"
   xmlns:cc="http://creativecommons.org/ns#"
   xmlns:dc="http://purl.org/dc/elements/1.1/">
  <sodipodi:namedview
     id="namedview1"
     pagecolor="#ffffff"
     bordercolor="#000000"
     borderopacity="0.25"
     inkscape:showpageshadow="2"
     inkscape:pageopacity="0.0"
     inkscape:pagecheckerboard="0"
     inkscape:deskcolor="#d1d1d1"
     inkscape:zoom="8.6850925"
     inkscape:cx="25.56104"
     inkscape:cy="-5.0085822"
     inkscape:window-width="1920"
     inkscape:window-height="1131"
     inkscape:window-x="0"
     inkscape:window-y="32"
     inkscape:window-maximized="1"
     inkscape:current-layer="svg4"
     showguides="true" />
  <metadata
     id="metadata10">
    <rdf:RDF>
      <cc:Work
         rdf:about="">
        <dc:format>image/svg+xml</dc:format>
        <dc:type
           rdf:resource="http://purl.org/dc/dcmitype/StillImage" />
      </cc:Work>
    </rdf:RDF>
  </metadata>
  <defs
     id="defs8" />
  <path
     id="path9"
     style="fill:#000000;stroke:none;stroke-width:0.100486;stroke-dasharray:none"
     d="M 10.219299,9.9999999e-8 C 7.7934201,1.9723098 5.5567828,5.0675684 5.556854,8.3546214 5.5569031,14.122191 10.232435,18.797714 16.000005,18.797772 21.767567,18.797713 26.443097,14.122189 26.443146,8.3546214 26.443097,5.0674774 24.206238,1.9722021 21.780186,0 Z M 13.393239,3.1909479 c 0.881152,-1.307e-4 1.595575,0.7140635 1.595736,1.5952145 1.32e-4,0.881354 -0.714385,1.595864 -1.595736,1.595732 -0.881151,-1.55e-4 -1.595344,-0.714582 -1.595214,-1.595732 1.5e-4,-0.880949 0.714264,-1.5950587 1.595214,-1.5952145 z m 4.998542,0 c 0.88095,1.558e-4 1.595062,0.7142655 1.595214,1.5952145 1.31e-4,0.88115 -0.714063,1.595577 -1.595214,1.595732 -0.881353,1.32e-4 -1.595856,-0.714378 -1.595727,-1.595732 1.51e-4,-0.881151 0.714577,-1.5953452 1.595727,-1.5952145 z m -7.633866,3.1146125 c 1.067574,-1.55e-4 1.933129,0.86517 1.933259,1.932744 1.6e-4,1.067777 -0.865485,1.9334186 -1.933259,1.9332616 -1.0675719,-1.28e-4 -1.9328959,-0.8656876 -1.9327469,-1.9332616 1.31e-4,-1.067371 0.865375,-1.932614 1.9327469,-1.932744 z m 5.1346,0 c 1.067572,-1.55e-4 1.933128,0.86517 1.933259,1.932744 1.61e-4,1.067777 -0.865486,1.9334186 -1.933259,1.9332616 -1.067573,-1.28e-4 -1.932907,-0.8656876 -1.932746,-1.9332616 1.31e-4,-1.067371 0.865375,-1.932614 1.932746,-1.932744 z m 5.134591,0 c 1.067572,-1.56e-4 1.933137,0.86517 1.933267,1.932744 1.52e-4,1.067777 -0.865495,1.9334206 -1.933267,1.9332616 -1.067574,-1.28e-4 -1.932897,-0.8656876 -1.932747,-1.9332616 1.3e-4,-1.067371 0.865374,-1.932614 1.932747,-1.932744 z m -7.730977,4.5831266 c 1.067784,-1.57e-4 1.93342,0.865485 1.933269,1.933262 -1.3e-4,1.067573 -0.865686,1.932899 -1.933269,1.932744 -1.06736,-1.32e-4 -1.932606,-0.865372 -1.932737,-1.932744 -1.6e-4,-1.067574 0.865164,-1.933134 1.932737,-1.933262 z m 5.192762,0 c 1.067572,1.28e-4 1.932897,0.865688 1.932735,1.933262 -1.2e-4,1.067372 -0.865363,1.932612 -1.932735,1.932744 -1.067372,-1.32e-4 -1.932616,-0.865372 -1.932747,-1.932744 -1.6e-4,-1.067574 0.865174,-1.933134 1.932747,-1.933262 z"
     sodipodi:nodetypes="ccccccccccccccccccccccccccccccccccccccccc" />
</svg>
