<?xml version="1.0" encoding="UTF-8" standalone="no"?>
<svg
   id="svg4"
   viewBox="0 0 32 32"
   height="32"
   width="32"
   version="1.1"
   sodipodi:docname="charge_socket_type2_combo.svg"
   inkscape:version="1.4.2 (ebf0e940d0, 2025-05-08)"
   xmlns:inkscape="http://www.inkscape.org/namespaces/inkscape"
   xmlns:sodipodi="http://sodipodi.sourceforge.net/DTD/sodipodi-0.dtd"
   xmlns="http://www.w3.org/2000/svg"
   xmlns:svg="http://www.w3.org/2000/svg"
   xmlns:rdf="http://www.w3.org/1999/02/22-rdf-syntax-ns#"
   xmlns:cc="http://creativecommons.org/ns#"
   xmlns:dc="http://purl.org/dc/elements/1.1/">
  <sodipodi:namedview
     id="namedview1"
     pagecolor="#ffffff"
     bordercolor="#000000"
     borderopacity="0.25"
     inkscape:showpageshadow="2"
     inkscape:pageopacity="0.0"
     inkscape:pagecheckerboard="0"
     inkscape:deskcolor="#d1d1d1"
     inkscape:zoom="12.573594"
     inkscape:cx="21.632637"
     inkscape:cy="9.6631083"
     inkscape:window-width="1920"
     inkscape:window-height="1131"
     inkscape:window-x="0"
     inkscape:window-y="32"
     inkscape:window-maximized="1"
     inkscape:current-layer="svg4"
     showguides="true" />
  <metadata
     id="metadata10">
    <rdf:RDF>
      <cc:Work
         rdf:about="">
        <dc:format>image/svg+xml</dc:format>
        <dc:type
           rdf:resource="http://purl.org/dc/dcmitype/StillImage" />
      </cc:Work>
    </rdf:RDF>
  </metadata>
  <defs
     id="defs8" />
  <path
     id="path10"
     style="opacity:1;fill:#000000;stroke:none;stroke-width:0.083781;stroke-dasharray:none"
     d="M 14.618495,1.126e-5 C 12.595896,1.6444433 10.730957,4.2252798 10.731007,6.965894 c 3.1e-5,3.656045 2.253648,6.785879 5.447281,8.076298 h -0.784063 c -2.45871,0 -4.43801,1.97931 -4.43801,4.43801 0,2.458699 1.9793,4.438002 4.43801,4.438002 h 3.025222 v 4.366582 c 0,1.488803 -3.695056,1.563379 -3.652898,0.02346 v -0.012 -1.434153 c 0,-0.787723 -0.365152,-1.494192 -0.92221,-2.132202 -0.55706,-0.638001 -1.383604,-1.195903 -2.407461,-1.195903 H 3.8547877 v 1.714103 h 7.5820903 c 0.379707,0 0.789681,0.233797 1.117184,0.608902 0.327511,0.375105 0.496297,0.903429 0.496297,1.005108 v 1.398703 c -0.105322,3.84705 7.083714,3.85296 7.083714,0.02397 v -4.366581 h 3.348446 c 2.45871,0 4.437999,-1.979303 4.437999,-4.438002 0,-2.458701 -1.979289,-4.43801 -4.437999,-4.43801 H 22.698446 C 25.892069,13.751762 28.145172,10.621926 28.145212,6.9658827 28.145161,4.2251886 26.280474,1.6443419 24.257714,0 Z m 2.646228,2.66081604 c 0.734662,-1.115e-4 1.330278,0.5952215 1.330409,1.3298932 1.11e-4,0.7348328 -0.595576,1.3305195 -1.330409,1.330408 C 16.530053,5.3209978 15.93472,4.725391 15.93483,3.9907205 15.934971,3.2562211 16.530214,2.660958 17.264723,2.6608273 Z m 4.16796,0 c 0.73449,1.307e-4 1.329752,0.5953938 1.329884,1.3298932 1.11e-4,0.7346705 -0.595212,1.3302773 -1.329884,1.330408 C 20.69784,5.32124 20.101649,4.7255533 20.10175,3.9907205 20.101881,3.2560488 20.698011,2.6607158 21.432683,2.6608273 Z m -6.364811,2.5966961 c 0.8901,-1.217e-4 1.611293,0.721304 1.611405,1.6114038 1.2e-4,0.890271 -0.721133,1.612059 -1.611405,1.6119271 -0.890099,-1.104e-4 -1.612049,-0.7218285 -1.611919,-1.6119271 1.12e-4,-0.8899286 0.721981,-1.6112934 1.611919,-1.6114038 z m 4.280564,0 c 0.890099,-1.217e-4 1.611817,0.721304 1.611928,1.6114038 1.32e-4,0.890271 -0.721657,1.612059 -1.611928,1.6119271 -0.890101,-1.104e-4 -1.611525,-0.7218285 -1.611395,-1.6119271 1.12e-4,-0.8899286 0.721467,-1.6112934 1.611395,-1.6114038 z m 4.281088,0 c 0.89011,-1.318e-4 1.611828,0.721304 1.611929,1.6114038 1.41e-4,0.890271 -0.721658,1.612059 -1.611929,1.6119271 -0.8901,-1.104e-4 -1.611535,-0.7218285 -1.611404,-1.6119271 1.11e-4,-0.8899286 0.721476,-1.6112934 1.611404,-1.6114038 z M 17.183918,9.078811 c 0.890261,-1.307e-4 1.612059,0.7216485 1.611919,1.611919 -1.02e-4,0.890099 -0.72182,1.611535 -1.611919,1.611403 -0.889939,-1.1e-4 -1.611293,-0.721466 -1.611405,-1.611403 -1.31e-4,-0.8900995 0.721295,-1.6118188 1.611405,-1.611919 z m 4.329571,0 c 0.8901,1.002e-4 1.611526,0.7218195 1.611394,1.611919 -10e-5,0.889937 -0.721466,1.611293 -1.611394,1.611403 -0.889938,-1.1e-4 -1.611293,-0.721466 -1.611405,-1.611403 -1.2e-4,-0.8900995 0.721306,-1.6118188 1.611405,-1.611919 z m -5.397233,7.892795 a 2.4489805,2.4489805 0 0 1 2.449156,2.449166 2.4489805,2.4489805 0 0 1 -2.449156,2.449166 2.4489805,2.4489805 0 0 1 -2.449167,-2.449166 2.4489805,2.4489805 0 0 1 2.449167,-2.449166 z m 6.644233,0 a 2.4489805,2.4489805 0 0 1 2.449166,2.449166 2.4489805,2.4489805 0 0 1 -2.449166,2.449166 2.4489805,2.4489805 0 0 1 -2.449168,-2.449166 2.4489805,2.4489805 0 0 1 2.449168,-2.449166 z m -6.644233,1.56292 a 0.88647777,0.88647777 0 0 0 -0.886246,0.886246 0.88647777,0.88647777 0 0 0 0.886246,0.886761 0.88647777,0.88647777 0 0 0 0.88676,-0.886761 0.88647777,0.88647777 0 0 0 -0.88676,-0.886246 z m 6.644233,0 a 0.88647777,0.88647777 0 0 0 -0.886247,0.886246 0.88647777,0.88647777 0 0 0 0.886247,0.886761 0.88647777,0.88647777 0 0 0 0.886759,-0.886761 0.88647777,0.88647777 0 0 0 -0.886759,-0.886246 z" />
</svg>
