<?xml version="1.0" encoding="UTF-8" standalone="no"?>
<svg
   id="svg4"
   viewBox="0 0 32 32"
   height="32"
   width="32"
   version="1.1"
   sodipodi:docname="charge_socket_chademo.svg"
   inkscape:version="1.4.2 (ebf0e940d0, 2025-05-08)"
   xmlns:inkscape="http://www.inkscape.org/namespaces/inkscape"
   xmlns:sodipodi="http://sodipodi.sourceforge.net/DTD/sodipodi-0.dtd"
   xmlns="http://www.w3.org/2000/svg"
   xmlns:svg="http://www.w3.org/2000/svg"
   xmlns:rdf="http://www.w3.org/1999/02/22-rdf-syntax-ns#"
   xmlns:cc="http://creativecommons.org/ns#"
   xmlns:dc="http://purl.org/dc/elements/1.1/">
  <sodipodi:namedview
     id="namedview1"
     pagecolor="#ffffff"
     bordercolor="#000000"
     borderopacity="0.25"
     inkscape:showpageshadow="2"
     inkscape:pageopacity="0.0"
     inkscape:pagecheckerboard="0"
     inkscape:deskcolor="#d1d1d1"
     inkscape:zoom="8.6850925"
     inkscape:cx="25.56104"
     inkscape:cy="-5.0085822"
     inkscape:window-width="1920"
     inkscape:window-height="1131"
     inkscape:window-x="0"
     inkscape:window-y="32"
     inkscape:window-maximized="1"
     inkscape:current-layer="svg4"
     showguides="true" />
  <metadata
     id="metadata10">
    <rdf:RDF>
      <cc:Work
         rdf:about="">
        <dc:format>image/svg+xml</dc:format>
        <dc:type
           rdf:resource="http://purl.org/dc/dcmitype/StillImage" />
      </cc:Work>
    </rdf:RDF>
  </metadata>
  <defs
     id="defs8" />
  <path
     id="path15"
     style="fill:#000000;stroke:none;stroke-width:0.102612;stroke-dasharray:none"
     d="M 18.921014,0 A 10.084484,10.084484 0 0 0 13.324498,1.6953386 L 11.925516,1.4595596 10.029544,3.322539 10.150683,5.1065652 A 10.084484,10.084484 0 0 0 8.8365905,10.084425 10.084484,10.084484 0 0 0 18.102811,20.135324 v 4.466824 c 0,1.54437 -3.832964,1.621729 -3.789222,0.02433 v -0.0119 -1.48822 c 0,-0.817123 -0.37879,-1.54942 -0.95664,-2.211241 C 12.7791,20.253296 11.921163,19.674573 10.859101,19.674573 H 2.9945623 v 1.778078 h 7.8645387 c 0.393881,0 0.819144,0.242524 1.15888,0.631629 0.339736,0.389104 0.515366,0.936606 0.515366,1.042079 v 1.451447 c -0.109262,3.990632 7.347552,3.996223 7.347552,0.02433 v -4.47925 A 10.084484,10.084484 0 0 0 29.005438,10.084425 10.084484,10.084484 0 0 0 27.691346,5.1065652 L 27.812485,3.322539 25.916514,1.4595596 24.51752,1.6953386 A 10.084484,10.084484 0 0 0 18.921014,0 Z m 0.001,1.8575715 c 1.345948,5.54e-5 2.44069,1.0951393 2.440533,2.4410711 -5.3e-5,1.34578 -1.0947,2.4426387 -2.440533,2.4426937 -1.345833,-5.5e-5 -2.442637,-1.0968625 -2.442688,-2.4426937 -1.68e-4,-1.345983 1.096751,-2.4410157 2.442688,-2.4410711 z m 0,0.4337038 c -0.187621,8.5e-6 -0.336387,0.1487785 -0.336367,0.3363644 1.1e-5,0.187564 0.148599,0.3341931 0.336367,0.3342004 0.187778,-7.3e-6 0.3342,-0.1464271 0.3342,-0.3342004 2.1e-5,-0.187796 -0.146568,-0.3363559 -0.3342,-0.3363644 z M 18.1844,2.5811328 c -0.467898,0.2041198 -0.778573,0.5168131 -0.981515,0.9852975 0.0157,-9.968e-4 0.02512,-0.017308 0.04113,-0.017308 0.414454,-5.04e-5 0.754369,0.3397653 0.754389,0.7543847 -2e-5,0.4146213 -0.339935,0.7565992 -0.754389,0.7565488 -0.01403,0 -0.02187,-0.014915 -0.03568,-0.015682 0.203528,0.4604019 0.510363,0.7669367 0.971228,0.9696146 -6.37e-4,-0.012484 -0.01403,-0.019816 -0.01403,-0.032447 -5.2e-5,-0.4146617 0.342133,-0.7543673 0.756545,-0.7543852 0.414412,1.79e-5 0.754441,0.3399336 0.754388,0.7543852 0,0.012637 -0.01288,0.019955 -0.0135,0.032447 0.460875,-0.2022693 0.767407,-0.5079271 0.971238,-0.9679925 -0.01308,6.922e-4 -0.02135,0.014063 -0.03464,0.01406 -0.414412,-1.69e-5 -0.75599,-0.3421426 -0.756011,-0.756549 2.1e-5,-0.4144049 0.341599,-0.7543681 0.756011,-0.7543847 0.0159,-3.3e-6 0.02543,0.016314 0.04113,0.017308 -0.203046,-0.4691267 -0.514528,-0.7812895 -0.983136,-0.9852976 10e-4,0.017529 0.01894,0.028684 0.01894,0.046505 -2.1e-5,0.4144047 -0.339977,0.7543681 -0.754389,0.7543847 -0.414402,-1.66e-5 -0.756524,-0.3397695 -0.756545,-0.7543847 -10e-6,-0.017812 0.01769,-0.028998 0.01894,-0.046505 z m -0.94042,1.3881767 c -0.187768,7.2e-6 -0.336356,0.1464281 -0.336356,0.3342001 0,0.1877743 0.148588,0.3363566 0.336356,0.3363644 0.1878,2.27e-5 0.336356,-0.1487335 0.336367,-0.3363644 C 17.580336,4.1158819 17.43178,3.9692862 17.24398,3.9693095 Z m 3.355534,0 c -0.187778,7.2e-6 -0.335822,0.1464281 -0.335833,0.3342001 1.1e-5,0.1877743 0.148055,0.3363566 0.335833,0.3363644 0.187789,2.27e-5 0.334734,-0.1485242 0.334734,-0.3363644 0,-0.1878371 -0.146945,-0.3342234 -0.334734,-0.3342001 z m -1.6775,1.6774927 c -0.187831,8.3e-6 -0.336387,0.1471555 -0.336367,0.3347416 1.1e-5,0.1875645 0.148599,0.3363565 0.336367,0.3363635 0.187778,-7e-6 0.3342,-0.148589 0.3342,-0.3363635 2.1e-5,-0.1877966 -0.146359,-0.3347333 -0.3342,-0.3347416 z M 14.49251,6.8954583 a 3.3497155,3.3497155 0 0 1 3.349563,3.3501187 3.3497155,3.3497155 0 0 1 -3.349569,3.349579 3.3497155,3.3497155 0 0 1 -3.349579,-3.349579 3.3497155,3.3497155 0 0 1 3.349579,-3.3501187 z m 8.980693,0 a 3.3497155,3.3497155 0 0 1 3.349589,3.3501187 3.3497155,3.3497155 0 0 1 -3.34958,3.349579 3.3497155,3.3497155 0 0 1 -3.34958,-3.349579 3.3497155,3.3497155 0 0 1 3.34958,-3.3501187 z m -8.980647,2.068475 a 1.281657,1.281657 0 0 0 -1.281652,1.2816437 1.281657,1.281657 0 0 0 1.281652,1.281645 1.281657,1.281657 0 0 0 1.281643,-1.281645 1.281657,1.281657 0 0 0 -1.281643,-1.2816437 z m 8.980693,0 a 1.281657,1.281657 0 0 0 -1.281642,1.2816437 1.281657,1.281657 0 0 0 1.281642,1.281645 1.281657,1.281657 0 0 0 1.281641,-1.281645 1.281657,1.281657 0 0 0 -1.281641,-1.2816437 z m -4.551188,4.1693997 c 1.345947,5.5e-5 2.44069,1.094597 2.440534,2.440529 -5.3e-5,1.345781 -1.094702,2.442637 -2.440534,2.442693 -1.345832,-5.6e-5 -2.442636,-1.096863 -2.442689,-2.442693 -1.67e-4,-1.345982 1.096752,-2.440474 2.442689,-2.440529 z m 0,0.433162 c -0.187622,7e-6 -0.336387,0.148778 -0.336366,0.336364 10e-6,0.187564 0.148598,0.334734 0.336366,0.334741 0.187778,-7e-6 0.3342,-0.146969 0.3342,-0.334741 2.1e-5,-0.187797 -0.146568,-0.336357 -0.3342,-0.336364 z m -0.737615,0.290397 c -0.467896,0.20412 -0.778572,0.516275 -0.981514,0.984757 0.0157,-9.96e-4 0.02512,-0.01676 0.04113,-0.01676 0.414454,-5.1e-5 0.754368,0.339765 0.754389,0.754386 -2.1e-5,0.41462 -0.339935,0.756057 -0.754389,0.756007 -0.01403,0 -0.02188,-0.01437 -0.03568,-0.01515 0.203527,0.460402 0.510362,0.766396 0.971228,0.969074 -6.37e-4,-0.01248 -0.01403,-0.01981 -0.01403,-0.03245 -5.3e-5,-0.414662 0.342132,-0.754368 0.756545,-0.754386 0.414412,1.8e-5 0.75444,0.339935 0.754389,0.754386 0,0.01264 -0.01288,0.01996 -0.0135,0.03245 0.460874,-0.202269 0.767407,-0.507386 0.971238,-0.967451 -0.01308,6.91e-4 -0.02135,0.01352 -0.03464,0.01352 -0.414411,-1.7e-5 -0.755989,-0.341602 -0.75601,-0.756007 2.1e-5,-0.414405 0.341599,-0.754368 0.75601,-0.754386 0.0159,0 0.02543,0.01578 0.04113,0.01676 -0.203047,-0.469126 -0.514528,-0.78075 -0.983137,-0.984757 0.001,0.01753 0.01894,0.02815 0.01894,0.04597 -2.1e-5,0.414405 -0.339977,0.754368 -0.754389,0.754384 -0.414401,-1.6e-5 -0.756524,-0.339769 -0.756545,-0.754384 -10e-6,-0.0178 0.01769,-0.02846 0.01894,-0.04597 z m -0.940418,1.387637 c -0.187769,8e-6 -0.336357,0.14697 -0.336357,0.334741 0,0.187775 0.148588,0.335815 0.336357,0.335823 0.187798,2.2e-5 0.336355,-0.148192 0.336365,-0.335823 -10e-6,-0.187627 -0.148567,-0.334764 -0.336365,-0.334741 z m 3.355533,0 c -0.187778,8e-6 -0.335822,0.14697 -0.335832,0.334741 10e-6,0.187775 0.148054,0.335815 0.335832,0.335823 0.18779,2.2e-5 0.334734,-0.147983 0.334734,-0.335823 0,-0.187837 -0.146944,-0.334764 -0.334734,-0.334741 z m -1.6775,1.678033 c -0.18783,8e-6 -0.336387,0.146614 -0.336366,0.334201 10e-6,0.187564 0.148598,0.336356 0.336366,0.336364 0.187778,-8e-6 0.3342,-0.148589 0.3342,-0.336364 2.1e-5,-0.187795 -0.146359,-0.334193 -0.3342,-0.334201 z" />
</svg>
