<svg height="18" viewBox="0 0 18 18" width="18" xmlns="http://www.w3.org/2000/svg"><path d="m2.25 9c.42489 1.05465 1.090875 1.98885 1.92855 2.73015v-5.4603c-.83775.7412925-1.503675 1.675425-1.92855 2.73015zm13.5 0c-.42489-1.054725-1.090875-1.98885-1.92855-2.73015v5.4603c.83775-.7412925 1.503675-1.675425 1.92855-2.73015zm-6.75-4.54875c-1.4193 0-2.74215.4037925-3.857175 1.099875v6.897675c1.11495.69609 2.4378 1.099875 3.857175 1.099875s2.74215-.4037925 3.857175-1.099875v-6.897675c-1.0291846-.64254462-2.2355148-1.03602462-3.53139108-1.09275796zm2.892825 3.1038v2.892825h-.964275v-.964275h-1.44645v.964275h-.964275v-.964275h-1.44645v.964275h-.964275v-2.892825h.964275v.964275h1.44645v-.964275h.964275v.964275h1.44645v-.964275z" fill="#51ab8c"/></svg>