<svg height="18" viewBox="0 0 18 18" width="18" xmlns="http://www.w3.org/2000/svg"><g fill="none"><circle cx="9" cy="9" fill="#fff" opacity=".6" r="9"/><circle cx="9" cy="9" fill="#51ab8c" r="8.25"/><path d="m3.375 9c.354075.878875.9090625 1.657375 1.607125 2.275125v-4.55025c-.698125.61774375-1.2530625 1.3961875-1.607125 2.275125zm11.25 0c-.354075-.8789375-.9090625-1.657375-1.607125-2.275125v4.55025c.698125-.6177438 1.2530625-1.3961875 1.607125-2.275125zm-5.625-3.790625c-1.18275 0-2.285125.33649375-3.2143125.9165625v5.7480625c.929125.580075 2.0315.9165625 3.2143125.9165625s2.285125-.3364938 3.2143125-.9165625v-5.7480625c-.8576538-.53545385-1.862929-.86335385-2.9428259-.91063163zm2.4106875 2.5865v2.4106875h-.8035625v-.8035625h-1.205375v.8035625h-.8035625v-.8035625h-1.205375v.8035625h-.8035625v-2.4106875h.8035625v.8035625h1.205375v-.8035625h.8035625v.8035625h1.205375v-.8035625z" fill="#fff"/></g></svg>