<svg height="18" viewBox="0 0 24 24" width="18" xmlns="http://www.w3.org/2000/svg"><path d="m16.069622 1.670709c-2.186989 3.1794308-2.49774 5.8345165-4.920597 7.9487323-2.3145523 2.0194387-6.5608177 1.3261747-6.5608177 4.2393297v1.059733c0 1.059883 1.0934782 2.068306 1.0934782 3.179442v1.059883c0 1.589704-.5467534 1.589704-1.0934782 3.179426h1.0934782l2.1869842-3.179426v3.179426h1.640192v-6.359018h1.6402033v6.359018h1.640205v-4.769297l1.640205 4.769297h1.093492l-1.674454-6.657053c.644611-.381233.58092-1.085969.58092-1.821488v-3.179419l2.460359-5.8292145 2.460373.7948732c0-.074715-.000844-.734467 0-.7948732 0 0-.399405-.3871019-.546738-.5298655l-2.733758-2.649626z" fill="#747E86" stroke-width="1.47601"/></svg>