<svg height="18" viewBox="0 0 18 18" width="18" xmlns="http://www.w3.org/2000/svg"><g fill="none"><circle cx="9" cy="9" fill="#fff" opacity=".6" r="9"/><circle cx="9" cy="9" fill="#51ab8c" r="8.25"/><path d="m9 3.375c-3.106625 0-5.625 2.5184375-5.625 5.625s2.518375 5.625 5.625 5.625c3.1065625 0 5.625-2.5184375 5.625-5.625s-2.5184375-5.625-5.625-5.625zm0 1.125c2.4853125 0 4.5 2.0146875 4.5 4.5s-2.0146875 4.5-4.5 4.5-4.5-2.0146875-4.5-4.5 2.0146875-4.5 4.5-4.5zm0 1.125c-1.8639375 0-3.375 1.5110625-3.375 3.375s1.5110625 3.375 3.375 3.375 3.375-1.5110625 3.375-3.375-1.5110625-3.375-3.375-3.375zm0 1.125c1.242625 0 2.25 1.007375 2.25 2.25s-1.007375 2.25-2.25 2.25-2.25-1.007375-2.25-2.25 1.007375-2.25 2.25-2.25zm0 1.125c-.6213375 0-1.125.5036625-1.125 1.125s.5036625 1.125 1.125 1.125 1.125-.5036625 1.125-1.125-.5036625-1.125-1.125-1.125z" fill="#fff"/></g></svg>