<svg height="18" viewBox="0 0 18 18" width="18" xmlns="http://www.w3.org/2000/svg"><path d="m9 2.25c-3.72795 0-6.75 3.022125-6.75 6.75s3.02205 6.75 6.75 6.75c3.727875 0 6.75-3.022125 6.75-6.75s-3.022125-6.75-6.75-6.75zm0 1.35c2.982375 0 5.4 2.417625 5.4 5.4s-2.417625 5.4-5.4 5.4-5.4-2.417625-5.4-5.4 2.417625-5.4 5.4-5.4zm0 1.35c-2.236725 0-4.05 1.813275-4.05 4.05s1.813275 4.05 4.05 4.05 4.05-1.813275 4.05-4.05-1.813275-4.05-4.05-4.05zm0 1.35c1.49115 0 2.7 1.20885 2.7 2.7s-1.20885 2.7-2.7 2.7-2.7-1.20885-2.7-2.7 1.20885-2.7 2.7-2.7zm0 1.35c-.745605 0-1.35.604395-1.35 1.35s.604395 1.35 1.35 1.35 1.35-.604395 1.35-1.35-.604395-1.35-1.35-1.35z" fill="#51ab8c"/></svg>