<svg height="18" viewBox="0 0 18 18" width="18" xmlns="http://www.w3.org/2000/svg"><g fill="none"><circle cx="9" cy="9" fill="#fff" opacity=".6" r="9"/><circle cx="9" cy="9" fill="#51ab8c" r="8.25"/><path d="m13.5900833 5.15308333c-.0943529-.35776-.3754508-.63884166-.7332-.73520416-.4698091-.1258075-1.2030416-.27519917-2.0600666-.29289542l3.0783458 3.08224583c-.0157219-.855075-.1611892-1.584375-.2850304-2.0541625zm-9.18016663 7.69383337c.09435291.35776.37545625.6388416.7332.7352041.46980916.1258075 1.20304166.2751992 2.06006666.2928954l-3.07834583-3.0822458c.01572621.855075.16118917 1.584375.28503042 2.0541625zm-.20246959-3.30833753 4.24991667 4.25777083c2.60460415-.3813496 4.89070835-2.3333375 5.33693335-5.33498333l-4.25186668-4.25777084c-2.60460417.38134959-4.89070834 2.3333375-5.33498334 5.33498334zm6.23729162-2.42964584c.0609376-.0609375.1611892-.0609375.2221267 0l.2221267.22212667c.0609375.0609375.0609375.16118917 0 .22212667l-.5562917.55629166.5562917.55629167c.0609375.0609375.0609375.16118917 0 .22212667l-.2221267.22212666c-.0609375.0609375-.1611891.0609375-.2221267 0l-.55629162-.55629166-.44425333.44621958.55629165.55629167c.0609375.0609375.0609375.16118916 0 .22212666l-.22212665.22212672c-.0609375.0609375-.16118917.0609375-.22212667 0l-.55629166-.55629172-.44425334.44425334.55629167.55629168c.0609375.0609375.0609375.1611892 0 .2221267l-.22212667.2221266c-.0609375.0609375-.16118916.0609375-.22212666 0l-.55629167-.5562916-.55629167.5562916c-.0609375.0609375-.16118916.0609375-.22212666 0l-.22212667-.2221266c-.0609375-.0609375-.0609375-.1611892 0-.2221267l.55629167-.55629168-.55629167-.55434167c-.0609375-.0609375-.0609375-.16118917 0-.22212667l.22212667-.22212666c.0609375-.0609375.16118916-.0609375.22212666 0l.55629167.55629166.44425333-.44425333-.55629166-.55629167c-.0609375-.0609375-.0609375-.16118916 0-.22212666l.22212666-.22212667c.0609375-.0609375.16118917-.0609375.22212667 0l.55629167.55629167.44425333-.44425334-.55629167-.55629166c-.0609375-.0609375-.0609375-.16118917 0-.22212667l.22212667-.22212667c.0609375-.0609375.16118917-.0609375.22212667 0l.55629166.55629167z" fill="#fff"/></g></svg>