<svg height="18" viewBox="0 0 18 18" width="18" xmlns="http://www.w3.org/2000/svg"><path d="m15.3555 3.6735c-.1306425-.49536-.519855-.88455-1.0152-1.017975-.650505-.174195-1.66575-.381045-2.8524-.4055475l4.262325 4.267725c-.0217687-1.18395-.223185-2.19375-.3946575-2.844225zm-12.711 10.653c.1306425.49536.5198625.88455 1.0152 1.017975.650505.174195 1.66575.381045 2.8524.4055475l-4.262325-4.267725c.02177475 1.18395.223185 2.19375.3946575 2.844225zm-.2803425-4.580775 5.8845 5.895375c3.606375-.5280225 6.77175-3.230775 7.3896-7.3869l-5.8872-5.895375c-3.606375.5280225-6.77175 3.230775-7.3869 7.3869zm8.63625-3.364125c.084375-.084375.223185-.084375.30756 0l.30756.30756c.084375.084375.084375.223185 0 .30756l-.77025.77025.77025.77025c.084375.084375.084375.223185 0 .30756l-.30756.30756c-.084375.084375-.223185.084375-.30756 0l-.77025-.77025-.61512.6178425.77025.77025c.084375.084375.084375.223185 0 .30756l-.30756.30756c-.084375.084375-.223185.084375-.30756 0l-.77025-.77025-.61512.61512.77025.77025c.084375.084375.084375.223185 0 .30756l-.30756.30756c-.084375.084375-.223185.084375-.30756 0l-.77025-.77025-.77025.77025c-.084375.084375-.223185.084375-.30756 0l-.30756-.30756c-.084375-.084375-.084375-.223185 0-.30756l.77025-.77025-.77025-.76755c-.084375-.084375-.084375-.223185 0-.30756l.30756-.30756c.084375-.084375.223185-.084375.30756 0l.77025.77025.61512-.61512-.77025-.77025c-.084375-.084375-.084375-.223185 0-.30756l.30756-.30756c.084375-.084375.223185-.084375.30756 0l.77025.77025.61512-.61512-.77025-.77025c-.084375-.084375-.084375-.223185 0-.30756l.30756-.30756c.084375-.084375.223185-.084375.30756 0l.77025.77025z" fill="#51ab8c"/></svg>