<svg height="18" viewBox="0 0 18 18" width="18" xmlns="http://www.w3.org/2000/svg"><g fill="none"><circle cx="9" cy="9" fill="#fff" opacity=".6" r="9"/><circle cx="9" cy="9" fill="#51ab8c" r="8.25"/><path d="m12.7313508 9.82556299c.1056601-.04571972.1933655-.04626856.2727698-.00191111.2382375.13307232.4073221.67024232.8039762 1.59928862l.67281 1.5725036-.0631696.1272899-.0065015.0212053c-.0132124.0323449-.0513542.092849-.1552474.117571l-.058347.0112987c-.0455174.0073375-.1053065.0144405-.1855655.0222397l-2.2990448.1808494-.2344888.1004951c-.6929012.2982318-1.3148903.0737004-1.55525454-.5857318-.21353741-.585729.05236021-1.0929947.68808144-1.414016l.2033508-.0959897c.1161228-.0638878.2576594-.1934694.9892017-.8578153l.5179985-.4843062c.1681828-.15611166.2964157-.26406541.4094307-.31297121zm-1.8528836 2.28265391-.0775275.0335081c-.5620782.2442796-.4176666 1.0364509.1741907.9896139.0429559-.0033812.1113398-.0205996.1792193-.0446945l.1241773-.051013zm-.1787822-8.82937389c1.6767328.00719254 2.9148895 1.37226679 2.6310156 3.18140547-.4214251 2.68423767-3.61705232 4.33764022-5.55987095 2.87603019l-.14164783-.10623833-1.46719633 1.46626526.04402422.0708239c.05256053.0850446.0588378.2396929.0133974.3254088-.01778806.0335379-.24163156.2656084-.53102621.5571036l-.85946905.8506962c-.28614068.2782313-.50990651.4893976-.53708347.5006188-.07919852.0326996-.14653833.0349195-.24118746.0076591-.16189584-.0466115-.42303238-.3740784-.42303238-.5302115 0-.0804628.1999662-.3232331.44313338-.5761763l.84128207-.8527488c.66496545-.6640648.72938656-.7172411.92178802-.6260929l.12143017.0604719 1.41133314-1.42298819c.02749365-.02927165.04248539-.04615148.04248539-.0480794 0-.00449602-.00809283-.01863336-.02123173-.03773776l-.0515082-.0675401c-.97011074-1.1709737-.65757013-3.19655826.69197019-4.485874.1378354-.13168456.25317808-.23377606.34901869-.30724547l.19804252-.14357402c.05926658-.04134743.14115535-.09480839.26550515-.16650456l.20745508-.11474155c.07492791-.0406859.1558354-.08220607.24333256-.1197472.10914909-.04632246.25359009-.09525677.43834579-.14930699.26696789-.07810477.52855404-.12274643.78149194-.13681348zm2.9525703 9.28394759-.2796376-.6526925-1.6251328.70058.1177197.2708587 1.8567696-.1464305zm-.8807074-2.0289934-1.3800937 1.2499664.1186802.2756414 1.6241527-.7005898-.2625083-.6074548c-.0438536-.0990676-.0752525-.1668059-.1002309-.2175632zm-2.0414076-6.53811121h-.1359341c-.68584483.02097325-1.44073476.32488934-2.0883573.9542338-1.62327062 1.57745289-1.24119488 3.99098374.66516559 4.20067702 1.71426901.18856323 3.47528681-1.43201223 3.47328111-3.19665626-.0013755-1.226445-.8604456-1.9324604-1.9141553-1.95825456z" fill="#fff"/></g></svg>