<svg height="18" viewBox="0 0 18 18" width="18" xmlns="http://www.w3.org/2000/svg"><path d="m13.797451 10.7042953c.1358487-.0587825.2486128-.0594882.3507041-.0024572.3063053.171093.5236998.8617401 1.0336836 2.0562282l.8650415 2.0217903-.0812181.1636586-.008359.0272639c-.0169874.0415863-.0660268.1193773-.1996038.1511627l-.0750177.0145269c-.0585223.009434-.135394.0185663-.2385841.0285939l-2.9559148.2325206-.3014855.1292081c-.8908731.3834408-1.6905734.0947576-1.9996131-.7530838-.27454807-.7530801.0673203-1.4052789.8846762-1.8180206l.261451-.1234153c.1493008-.0821415.3312764-.2487463 1.2718308-1.1029053l.665998-.6226794c.216235-.2007151.381106-.3395127.5264109-.4023916zm-2.3822789 2.9348407-.0996782.0430819c-.7226719.3140737-.5369999 1.3325797.2239594 1.2723607.0552291-.0043472.1431512-.0264852.2304248-.0574644l.1596566-.0655882zm-.2298628-11.35205214c2.1557993.00924757 3.747715 1.76434303 3.3827343 4.09037848-.5418323 3.45116271-4.65049581 5.57696596-7.14840548 3.69775306l-.18211864-.1365921-1.88639528 1.8851982.05660257.0910593c.06757782.109343.0756486.3081766.01722522.4183827-.02287036.0431202-.31066914.3414965-.68274798.7162761l-1.10503163 1.0937522c-.36789517.3577261-.65559408.6292256-.6905359.6436528-.10182666.0420424-.18840641.0448964-.31009815.0098475-.20815179-.0599292-.54389878-.4809581-.54389878-.6817006 0-.1034522.25709941-.4155854.56974291-.7407981l1.08164838-1.0963913c.85495559-.8537976.93778272-.9221671 1.18515603-.8049767l.15612451.0777496 1.81457118-1.82955616c.03534897-.03763498.05462407-.05933762.05462407-.06181637 0-.00578059-.01040507-.02395717-.02729795-.04851997l-.06622481-.08683728c-1.24728524-1.50553761-.84544733-4.10986062.88967595-5.76755229.17721695-.16930872.32551467-.30056922.44873831-.39502988l.2546261-.18459517c.07619989-.05316099.18148546-.1218965.34136377-.21407729l.26672795-.14752486c.09633589-.05231044.2003598-.10569351.31285615-.15396069.14033455-.05955744.32604441-.12247299.56358744-.19196612.34324446-.10042042.67956956-.15781683 1.00477536-.17590304zm3.7961617 11.93650404-.359534-.8391761-2.0894564.9007457.1513539.3482469 2.3872751-.1882678zm-1.132338-2.6087057-1.7744061 1.6070996.1525888.3543961 2.0881963-.9007583-.3375107-.7810134c-.0563832-.1273726-.0967532-.2144647-.1288683-.279724zm-2.6246669-8.40614307h-.1747724c-.8818005.02696561-1.85237327.41771487-2.68503083 1.22687203-2.08706223 2.02815371-1.59582199 5.13126481.8552129 5.40087046 2.20406023.24243838 4.46822593-1.84115859 4.46564723-4.10998663-.0017685-1.57685785-1.1062873-2.48459194-2.4610569-2.51775586z" fill="#747E86"/></svg>