<svg height="18" viewBox="0 0 24 24" width="18" xmlns="http://www.w3.org/2000/svg"><g fill-rule="evenodd"><circle cx="12" cy="12" fill="#fff" opacity=".6" r="12"/><circle cx="12" cy="12" fill="#747E86" r="11"/><path d="m6 7.7692 6-2.7692 6 2.7692v.92308h-.92308v6.9231h.92308v1.3846h-12v-1.3846h.92308v-6.9231h-.92308zm8.3077 4.9242c0-1.0203-1.0379-1.847-2.3097-1.847-.42256 0-.77128-.27557-.77128-.61675s.34462-.61675.77128-.61675c.42667 0 .77128.27885.77128.61675h1.5385c0-.80046-.6441-1.4763-1.5385-1.7322v-.72829h-1.5385v.72829c-.89436.25589-1.5385.93169-1.5385 1.7322 0 1.0203 1.0379 1.847 2.3097 1.847.42667 0 .77128.27557.77128.61675s-.34462.61675-.77128.61675c-.42667 0-.77128-.27885-.77128-.61675h-1.5385c0 .80046.6441 1.4763 1.5385 1.7322v.72829h1.5385v-.72829c.89436-.25589 1.5385-.93169 1.5385-1.7322z" fill="#fff"/></g></svg>