<svg height="18" viewBox="0 0 24 24" width="18" xmlns="http://www.w3.org/2000/svg"><g fill="none"><circle cx="12" cy="12" fill="#fff" opacity=".6" r="12"/><circle cx="12" cy="12" fill="#747E86" r="11.143"/><path d="m18.286 8.8571h-.81943l-1.548-2.58c-.082286-.136-.21714-.23257-.37314-.26514-.15486-.032-.31886.0022857-.44857.094286l-3.8509 2.7509h1.9663l2.0451-1.4606.87657 1.4606h-2.4194v1.1429h4v4.5714h-6.8571v-1.1429h-1.1429v1.7143c0 .316.256.57143.57143.57143h3.9326l-.128.256c-.097143.19486-.29257.31543-.51029.31543h-3.6291l-1.3794-1.3794v-2.9549l1.3794-1.38h2.0491v.57143c0 .31486-.256.57143-.57143.57143h-1.1429v1.1429h1.1429c.94514 0 1.7143-.76914 1.7143-1.7143v-1.1429c0-.31543-.25543-.57143-.57143-.57143h-2.8571c-.15143 0-.29714.059429-.404.168l-1.0474 1.0469c-.08-.041714-.16629-.072-.26286-.072h-2.2857c-.31543 0-.57143.256-.57143.57143v4.5714c0 .316.256.57143.57143.57143h2.2857c.096571 0 .18286-.029714.26286-.072l1.0474 1.048c.10686.10629.25257.16686.404.16686h3.8657c.65371 0 1.2411-.36286 1.5331-.948l.38286-.76629h2.7897c.316 0 .57143-.25543.57143-.57143v-5.7143c0-.31543-.25543-.57143-.57143-.57143zm-10.857 6.2857h-1.1429v-3.4286h1.1429z" fill="#fff"/></g></svg>