<svg height="18" viewBox="0 0 18 18" width="18" xmlns="http://www.w3.org/2000/svg"><g fill="none"><circle cx="9" cy="9" fill="#fff" opacity=".6" r="9"/><circle cx="9" cy="9" fill="#51ab8c" r="8.25"/><path d="m9 3.375c1.47875 0 2.8169375.57375 3.81775 1.501875-1.585625.6975-2.69325 2.278125-2.69325 4.123125s1.1076875 3.425625 2.69325 4.123125c-1.0008125.928125-2.339 1.501875-3.81775 1.501875s-2.8169375-.57375-3.81775-1.501875c1.585625-.6975 2.69325-2.278125 2.69325-4.123125s-1.1076875-3.425625-2.69325-4.123125c1.0008125-.928125 2.339-1.501875 3.81775-1.501875zm-4.6073125 2.4075c1.3606875.433125 2.355875 1.71 2.355875 3.2175s-.9951875 2.784375-2.355875 3.2175c-.640975-.91125-1.0176875-2.019375-1.0176875-3.2175s.3766875-2.30625 1.0176875-3.2175zm9.2148125 0c.640975.91125 1.0176875 2.019375 1.0176875 3.2175s-.3766875 2.30625-1.0176875 3.2175c-1.3606875-.433125-2.355875-1.71-2.355875-3.2175s.9951875-2.784375 2.355875-3.2175z" fill="#fff"/></g></svg>