<svg height="18" viewBox="0 0 18 18" width="18" xmlns="http://www.w3.org/2000/svg"><path d="m9 2.25c1.7745 0 3.380325.6885 4.5813 1.80225-1.90275.837-3.2319 2.73375-3.2319 4.94775s1.329225 4.11075 3.2319 4.94775c-1.200975 1.11375-2.8068 1.80225-4.5813 1.80225s-3.380325-.6885-4.5813-1.80225c1.90275-.837 3.2319-2.73375 3.2319-4.94775s-1.329225-4.11075-3.2319-4.94775c1.200975-1.11375 2.8068-1.80225 4.5813-1.80225zm-5.528775 2.889c1.632825.51975 2.82705 2.052 2.82705 3.861s-1.194225 3.34125-2.82705 3.861c-.76917-1.0935-1.221225-2.42325-1.221225-3.861s.452025-2.7675 1.221225-3.861zm11.057775 0c.76917 1.0935 1.221225 2.42325 1.221225 3.861s-.452025 2.7675-1.221225 3.861c-1.632825-.51975-2.82705-2.052-2.82705-3.861s1.194225-3.34125 2.82705-3.861z" fill="#51ab8c"/></svg>