<svg height="18" viewBox="0 0 18 18" width="18" xmlns="http://www.w3.org/2000/svg"><g fill="none"><circle cx="9" cy="9" fill="#fff" opacity=".6" r="9"/><circle cx="9" cy="9" fill="#51ab8c" r="8.25"/><path d="m13.7546134 5.9473025c.4692301.72928538.7801657 1.57729163.8706197 2.487485h-2.7475402c.1865613-1.10240812.8988866-2.01825487 1.8769205-2.487485zm-4.1891509-2.57228562c1.3511566.135681 2.5609789.7462455 3.4655189 1.66774562-1.2324358.68405838-2.1143623 1.92780088-2.2952703 3.392025h-1.1702486zm-5.31982588 2.57228562c.97803388.46923013 1.69035913 1.38507688 1.8769205 2.487485h-2.74754025c.090454-.91019337.40138963-1.75819962.87061975-2.487485zm4.18915088-2.57228562v5.05977062h-1.17024863c-.180908-1.46422412-1.0628345-2.70796662-2.29527025-3.392025.89888663-.92150012 2.11436225-1.53206462 3.46551888-1.66774562zm2.3009236 6.19044562c.180908 1.4642241 1.0628345 2.7079666 2.2952703 3.392025-.8988867.9215001-2.1143623 1.5320646-3.4655189 1.6677456v-5.0597706zm3.889522 0c-.090454.9101934-.4013896 1.7581996-.8706197 2.487485-.9780339-.4692301-1.6903592-1.3850769-1.8769205-2.487485zm-6.1904456 0v5.0597706c-1.35115663-.135681-2.56097888-.7462455-3.46551888-1.6677456 1.23243576-.6840584 2.11436225-1.9278009 2.29527025-3.392025zm-2.31223038 0c-.18656137 1.0967548-.90454 2.0182549-1.8769205 2.487485-.46923012-.7292854-.78016575-1.5772916-.87061975-2.487485z" fill="#fff"/></g></svg>