<svg height="18" viewBox="0 0 18 18" width="18" xmlns="http://www.w3.org/2000/svg"><path d="m14.705536 5.336763c.5630762.87514245.9361989 1.89274995 1.0447437 2.984982h-3.2970483c.2238737-1.32288975 1.078664-2.42190585 2.2523046-2.984982zm-5.026981-3.08674275c1.6213879.1628172 3.0731746.8954946 4.1586226 2.00129475-1.4789229.82087005-2.5372347 2.31336105-2.7543243 4.07043h-1.4042983zm-6.38379105 3.08674275c1.17364065.56307615 2.02843095 1.66209225 2.2523046 2.984982h-3.2970483c.1085448-1.09223205.48166755-2.10983955 1.0447437-2.984982zm5.02698105-3.08674275v6.07172475h-1.40429835c-.2170896-1.75706895-1.2754014-3.24955995-2.7543243-4.07043 1.07866395-1.10580015 2.5372347-1.83847755 4.15862265-2.00129475zm2.7611083 7.42853475c.2170896 1.757069 1.2754014 3.24956 2.7543243 4.07043-1.0786639 1.1058002-2.5372347 1.8384776-4.1586226 2.0012948v-6.0717248zm4.6674264 0c-.1085448 1.0922321-.4816675 2.1098396-1.0447437 2.984982-1.1736406-.5630761-2.0284309-1.6620922-2.2523046-2.984982zm-7.4285347 0v6.0717248c-1.62138795-.1628172-3.07317465-.8954946-4.15862265-2.0012948 1.4789229-.82087 2.5372347-2.313361 2.7543243-4.07043zm-2.77467645 0c-.22387365 1.3161057-1.085448 2.4219059-2.2523046 2.984982-.56307615-.8751424-.9361989-1.8927499-1.0447437-2.984982z" fill="#51ab8c"/></svg>