<svg height="18" viewBox="0 0 24 24" width="18" xmlns="http://www.w3.org/2000/svg"><g fill="none"><circle cx="12" cy="12" fill="#fff" opacity=".6" r="12"/><circle cx="12" cy="12" fill="#0797b8" r="11"/><path d="m12.877 13.991 1.1125-1.1123 5.0101 5.0116-1.1102 1.11-5.0124-5.0092zm3.3398-4.457 2.225-2.2246c-3.0729-3.0724-8.0519-3.0802-11.125-.015557 3.0574-1.0112 6.4649-.19446 8.8999 2.2402zm-8.9232-2.2168c-3.0652 3.0724-3.0574 8.0506.015559 11.123l2.225-2.2246c-2.435-2.4346-3.2519-5.8415-2.2405-8.8984zm.015559-.015557-.0077796.0077783c-.29563 2.3413.91021 5.3515 3.3452 7.7939l4.4577-4.457c-2.435-2.4346-5.4535-3.6403-7.7952-3.3447z" fill="#fff"/></g></svg>