<svg height="18" viewBox="0 0 24 24" width="18" xmlns="http://www.w3.org/2000/svg"><circle cx="12" cy="12" fill="#fff" opacity=".6" r="12"/><circle cx="12" cy="12" fill="#AA96BC" r="11"/><path d="m8.7793 3.5527-.42383.42383-.42578.42383 1.7461 1.75c-.30791.35129-.54092.75567-.69922 1.2168-.19425.56584-.17202 1.1453.058594 1.7383l.095703.24414 2.8613-1.0078 2.9023.9707.072266-.27734c.17553-.65417.17628-1.2439-.029297-1.7578-.15692-.39225-.3816-.75007-.66406-1.0762l1.7969-1.8008-.42578-.42383-.42383-.42383-1.8809 1.8848c-.41314-.21581-.87309-.32422-1.3867-.32422-.48309.0000001-.92392.10036-1.3223.29492l-1.8516-1.8555zm3.0527 5.9258s-3.4697 1.1955-4.4687 1.666c-.99908.47052-1.4656 1.0767-1.6582 1.7129-.24708.63952.012657 1.2548.38477 1.627.36513.3651 1.0132.70427 1.7793.53711.76007-.16583 1.4524-.56602 2.1113-1.2285.52525-.52518.94732-1.355 1.2422-2.2012.28737-.82465.46828-1.4059.5332-1.7305l.076172-.38281zm.33594 0 .076172.38281c.06492.32459.24584.90582.5332 1.7305.29486.84615.71694 1.676 1.2422 2.2012.65896.6625 1.3513 1.0627 2.1113 1.2285.76614.16716 1.4142-.17201 1.7793-.53711.37211-.37213.63184-.98743.38477-1.627-.19263-.63623-.65912-1.2424-1.6582-1.7129-.99908-.47052-4.4688-1.666-4.4688-1.666zm-.16797 2.6465c-.20461.67674-.39347 1.1835-.82031 1.7852-.28707.37547-.59242.76378-.96484 1.0625-.14229.11958-.28868.22136-.4375.3125h4.5195c-.16494-.092973-.3145-.19036-.46484-.30859-.33436-.28315-.69887-.69528-.96289-1.0938-.29132-.5025-.62864-1.1279-.86914-1.7578zm-3.9512 4.1602c.19439.39663.41526.75984.65625 1.0898h6.5898c.24102-.32994.46192-.69335.65625-1.0898zm1.5762 2.0898c.53884.45196 1.1388.75512 1.7754.87695v1.7559h.59961.59961v-1.7559c.63593-.12187 1.2345-.425 1.7734-.87695h-4.748z" fill="#fff"/></svg>