<svg height="18" viewBox="0 0 24 24" width="18" xmlns="http://www.w3.org/2000/svg"><circle cx="12" cy="12" fill="#fff" opacity=".6" r="12"/><circle cx="12" cy="12" fill="#AA96BC" r="11"/><path d="m8.1094 4.2692-.93172 3.4792a.39995.39995 59.988 0 0 .28292.48981l2.3503.62909a.40048.40048 150.02 0 0 .49029-.28285l.17307-.64347a.40037.40037 150.03 0 1 .49026-.28274l5.153 1.3808a.39587.39587 149.7 0 0 .48589-.28389l.1662-.64703a.40416.40416 59.702 0 0 -.28686-.49094l-5.1394-1.3769a.40013.40013 59.99 0 1 -.28298-.48992l.17211-.64321a.40026.40026 59.999 0 0 -.28294-.49006l-2.3504-.63059a.39982.39982 150.01 0 0 -.48981.28273zm1.5586 6.9218v.09258a.4.4 135 0 1 -.4.4h-3.7957c-.22091 0-.40013.17995-.36889.39847.1296.90626.68265 2.3106 2.0042 2.5892.21573.04548.57545.04748.79636.04748h2.0789c.22091 0 .40047.17909.39908.4-.01175 1.8714-.1716 2.6553-2.2986 2.7373-.22064.0085-.39974.18634-.39974.40725v1.4539a.4.4 45 0 0 .4.4h2.4559a.4.4 135 0 0 .4-.4.36954.36954 139.94 0 1 .4-.33633h2.3465a.4.4 45 0 1 .4.4.36954.36954 40.058 0 0 .4.33633h2.3016a.4.4 135 0 0 .4-.4v-1.409a.4.4 45 0 0 -.4-.4h-.07109c-.22091 0-.58149.0054-.79726-.04008-1.8741-.39502-1.8741-3.5854-.000017-3.9804.21578-.04548.57637-.04008.79728-.04008h1.8113a.4.4 135 0 0 .4-.4v-1.2977a.55355.55355 54.148 0 0 -.37978-.52557l-2.1408-.70784a2.484 2.484 9.148 0 0 -.77978-.12557h-5.5594a.4.4 135 0 0 -.4.4z" fill="#fff"/></svg>