<svg height="18" viewBox="0 0 18 18" width="18" xmlns="http://www.w3.org/2000/svg"><g fill="none"><circle cx="9" cy="9" fill="#fff" opacity=".6" r="9"/><circle cx="9" cy="9" fill="#747e86" r="8.25"/><path d="m4.55 4.75h5.9c.1656854 0 .3.13431458.3.3v7.9c0 .1656854-.1343146.3-.3.3h-5.9c-.16568542 0-.3-.1343146-.3-.3v-7.9c0-.16568542.13431458-.3.3-.3zm.2 5.6232607h5.5c-.2423109.7837509-.76661176 1.1756264-1.57290244 1.1756264h-2.72808995c-.56021615 0-1.04260671-.3952991-1.15270115-.9445907zm2.4982045-3.91875476.3589162.38847336c.50360233.557123.85073087.99910438 1.0413856 1.32594414.23302246.39947082.50380319 1.00362473.8123422 1.81246174h-2.0573269c.09664789-.66029437.14497184-1.2056974.14497184-1.63620908s-.10009631-1.06073507-.30028894-1.89067016zm-.13860882.78766812-1.661552 2.73921112h1.661552zm5.34040432-2.49047756h1.1c.1104569 0 .2.08954305.2.2v6.3h-1.5v-6.3c0-.11045695.0895431-.2.2-.2zm.6394427 8.3211146.6605573-1.3211146h-1.5l.6605573 1.3211146c.0246989.0493978.0847662.0694202.1341641.0447213.0193527-.0096763.0350449-.0253686.0447213-.0447213z" fill="#fff" fill-rule="evenodd"/></g></svg>