<svg height="18" viewBox="0 0 24 24" width="18" xmlns="http://www.w3.org/2000/svg"><g fill="#747E86" transform="matrix(1.2857 0 0 1.2857 4.1747 3)"><path d="m7.9124 5.4783c-.91974 0-1.7695.29522-2.4664.79313-.32809-.73957-.57704-1.2369-.57704-2.0105v-2.4348c0-1.0068-.8193-1.8261-1.8261-1.8261s-1.8261.8193-1.8261 1.8261v2.4348c0 .71765-.21609 1.2003-.49 1.8115-.34087.76087-.72739 1.6234-.72739 3.0581 0 2.6229 1.3385 4.8696 2.4348 4.8696h1.2174c.60139 0 1.0926-.56548 1.4231-1.0914.75417.67565 1.747 1.0914 2.8377 1.0914 2.3496 0 4.2609-1.9113 4.2609-4.2609s-1.9119-4.2609-4.2609-4.2609zm-5.4783-3.6522c0-.33539.2733-.6087.6087-.6087s.6087.2733.6087.6087v1.8261h-1.2174zm1.1638 10.957h-1.1127c-.32443-.18139-1.2691-1.5564-1.2691-3.6522 0-1.1748.30191-1.8474.62087-2.5602.22887-.51009.46261-1.0323.55574-1.7007h1.3002c.092522.66835.32687 1.1912.55513 1.7007.08887.19783.17652.40478.2593.61843-.53504.71217-.85583 1.5936-.85583 2.5504 0 .79009.21974 1.5272.59591 2.1621-.29096.58009-.55757.82478-.64948.88139zm4.3144 0c-1.6782 0-3.0435-1.3653-3.0435-3.0435s1.3653-3.0435 3.0435-3.0435 3.0435 1.3653 3.0435 3.0435-1.3659 3.0435-3.0435 3.0435z"/><circle cx="7.9124" cy="9.7391" r="1"/><circle cx="9.1298" cy="8.5217" r="1"/><circle cx="6.695" cy="8.5217" r="1"/></g></svg>