<svg height="12" viewBox="0 0 16 16" width="12" xmlns="http://www.w3.org/2000/svg"><g fill-rule="evenodd"><circle cx="8" cy="8" fill="#fff" opacity=".6" r="8"/><circle cx="8" cy="8" fill="#AA96BC" r="7"/><path d="m5.1625 4-.1625.8h-.075c-.52 0-.925.405-.925.925v1.475.4.525c0 .16.115.275.275.275h1.05c.16 0 .275-.115.275-.275v-.525h4.8v.525c0 .16.115.275.275.275h1.05c.16 0 .275-.115.275-.275v-.525-.4-1.475c0-.52-.405-.925-.925-.925h-.075l-.1625-.8zm-.0875 1.6h.6875c.12 0 .2375.115.2375.275v.25c0 .16-.115.275-.275.275h-.65c-.16 0-.275-.115-.275-.275v-.25c0-.16.115-.275.275-.275zm5.2 0h.6875c.12 0 .2375.115.2375.275v.25c0 .16-.115.275-.275.275h-.6875c-.12 0-.2375-.115-.2375-.275v-.25c0-.16.115-.275.275-.275zm-6.275 3.4v1h1v1h1v-1h4.0012v1h.99882v-1h1v-1h-8z" fill="#fff" fill-rule="nonzero"/></g></svg>