<svg height="18" viewBox="0 0 24 24" width="18" xmlns="http://www.w3.org/2000/svg"><g fill="none"><circle cx="12" cy="12" fill="#fff" opacity=".6" r="12"/><circle cx="12" cy="12" fill="#AA96BC" r="11"/><path d="m14.944 7.501c.53023 0 .95825-.42802.95825-.95825 0-.42163-.42163-1.0477-.7091-1.4182-.12777-.1661-.37691-.1661-.50468 0-.28109.37052-.70272.99658-.70272 1.4182 0 .53023.42802.95825.95825.95825zm-3.1942 0c.53023 0 .95825-.42802.95825-.95825 0-.42163-.42163-1.0477-.7091-1.4182-.12777-.1661-.37691-.1661-.50468 0-.28109.37052-.70272.99658-.70272 1.4182 0 .53023.42802.95825.95825.95825zm-3.1942 0c.53023 0 .95825-.42802.95825-.95825 0-.42163-.42163-1.0477-.7091-1.4182-.12777-.1661-.37691-.1661-.50468 0-.28109.37052-.70272.99658-.70272 1.4182 0 .53023.42802.95825.95825.95825zm7.6149 1.9229c-.12777-.37691-.48551-.64522-.90714-.64522h-7.0272c-.42163 0-.77299.26831-.90714.64522l-1.2585 3.6222c-.044718.13415-.070272.2747-.070272.42163v4.574c0 .53023.42802.95825.95825.95825s.95825-.42802.95825-.95825v-.31942h7.666v.31942c0 .52384.42802.95825.95825.95825.52384 0 .95825-.42802.95825-.95825v-4.574c0-.14054-.025553-.28747-.070272-.42163l-1.2585-3.6222zm-7.9343 6.3819c-.53023 0-.95825-.42802-.95825-.95825s.42802-.95825.95825-.95825.95825.42802.95825.95825-.42802.95825-.95825.95825zm7.0272 0c-.53023 0-.95825-.42802-.95825-.95825s.42802-.95825.95825-.95825.95825.42802.95825.95825-.42802.95825-.95825.95825zm-7.9854-3.1942.81132-2.4403c.089436-.25553.33219-.43441.60689-.43441h6.1072c.2747 0 .51745.17887.60689.43441l.81132 2.4403h-8.9436z" fill="#fff"/></g></svg>