<svg height="18" viewBox="0 0 24 24" width="18" xmlns="http://www.w3.org/2000/svg"><g fill="none"><circle cx="12" cy="12" fill="#fff" opacity=".6" r="12" stroke-width="1.5"/><circle cx="12" cy="12" fill="#AA96BC" r="10.99995" stroke-width="1.5"/><g fill="#fff" transform="matrix(1.5 0 0 1.5 6 4.99995)"><path d="m1.4737 5.8947v-.49123h4.9123v.49123c0 .27018.22105.49123.49123.49123s.49123-.22105.49123-.49123v-3.0996s-.65825-1.9796-.76632-2.3039c-.024561-.078596-.058947-.14246-.093333-.19649-.00982-.009825-.014737-.019649-.024561-.034386-.18667-.25544-.45193-.26035-.45193-.26035h-4.2049s-.26526.0049123-.45193.26526c-.00982.009825-.014737.019649-.024561.029474-.034386.054035-.068772.11789-.093333.19649-.10807.32421-.76632 2.3039-.76632 2.3039v3.0996c0 .27018.22105.49123.49123.49123s.49123-.22105.49123-.49123zm.98246-1.7193c-.27018 0-.49123-.22105-.49123-.49123s.22105-.49123.49123-.49123.49123.22105.49123.49123-.22105.49123-.49123.49123zm2.9474 0c-.27018 0-.49123-.22105-.49123-.49123s.22105-.49123.49123-.49123.49123.22105.49123.49123-.22105.49123-.49123.49123zm-3.2765-3.193h3.6056l.11298.33895.21123.64351h-4.254z"/><path d="m0 7.3733c0 .26526.22105.48632.48632.48632h2.9523v.98737c0 .27018.22105.48632.48632.48632h.00491c.27018 0 .48632-.22105.48632-.48632v-.98737h2.9523c.27018 0 .48632-.22105.48632-.48632 0-.27018-.22105-.48632-.48632-.48632h-6.8821c-.26526-.0049122-.48632.21614-.48632.48632z"/></g></g></svg>