<svg height="18" viewBox="0 0 24 24" width="18" xmlns="http://www.w3.org/2000/svg"><g fill="none"><circle cx="12" cy="12" fill="#fff" opacity=".6" r="12"/><circle cx="12" cy="12" fill="#BE75A3" r="11"/><path d="m9.9298 8.8554c.83557 0 1.549-.53991 1.819-1.2855h3.323v.64275c0 .35351.28924.64275.64275.64275s.64275-.28924.64275-.64275v-.64275c.35351 0 .64275-.28924.64275-.64275s-.28924-.64275-.64275-.64275h-4.6085c-.30852-.86771-1.2084-1.4398-2.2046-1.2469-.75201.14783-1.3626.76487-1.5105 1.5169-.22496 1.2212.70702 2.301 1.8961 2.301zm0-2.571c.35351 0 .64275.28924.64275.64275s-.28924.64275-.64275.64275-.64275-.28924-.64275-.64275.28924-.64275.64275-.64275zm5.3926 3.8565h-5.6433c-.27638 0-.52062.17997-.61061.43707l-1.067 3.2202v4.0557c0 .35351.28924.64275.64275.64275s.64275-.28924.64275-.64275v-.64275h6.4275v.64275c0 .35351.28924.64275.64275.64275s.64275-.28924.64275-.64275v-4.0557l-1.067-3.2202c-.089984-.2571-.33423-.43707-.61061-.43707zm-4.7499 5.4633c-.35351 0-.64275-.28924-.64275-.64275s.28924-.64275.64275-.64275.64275.28924.64275.64275-.28924.64275-.64275.64275zm3.8565 0c-.35351 0-.64275-.28924-.64275-.64275s.28924-.64275.64275-.64275.64275.28924.64275.64275-.28924.64275-.64275.64275zm-4.7113-2.8924.42421-1.2855h4.7178l.42421 1.2855h-5.5662z" fill="#fff"/></g></svg>