<svg height="18" viewBox="0 0 24 24" width="18" xmlns="http://www.w3.org/2000/svg"><g fill="none"><circle cx="12" cy="12" fill="#fff" opacity=".6" r="12"/><circle cx="12" cy="12" fill="#EB785D" r="11"/><path d="m16.667 6h-9.3333c-.73333 0-1.3333.6-1.3333 1.3333v9.3333c0 .73333.6 1.3333 1.3333 1.3333h9.3333c.73333 0 1.3333-.6 1.3333-1.3333v-9.3333c0-.73333-.6-1.3333-1.3333-1.3333zm-7.6667 10c-.55333 0-1-.44667-1-1s.44667-1 1-1 1 .44667 1 1-.44667 1-1 1zm0-6c-.55333 0-1-.44667-1-1s.44667-1 1-1 1 .44667 1 1-.44667 1-1 1zm3 3c-.55333 0-1-.44667-1-1s.44667-1 1-1 1 .44667 1 1-.44667 1-1 1zm3 3c-.55333 0-1-.44667-1-1s.44667-1 1-1 1 .44667 1 1-.44667 1-1 1zm0-6c-.55333 0-1-.44667-1-1s.44667-1 1-1 1 .44667 1 1-.44667 1-1 1z" fill="#fff"/></g></svg>