<?xml version="1.0" encoding="UTF-8"?>
<svg width="12px" height="12px" viewBox="0 0 12 12" version="1.1" xmlns="http://www.w3.org/2000/svg" xmlns:xlink="http://www.w3.org/1999/xlink">
    <title>castle-s</title>
    <g id="castle-s" stroke="none" fill="none" fill-rule="nonzero">
        <circle id="Oval" fill="#FFFFFF" opacity="0.6" cx="6" cy="6" r="6"></circle>
        <circle id="Oval" fill="#9C6136" cx="6" cy="6" r="5.25"></circle>
        <path d="M7.61524321,4.84609462 L4.38455013,4.84609462 C4.12964927,4.84609462 3.92302731,4.63946932 3.92302731,4.3845718 L3.92302731,3.23076474 C3.92302731,3.10333765 4.02636496,3 4.15379205,3 C4.28121915,3 4.3845568,3.10333765 4.3845568,3.23076474 L4.3845568,3.92304897 L4.84607962,3.92304897 L4.84607962,3.46152615 C4.84607962,3.20662529 5.05270491,3 5.30760244,3 C5.56249997,3 5.76912526,3.20662863 5.76912526,3.46152615 L5.76912526,3.92304897 L6.23064808,3.92304897 L6.23064808,3.46152615 C6.23064808,3.20662529 6.43727337,3 6.6921709,3 C6.94707176,3 7.15369372,3.20662863 7.15369372,3.46152615 L7.15369372,3.92304897 L7.61521654,3.92304897 L7.61521654,3.23076474 C7.61521654,3.10333765 7.71855419,3 7.84598129,3 C7.97340838,3 8.07674603,3.10333765 8.07674603,3.23076474 L8.07674603,4.3845718 C8.07674603,4.63947266 7.87012074,4.84609462 7.61522321,4.84609462 L7.61524321,4.84609462 Z M8.76905026,9 L3.23084308,9 C3.10341598,9 3.00007833,8.89666235 3.00007833,8.76923526 C3.00007833,8.64180816 3.10341598,8.53847051 3.23084308,8.53847051 L3.46160782,8.53847051 C3.71650868,8.53847051 3.92313064,8.33184522 3.92313064,8.07694769 C3.92313064,8.07694769 4.38465346,6.23082308 4.38465346,5.76930025 C4.38465346,5.51439939 4.59127875,5.30777743 4.84617628,5.30777743 L7.15382372,5.30777743 C7.40872458,5.30777743 7.61534654,5.51440273 7.61534654,5.76930025 C7.61534654,6.23082308 8.07686936,8.07694769 8.07686936,8.07694769 C8.07686936,8.33184855 8.28349465,8.53847051 8.53839218,8.53847051 L8.76915692,8.53847051 C8.89483073,8.53842451 8.99742839,8.63899156 8.99992167,8.76461869 C8.99992167,8.89666235 8.89658402,9 8.76915692,9 L8.76905026,9 Z M6.69216423,7.38463679 C6.69216423,7.00231217 6.38220129,6.69235256 5.99988,6.69235256 C5.61755871,6.69235256 5.30759577,7.0023155 5.30759577,7.38463679 L5.30759577,8.53844385 L6.69216423,8.53844385 L6.69216423,6.92308064 L6.69216423,7.38463679 Z" id="Shape" fill="#FFFFFF"></path>
    </g>
</svg>