<?xml version="1.0" encoding="UTF-8"?>
<svg width="18px" height="18px" viewBox="0 0 18 18" version="1.1" xmlns="http://www.w3.org/2000/svg" xmlns:xlink="http://www.w3.org/1999/xlink">
    <title>castle-m</title>
    <g id="castle-m" stroke="none" fill="none" fill-rule="nonzero">
        <circle id="Oval" fill="#FFFFFF" opacity="0.6" cx="9" cy="9" r="9"></circle>
        <circle id="Oval" fill="#9C6136" cx="9" cy="9" r="8.25"></circle>
        <path d="M11.4229281,7.01921423 L6.57676192,7.01921423 C6.19440065,7.01921423 5.88445961,6.7092682 5.88445961,6.32691192 L5.88445961,4.59615615 C5.88445961,4.40501052 6.03947013,4.25 6.23061577,4.25 C6.42176141,4.25 6.57677192,4.40501052 6.57677192,4.59615615 L6.57677192,5.63460962 L7.26907423,5.63460962 L7.26907423,4.94230731 C7.26907423,4.55994603 7.57902026,4.25 7.96137654,4.25 C8.34373281,4.25 8.65367885,4.55995103 8.65367885,4.94230731 L8.65367885,5.63460962 L9.34598115,5.63460962 L9.34598115,4.94230731 C9.34598115,4.55994603 9.65592719,4.25 10.0382835,4.25 C10.4206447,4.25 10.7305858,4.55995103 10.7305858,4.94230731 L10.7305858,5.63460962 L11.4228881,5.63460962 L11.4228881,4.59615615 C11.4228881,4.40501052 11.5778986,4.25 11.7690442,4.25 C11.9601899,4.25 12.1152004,4.40501052 12.1152004,4.59615615 L12.1152004,6.32691192 C12.1152004,6.7092732 11.8052544,7.01921423 11.4228981,7.01921423 L11.4229281,7.01921423 Z M13.1536838,13.250235 L4.84615615,13.250235 C4.65501052,13.250235 4.5,13.0952245 4.5,12.9040788 C4.5,12.7129332 4.65501052,12.5579227 4.84615615,12.5579227 L5.19231231,12.5579227 C5.57467358,12.5579227 5.88461462,12.2479767 5.88461462,11.8656204 C5.88461462,11.8656204 6.57691692,9.09636115 6.57691692,8.40405885 C6.57691692,8.02169757 6.88686296,7.71175654 7.26921923,7.71175654 L10.7307808,7.71175654 C11.113142,7.71175654 11.4230831,8.02170257 11.4230831,8.40405885 C11.4230831,9.09636115 12.1153854,11.8656204 12.1153854,11.8656204 C12.1153854,12.2479817 12.4253314,12.5579227 12.8076877,12.5579227 L13.1538438,12.5579227 C13.3423595,12.5578537 13.49626,12.7087082 13.5,12.8971538 C13.5,13.0952245 13.3449895,13.250235 13.1538438,13.250235 L13.1536838,13.250235 Z M10.0382735,10.8271269 C10.0382735,10.253625 9.57331691,9.78867346 8.99982,9.78867346 C8.42632309,9.78867346 7.96136654,10.25363 7.96136654,10.8271269 L7.96136654,12.5578827 L10.0382735,12.5578827 L10.0382735,10.1347746 L10.0382735,10.8271269 Z" id="Shape" fill="#FFFFFF"></path>
    </g>
</svg>