<svg height="18" viewBox="0 0 18 18" width="18" xmlns="http://www.w3.org/2000/svg"><path d="m3.85038523 3.00000538c-.31869573-.0009545-.62461528.12522209-.84996822.35057503-.22535293.22535293-.35152952.53127248-.35057503.84996821v9.59890278c-.00095449.3186957.1252221.6246153.35057503.8499682.22535294.2253529.53127249.3515295.84996822.350575h4.79945675c.31853461.0007145.62422228-.125568.84938017-.3508948.22515788-.2253268.35121114-.5311091.35025231-.8496484v-2.3992757h.60026894c.3383824 0 .6002689.2609864.6002689.5993689v1.2005378c0 .9863489.8126579 1.7999122 1.7999067 1.7999122.9863489 0 1.7999068-.8135633 1.7999068-1.7999122v-4.20007702c-.000212-.03379448-.0032222-.06750797-.0089995-.10080016.5120734-.17999067.9197523-.58766956 1.1033428-1.09884308h.1052945c.31854.00071996.6242277-.12556257.8493856-.35088937.2251579-.22532679.3512111-.53110908.3502577-.84964844h-1.1996433v-2.39927571c.0085169-.21983635-.1039086-.42671845-.2929997-.53916908-.189091-.11245063-.4245474-.11245063-.6136384 0s-.3015166.31933273-.2929997.53916908v2.39927571h-1.2005378v-2.39927571c.0085169-.21983635-.1039087-.42671845-.2929997-.53916908s-.4245474-.11245063-.6136385 0c-.189091.11245063-.3015166.31933273-.2929997.53916908v2.39927571h-1.1996378c-.0009589.31853936.1250944.62432165.3502523.84964844.2251579.2253268.5308455.35160933.8493855.35088937h.1052946c.1847635.51328337.5900599.91659781 1.1042428 1.09884308-.0057693.03329326-.0087793.06700608-.0089996.10080016v4.20007702c0 .3383825-.2618864.599369-.6002689.599369-.1597823.0024475-.3137516-.0598843-.4268328-.1727959-.1130811-.1129117-.1756439-.2667873-.1734361-.4265731v-1.2005378c0-.9863489-.8126579-1.7999067-1.7999067-1.7999067h-.60026894v-5.99908928c.00095883-.31853935-.12509443-.62432164-.35025231-.84964844-.22515789-.22532679-.53084556-.35160932-.84938017-.3508948zm.59936895 1.20054324h3.59981352c.33298275 0 .60026891.26728616.60026891.59936895v3.00044457h-4.79945138v-3.00044457c0-.33208279.26728615-.59936895.59936895-.59936895zm3.16873585 4.4997669c.06838564.00122217.1341039.02674382.1853904.07199627.0926952.09359516.09359515.23398788.00179991.32848299l-1.4363256 1.66131392 1.07994406 1.0853438c.04521547.0436508.06897825.1049573.0649932.1676785s-.03531576.1205273-.08569213.1581046l-2.35787786 1.8656034c-.11171816.08556-.26822272.0806693-.3743806-.0116994-.04461171-.0428224-.07005363-.1018365-.07056963-.1636726-.00050048-.0618362.02396797-.1212605.06786977-.1648104l1.43722554-1.6586141-1.08084401-1.0880436c-.04521547-.0436508-.06897825-.1049573-.0649932-.1676785.00398505-.0627213.03531576-.1205274.08569213-.1581046l2.35787786-1.8656034c.05421755-.04184026.12146681-.06319428.18989016-.06029688z" fill="#747e86"/></svg>