<?xml version="1.0" encoding="UTF-8"?>
<svg width="12px" height="12px" viewBox="0 0 12 12" version="1.1" xmlns="http://www.w3.org/2000/svg" xmlns:xlink="http://www.w3.org/1999/xlink">
    <title>car-charger-s</title>
    <g id="car-charger-s" stroke="none" fill="none" fill-rule="nonzero">
        <path d="M3.50053103,2.50000004 C3.31462519,2.49944325 3.13617212,2.57304626 3.00471624,2.70450214 C2.87326036,2.83595802 2.79965735,3.01441108 2.80021414,3.20031693 L2.80021414,8.79967687 C2.79965735,8.98558271 2.87326036,9.16403578 3.00471624,9.29549166 C3.13617212,9.42694754 3.31462519,9.50055055 3.50053103,9.50000004 L6.30021414,9.50000004 C6.48602599,9.50041057 6.6643438,9.42674576 6.7956859,9.29530512 C6.927028,9.16386449 7.00055907,8.98549149 6.99999975,8.79967687 L6.99999975,7.40009937 L7.35015661,7.40009937 C7.54754639,7.40009937 7.70031347,7.55234148 7.70031347,7.74973126 L7.70031347,8.45004498 C7.70031347,9.02541518 8.17436391,9.50000004 8.75025908,9.50000004 C9.32562928,9.50000004 9.80021414,9.02541518 9.80021414,8.45004498 L9.80021414,6.00000004 C9.80008102,5.98028659 9.79832511,5.96062039 9.79495496,5.94119994 C10.0936645,5.83620538 10.3314772,5.5983927 10.4385716,5.30020815 L10.4999934,5.30020815 C10.6858084,5.30062812 10.8641262,5.22696331 10.9954683,5.09552268 C11.1268104,4.96408205 11.2003415,4.78570905 11.1997854,4.59989443 L10.4999934,4.59989443 L10.4999934,3.20031693 C10.5049616,3.07207906 10.43938,2.95139783 10.3290769,2.88580163 C10.2187738,2.82020543 10.0814243,2.82020543 9.97112119,2.88580163 C9.86081809,2.95139783 9.79523651,3.07207906 9.80021414,3.20031693 L9.80021414,4.59989443 L9.09989097,4.59989443 L9.09989097,3.20031693 C9.10485915,3.07207906 9.03927757,2.95139783 8.92897447,2.88580163 C8.81867138,2.82020543 8.68132181,2.82020543 8.57101872,2.88580163 C8.46071562,2.95139783 8.39513404,3.07207906 8.40010222,3.20031693 L8.40010222,4.59989443 L7.70031347,4.59989443 C7.69975415,4.78570905 7.77328522,4.96408205 7.90462732,5.09552268 C8.03596942,5.22696331 8.21428723,5.30062812 8.40010222,5.30020815 L8.46152404,5.30020815 C8.56930279,5.59962345 8.80572565,5.8348902 9.10566567,5.94119994 C9.10230029,5.96062101 9.10054441,5.98028682 9.10041594,6.00000004 L9.10041594,8.45004498 C9.10041594,8.64743476 8.94764886,8.79967687 8.75025908,8.79967687 C8.65705272,8.8011046 8.5672373,8.76474437 8.50127329,8.69887926 C8.43530928,8.63301414 8.39881434,8.54325338 8.40010222,8.45004498 L8.40010222,7.74973126 C8.40010222,7.17436106 7.92605178,6.69978565 7.35015661,6.69978565 L6.99999975,6.69978565 L6.99999975,3.20031693 C7.00055907,3.01450231 6.927028,2.8361293 6.7956859,2.70468867 C6.6643438,2.57324804 6.48602599,2.49958323 6.30021414,2.50000004 L3.50053103,2.50000004 Z M3.85016292,3.20031693 L5.95005414,3.20031693 C6.14429408,3.20031693 6.300211,3.35623385 6.300211,3.54994882 L6.300211,5.30020815 L3.50053103,5.30020815 L3.50053103,3.54994882 C3.50053103,3.35623385 3.65644795,3.20031693 3.85016292,3.20031693 Z M5.69859217,5.82518095 C5.73848379,5.82589388 5.77681944,5.84078151 5.80673656,5.86717878 C5.86080876,5.92177595 5.86133373,6.00367171 5.80778651,6.05879385 L4.96992991,7.02789365 L5.59989728,7.66101085 C5.62627297,7.68647382 5.64013459,7.72223596 5.63780998,7.75882333 C5.63548537,7.7954107 5.61720912,7.82913093 5.5878229,7.85105101 L4.21239415,8.93931963 C4.14722523,8.98922968 4.0559309,8.98637673 3.99400547,8.93249499 C3.96798197,8.90751525 3.95314085,8.87309035 3.95283985,8.83701929 C3.9525479,8.80094823 3.96682117,8.76628403 3.99243055,8.74087991 L4.83081212,7.77335503 L4.20031978,7.13866291 C4.17394409,7.11319995 4.16008247,7.07743781 4.16240708,7.04085044 C4.16473169,7.00426307 4.18300794,6.97054283 4.21239415,6.94862276 L5.5878229,5.86035413 C5.61944981,5.83594732 5.65867854,5.8234908 5.69859217,5.82518095 L5.69859217,5.82518095 Z" id="Shape" fill="#747E86"></path>
    </g>
</svg>