<?xml version="1.0" encoding="UTF-8"?>
<svg width="18px" height="18px" viewBox="0 0 18 18" version="1.1" xmlns="http://www.w3.org/2000/svg" xmlns:xlink="http://www.w3.org/1999/xlink">
    <title>car-charging-station-m</title>
    <g id="car-charging-station-m" stroke="none" fill="none" fill-rule="nonzero">
        <circle id="Oval" fill="#FFFFFF" opacity="0.6" cx="9" cy="9" r="9"></circle>
        <circle id="Oval" fill="#747E86" cx="9" cy="9" r="8.25"></circle>
        <path d="M5.50068347,4.50000005 C5.26166167,4.49928417 5.03222201,4.59391662 4.8632073,4.76293132 C4.6941926,4.93194602 4.59956016,5.16138568 4.60027603,5.40040748 L4.60027603,12.5995845 C4.59956016,12.8386063 4.6941926,13.068046 4.8632073,13.2370607 C5.03222201,13.4060754 5.26166167,13.5007079 5.50068347,13.5 L9.10027603,13.5 C9.33917699,13.5005279 9.56844274,13.405816 9.73731116,13.2368209 C9.90617957,13.0678258 10.0007195,12.8384891 10.0000004,12.5995845 L10.0000004,10.8001278 L10.4502021,10.8001278 C10.7039889,10.8001278 10.9004037,10.9958676 10.9004037,11.2496545 L10.9004037,12.1500578 C10.9004037,12.8898195 11.5098972,13.5 12.2503338,13.5 C12.9900955,13.5 13.6002639,12.8898195 13.6002639,12.1500578 L13.6002639,9.00000005 C13.6001049,8.97465419 13.5978473,8.94936907 13.5935142,8.92439993 C13.9775693,8.78940692 14.2833285,8.48364776 14.4210214,8.10026762 L14.4999923,8.10026762 C14.7388973,8.10080759 14.968163,8.00609569 15.1370314,7.83710059 C15.3058999,7.6681055 15.4004398,7.43876878 15.3997247,7.19986426 L14.4999923,7.19986426 L14.4999923,5.40040748 C14.5063799,5.23553022 14.4220608,5.08036864 14.2802425,4.99603067 C14.1384242,4.9116927 13.9618319,4.9116927 13.8200137,4.99603067 C13.6781954,5.08036864 13.5938762,5.23553022 13.6002639,5.40040748 L13.6002639,7.19986426 L12.6998605,7.19986426 L12.6998605,5.40040748 C12.7062482,5.23553022 12.621929,5.08036864 12.4801107,4.99603067 C12.3382925,4.9116927 12.1617002,4.9116927 12.0198819,4.99603067 C11.8780637,5.08036864 11.7937445,5.23553022 11.8001321,5.40040748 L11.8001321,7.19986426 L10.9004037,7.19986426 C10.8996846,7.43876878 10.9942246,7.6681055 11.163093,7.83710059 C11.3319614,8.00609569 11.5612272,8.10080759 11.8001321,8.10026762 L11.879103,8.10026762 C12.0176757,8.48523015 12.321648,8.78771597 12.7072851,8.92439993 C12.7029582,8.94936987 12.7007007,8.97465448 12.7005355,9.00000005 L12.7005355,12.1500578 C12.7005355,12.4038447 12.5041207,12.5995845 12.2503338,12.5995845 C12.1304971,12.6014202 12.0150201,12.5546713 11.9302092,12.4699876 C11.8453984,12.3853039 11.7984763,12.2698972 11.8001321,12.1500578 L11.8001321,11.2496545 C11.8001321,10.5098928 11.1906387,9.8997244 10.4502021,9.8997244 L10.0000004,9.8997244 L10.0000004,5.40040748 C10.0007195,5.16150297 9.90617957,4.93216625 9.73731116,4.76317115 C9.56844274,4.59417605 9.33917699,4.49946416 9.10027603,4.50000005 L5.50068347,4.50000005 Z M5.95021018,5.40040748 L8.65007032,5.40040748 C8.89980738,5.40040748 9.100272,5.6008721 9.100272,5.84993419 L9.100272,8.10026762 L5.50068347,8.10026762 L5.50068347,5.84993419 C5.50068347,5.6008721 5.70114808,5.40040748 5.95021018,5.40040748 Z M8.32676207,8.77523266 C8.3780513,8.77614928 8.42733999,8.79529052 8.46580487,8.82922986 C8.53532627,8.89942622 8.53600123,9.00472077 8.4671548,9.0755921 L7.3899106,10.3215776 L8.19986864,11.1355854 C8.23378025,11.1683235 8.25160233,11.2143034 8.24861354,11.2613443 C8.24562476,11.3083852 8.22212673,11.3517398 8.18434445,11.3799227 L6.41593605,12.7791252 C6.33214744,12.8432953 6.21476901,12.8396272 6.1351506,12.7703507 C6.10169182,12.7382339 6.08261038,12.6939733 6.08222338,12.6475962 C6.08184802,12.6012191 6.10019936,12.5566509 6.13312571,12.5239885 L7.21104487,11.2800279 L6.40041186,10.4639952 C6.36650026,10.4312571 6.34867817,10.3852772 6.35166696,10.3382363 C6.35465574,10.2911954 6.37815378,10.2478408 6.41593605,10.2196578 L8.18434445,8.82045531 C8.22500761,8.78907512 8.27544455,8.7730596 8.32676207,8.77523266 L8.32676207,8.77523266 Z" id="Shape" fill="#FFFFFF"></path>
    </g>
</svg>