<?xml version="1.0" encoding="UTF-8"?>
<svg width="12px" height="12px" viewBox="0 0 12 12" version="1.1" xmlns="http://www.w3.org/2000/svg" xmlns:xlink="http://www.w3.org/1999/xlink">
    <title>car-charging-station-s</title>
    <g id="car-charging-station-s" stroke="none" fill="none" fill-rule="nonzero">
        <circle id="Oval" fill="#FFFFFF" opacity="0.6" cx="6" cy="6" r="6"></circle>
        <circle id="Oval" fill="#747E86" cx="6" cy="6" r="5.25"></circle>
        <path d="M3.60027378,3.00000535 C3.44092605,2.9995281 3.28796642,3.06261634 3.17529005,3.17529271 C3.06261368,3.28796907 2.99952544,3.44092871 3.00000269,3.60027644 L3.00000269,8.39972356 C2.99952544,8.55907129 3.06261368,8.71203093 3.17529005,8.82470729 C3.28796642,8.93738366 3.44092605,9.0004719 3.60027378,8.99999465 L6.00000269,8.99999465 C6.15926719,9.00035191 6.31211089,8.9372107 6.42468974,8.82454741 C6.53726858,8.71188411 6.60029515,8.5589931 6.59981574,8.39972356 L6.59981574,7.20008677 L6.89994992,7.20008677 C7.06914101,7.20008677 7.20008411,7.33057989 7.20008411,7.49977098 L7.20008411,8.10003935 C7.20008411,8.59321337 7.6064127,8.99999465 8.10003669,8.99999465 C8.59321071,8.99999465 8.99998928,8.59321337 8.99998928,8.10003935 L8.99998928,6.00000535 C8.99988327,5.98310547 8.9983782,5.96624873 8.99548951,5.94960266 C9.25152602,5.8596074 9.45536528,5.65576814 9.54716045,5.4001816 L9.59980767,5.4001816 C9.75907752,5.40054158 9.91192123,5.33740037 10.0245001,5.22473707 C10.1370789,5.11207378 10.2001055,4.95918277 10.1996288,4.79991323 L9.59980767,4.79991323 L9.59980767,3.60027644 C9.60406611,3.49035836 9.54785337,3.3869174 9.45330795,3.33069214 C9.35876252,3.27446687 9.24103443,3.27446687 9.146489,3.33069214 C9.05194358,3.3869174 8.99573084,3.49035836 8.99998928,3.60027644 L8.99998928,4.79991323 L8.3997209,4.79991323 L8.3997209,3.60027644 C8.40397934,3.49035836 8.3477666,3.3869174 8.25322118,3.33069214 C8.15867575,3.27446687 8.04094766,3.27446687 7.94640223,3.33069214 C7.85185681,3.3869174 7.79564407,3.49035836 7.79990251,3.60027644 L7.79990251,4.79991323 L7.20008411,4.79991323 C7.1996047,4.95918277 7.26263127,5.11207378 7.37521011,5.22473707 C7.48778896,5.33740037 7.64063266,5.40054158 7.79990251,5.4001816 L7.85254973,5.4001816 C7.94493144,5.65682306 8.14757942,5.8584801 8.40467064,5.94960266 C8.40178603,5.96624927 8.400281,5.98310566 8.40017088,6.00000535 L8.40017088,8.10003935 C8.40017088,8.26923044 8.26922778,8.39972356 8.10003669,8.39972356 C8.0201456,8.40094733 7.94316102,8.36978145 7.88662049,8.31332569 C7.83007996,8.25686992 7.79879861,8.17993219 7.79990251,8.10003935 L7.79990251,7.49977098 C7.79990251,7.00659696 7.39357392,6.5998184 6.89994992,6.5998184 L6.59981574,6.5998184 L6.59981574,3.60027644 C6.60029515,3.4410069 6.53726858,3.28811589 6.42468974,3.17545259 C6.31211089,3.0627893 6.15926719,2.99964809 6.00000269,3.00000535 L3.60027378,3.00000535 Z M3.89995799,3.60027644 L5.69986316,3.60027644 C5.86635438,3.60027644 5.99999734,3.7339194 5.99999734,3.89996065 L5.99999734,5.4001816 L3.60027378,5.4001816 L3.60027378,3.89996065 C3.60027378,3.7339194 3.73391674,3.60027644 3.89995799,3.60027644 Z M5.48432451,5.85015789 C5.5185173,5.85076898 5.5513764,5.86352979 5.57701963,5.886156 C5.62336719,5.93295353 5.62381716,6.00314983 5.57791958,6.05039734 L4.85975742,6.88105358 L5.39972897,7.42372499 C5.42233669,7.44555036 5.43421806,7.4762036 5.43222554,7.50756418 C5.43023302,7.53892475 5.41456768,7.56782778 5.38937951,7.5866164 L4.21044163,8.51941726 C4.1545826,8.56219725 4.07633039,8.55975187 4.02325149,8.51356756 C4.00094566,8.49215638 3.98822471,8.46264935 3.98796671,8.43173132 C3.98771647,8.4008133 3.99995069,8.37110116 4.02190156,8.34932622 L4.7405137,7.52001991 L4.20009218,6.97599858 C4.17748446,6.9541732 4.16560308,6.92351996 4.1675956,6.89215939 C4.16958813,6.86079881 4.18525347,6.83189578 4.21044163,6.81310716 L5.38937951,5.88030631 C5.41648827,5.8593862 5.45011287,5.84870919 5.48432451,5.85015789 L5.48432451,5.85015789 Z" id="Shape" fill="#FFFFFF"></path>
    </g>
</svg>