<svg height="18" viewBox="0 0 24 24" width="18" xmlns="http://www.w3.org/2000/svg"><g fill="none"><circle cx="12" cy="12" fill="#fff" opacity=".6" r="12"/><circle cx="12" cy="12" fill="#EB785D" r="11"/><path d="m16.333 6.6667v.66667h-1.3333v-.66667c0-.36667-.3-.66667-.66667-.66667h-4c-.36667 0-.66667.3-.66667.66667v.66667h-1.3333v-.66667c0-.36667-.3-.66667-.66667-.66667s-.66667.3-.66667.66667v10.667c0 .36667.3.66667.66667.66667s.66667-.3.66667-.66667v-.66667h1.3333v.66667c0 .36667.3.66667.66667.66667h4c.36667 0 .66667-.3.66667-.66667v-.66667h1.3333v.66667c0 .36667.3.66667.66667.66667s.66667-.3.66667-.66667v-10.667c0-.36667-.3-.66667-.66667-.66667s-.66667.3-.66667.66667zm-6.6667 8.6667h-1.3333v-1.3333h1.3333zm0-2.6667h-1.3333v-1.3333h1.3333zm0-2.6667h-1.3333v-1.3333h1.3333zm6.6667 5.3333h-1.3333v-1.3333h1.3333zm0-2.6667h-1.3333v-1.3333h1.3333zm0-2.6667h-1.3333v-1.3333h1.3333z" fill="#fff"/></g></svg>