<svg height="18" viewBox="0 0 18 18" width="18" xmlns="http://www.w3.org/2000/svg"><path d="m6.40138743 2.66891096c.181485 0 .34150154.09089979.4379959.22944544h8.12133277c.4376813 0 .7897622.35180262.7897622.79007679l-.0102841 12.16433461c-.0006171.393278-.2147452.5097309-.4786002.2600196-.2635162-.2497476-.5844664-.7527393-.7171077-1.1233317l-.9094818-2.5464765c-.1100041-.0200299-.2179369-.0591266-.3182763-.1223693l-3.96508431-2.5113894-3.50532228 1.1427143-.05912055.013258c-.1682245.8241839-.14383292 2.0699212 1.05655727 3.0991589.07499323.0641005.08351335.1764639.01940922.2511873-.03499878.041185-.08501484.0620679-.13500065.0620679-.04118862 0-.08237604-.0140832-.11590479-.0429394-1.27833436-1.0954434-1.34304949-2.4355045-1.17980978-3.3532378-.22337174-.0353014-.42687643-.1540178-.56677988-.3374364l-.10268804-.1623502-.20120637-.430918c-.50537523-.1641471-1.39514779-.54951235-1.79900031-1.31310444-.42601789-.80545462-.22720954-1.9144409-.09088382-2.44862347l.09088382-.31248932.00501382.00941303c.01733787-.24825939.16736547-.47622632.41737921-.58093349l1.38630342-.57887665c.36323618-.15146739.80123207.01030834.97890589.36121564l.37565217.74365523.4500465-.05149213-.92126625-2.49082113c-.06087249-.16413503-.0370665-.34737439.0626583-.49062655.10003453-.1435256.26385499-.22913086.43857665-.22913086zm3.03986165 1.959363c-.06557658 1.83953196-1.18302812 3.23084436-1.80601773 3.86708238l1.56246486-.5094526c.2529417-.08265431.52768579-.04767611.75300547.09440245l3.87736652 2.45549201.5938915-1.34105312c.1597068-.35976376.2020654-.91658394.0961871-1.24365621-.106193-.32709646-.4979828-.6844731-.874794-.79831622l-1.8109783-.5468264c-.3391302-.10245554-.6541665-.44148767-.7510962-.7900299l-.0480586-.23202931c-.0976882-.34584911-.4167911-.66947403-.7609629-.75338435zm-2.62459735-.6395229.7985945 2.15870358c.05706009.15382669.0399884.32531792-.04589393.46533964-.0858787.14002052-.23119979.23236251-.3944395.25118734l-.73392292.08390657.75036788 1.4845473.14956302-.14465741c.58086156-.58152892 1.712023-1.94227806 1.74586632-3.74601802zm-4.54952889-.56364401c-.15559314-1.02658805.77536441-1.87667589 1.77927894-1.62429075 1.1336279.28384254 1.47337992 1.81459592.56533787 2.53582941-.86950673.68976399-2.1790057.18090425-2.34461681-.91153866z" fill="#747E86"/></svg>