<svg height="18" viewBox="0 0 18 18" width="18" xmlns="http://www.w3.org/2000/svg"><g fill="none"><circle cx="9" cy="9" fill="#fff" opacity=".6" r="9"/><circle cx="9" cy="9" fill="#51ab8c" r="8.25"/><path d="m7.12322426 4.4275468c.1310725 0 .24663999.06564985.31633037.1657106h5.86540697c.3161032 0 .5703839.25407967.5703839.57061102l-.0074275 8.78535278c-.0004456.2840341-.1550937.3681389-.3456556.1877919-.1903173-.1803732-.4221147-.543645-.5179112-.8112951l-.656848-1.8391219c-.0794474-.014466-.1573988-.0427025-.2298662-.0883778l-2.86367197-1.81378127-2.53162164.82529367-.04269818.0095752c-.12149547.595244-.10387933 1.4949431.76306914 2.2382814.05416178.0462948.0603152.1274462.01401777.1814131-.0252769.0297447-.06139961.0448268-.09750047.0448268-.02974734 0-.0594938-.0101712-.08370901-.0310117-.92324149-.7911537-.96998019-1.7589755-.85208485-2.4217829-.16132403-.0254955-.30829964-.1112351-.40934102-.2437041l-.07416359-.1172529-.14531571-.31121856c-.36499322-.11855071-1.00760673-.39687005-1.299278-.94835323-.30767959-.58171723-.16409578-1.38265176-.06563831-1.76845029l.06563831-.22568672.0036211.00679829c.01252179-.17929844.12087506-.34394123.30144053-.41956307l1.00121914-.41807759c.26233724-.1093931.57866761.00744492.70698759.26087797l.27130434.53708434.32503359-.03718877-.66535896-1.79892637c-.04396347-.11854197-.02677025-.2508815.04525322-.3543414.07224716-.10365737.19056193-.1654834.3167498-.1654834zm2.19545563 1.4150955c-.04736086 1.32855086-.85440919 2.3333876-1.30434613 2.79289283l1.12844684-.36793798c.18268011-.05969479.3811064-.03443275.54383728.06817954l2.80032022 1.77341091.4289217-.96853837c.1153438-.25982939.1459361-.6619773.0694684-.89819616-.0766949-.23623633-.3596542-.49434168-.6317956-.57656171l-1.3079288-.39493018c-.2449273-.07399567-.4724536-.31885221-.5424584-.57057715l-.034709-.16757672c-.0705526-.24977992-.3010158-.48350903-.54958427-.54411092zm-1.89554253-.46187764.57676269 1.55906369c.04121007.11109706.02888052.23495183-.03314561.33607863-.06202351.10112593-.16697763.16781737-.28487297.18141308l-.53005545.06059919.54193236 1.07217305.10801774-.10447479c.41951113-.41999312 1.23646105-1.40275639 1.26090345-2.70545747zm-3.28577087-.40707623c-.11237282-.74142471.55998541-1.35537704 1.28503479-1.17309888.81873127.20499739 1.06410772 1.3105415.40829958 1.83143235-.62797709.49816288-1.57372634.13065307-1.69333437-.65833347z" fill="#fff"/></g></svg>