<svg height="18" viewBox="0 0 18 18" width="18" xmlns="http://www.w3.org/2000/svg"><circle cx="9" cy="9" fill="#fff" opacity=".6" r="9"/><circle cx="9" cy="9" fill="#AA96BC" r="8.25"/><path d="m12.5 12.44c0-.36313-.29312-.65625-.65625-.65625h-2.1875c-.1225 0-.21875-.09625-.21875-.21875s.096248-.21875.21875-.21875h3.5c.36313 0 .65625-.29312.65625-.65625s-.29312-.65625-.65625-.65625h-3.5c-.1225 0-.21875-.096248-.21875-.21875 0-.1225.096248-.21875.21875-.21875h3.9375c.36313 0 .65625-.29312.65625-.65625s-.29312-.65625-.65625-.65625h-3.9332c-.1225 0-.21875-.096247-.21875-.21875 0-.1225.096248-.21875.21875-.21875h2.6206c.36313 0 .65625-.29312.65625-.65625s-.29312-.65625-.65625-.65625h-4.9918l1.0281-1.8025c.14438-.25375.105-.56875-.096248-.77872-.25375-.2625-.67375-.27125-.93188-.013125l-3.0144 2.9662c-.33688.32812-.525.77438-.525 1.2469v3.1937c0 .9669.78315 1.75 1.75 1.75h6.3437c.36313 0 .65625-.29312.65625-.65625z" fill="#fff"/></svg>