<svg height="18" viewBox="0 0 18 18" width="18" xmlns="http://www.w3.org/2000/svg"><g fill="none"><circle cx="9" cy="9" fill="#fff" opacity=".6" r="9"/><circle cx="9" cy="9" fill="#51ab8c" r="8.25"/><path d="m10.81025 11.5622656 1.9883828 1.9883828c.2196797.2196797.2196797.5801797 0 .7998594s-.5801797.2196797-.7998594 0l-1.9883828-1.9883828zm-5.97641406-6.7706406c.21967968-.21967969.57454687-.21967969.79422656 0l4.7822578 4.78225781c.2196797.21967969.2196797.57454689 0 .79422659l-1.59408593 1.5940859c-.21967968.2196797-.57454687.2196797-.79422656 0l-4.78225781-4.7822578c-.21967969-.21967969-.21967969-.57454687 0-.79422656zm7.51980466-1.3068125c1.0888208 0 1.9714844.88266362 1.9714844 1.97148438 0 1.08882075-.8826636 1.97148437-1.9714844 1.97148437-1.0888207 0-1.9714844-.88266362-1.9714844-1.97148437 0-1.08882076.8826637-1.97148438 1.9714844-1.97148438z" fill="#fff"/></g></svg>