<svg height="18" viewBox="0 0 18 18" width="18" xmlns="http://www.w3.org/2000/svg"><path d="m11.5323 12.0747188 2.3860594 2.3860593c.2636156.2636157.2636156.6962157 0 .9598313-.2636157.2636156-.6962157.2636156-.9598313 0l-2.3860594-2.3860594zm-7.17169688-8.1247688c.26361563-.26361562.68945625-.26361562.95307188 0l5.7387094 5.73870938c.2636156.26361562.2636156.68945622 0 .95307192l-1.91290315 1.9129031c-.26361563.2636156-.68945625.2636156-.95307188 0l-5.73870937-5.7387094c-.26361563-.26361562-.26361563-.68945625 0-.95307187zm9.02376558-1.568175c1.306585 0 2.3657813 1.05919634 2.3657813 2.36578125s-1.0591963 2.36578125-2.3657813 2.36578125c-1.3065849 0-2.3657812-1.05919634-2.3657812-2.36578125s1.0591963-2.36578125 2.3657812-2.36578125z" fill="#747E86"/></svg>