<svg height="18" viewBox="0 0 18 18" width="18" xmlns="http://www.w3.org/2000/svg"><g fill="none"><circle cx="9" cy="9" fill="#fff" opacity=".6" r="9"/><circle cx="9" cy="9" fill="#51ab8c" r="8.25"/><path d="m3.45464554 9.81835887c-.04866535.21277533-.07964991.43189873-.07964991.65917033 0 .2272796.03098456.4464031.07964991.6591704h11.09076966c.0486637-.2127753.0796491-.4318988.0796491-.6591704 0-.2272796-.0310657-.4464031-.0796491-.65917033zm2.57903385-2.28324249c-1.01650657.11466837-1.89528252.74552118-2.33563477 1.62408017h10.60381078c-.4403925-.87853488-1.3192086-1.5094118-2.3357151-1.62408017v-1.34219044h-4.94383797c-.54605286 0-.98878366.44270669-.98878366.98878365zm-2.33563477 4.26105092c.48734459.9724713 1.50531364 1.6479459 2.66517575 1.6479459h5.27337893c1.1599424 0 2.1778151-.6754826 2.6651757-1.6479459zm2.33559459-7.91040591c0 .54605287.44274687.98878366.98882383.98878366h2.96627062c.36409414 0 .65917034.29508422.65917034.65917036h1.3183246v-.3295892c0-.91011489-.7377909-1.64794597-1.6479459-1.64794597h-3.9550543c-.15929119 0-.29216452.11296192-.32289393.26315973z" fill="#fff"/></g></svg>