<svg height="18" viewBox="0 0 18 18" width="18" xmlns="http://www.w3.org/2000/svg"><path d="m2.34557465 10.5820306c-.05839842.2553304-.0955799.5182786-.0955799.7910045 0 .2727355.03718148.5356837.0955799.7910044h13.30892355c.0583965-.2553304.0955789-.5182785.0955789-.7910044 0-.2727356-.0372788-.5356837-.0955789-.7910045zm3.09484061-2.73989094c-1.21980787.13760204-2.27433901.89462541-2.80276171 1.9488962h12.72457285c-.5284709-1.05424186-1.5830502-1.81129416-2.8028581-1.9488962v-1.61062853h-5.9326055c-.65526344 0-1.18654039.53124802-1.18654039 1.18654038zm-2.80276171 5.11326104c.5848135 1.1669656 1.80637636 1.9775352 3.19821089 1.9775352h6.32805466c1.391931 0 2.6133781-.8105792 3.1982109-1.9775352zm2.8027135-9.49248703c0 .65526344.53129624 1.18654039 1.1865886 1.18654039h3.55952475c.436913 0 .7910044.35410107.7910044.79100443h1.5819896v-.39550704c0-1.09213786-.8853491-1.97753517-1.9775352-1.97753517h-4.74606511c-.19114944 0-.35059744.13555432-.38747273.31579168z" fill="#747E86"/></svg>