<svg height="18" viewBox="0 0 24 24" width="18" xmlns="http://www.w3.org/2000/svg"><circle cx="12" cy="12" fill="#fff" opacity=".6" r="12"/><circle cx="12" cy="12" fill="#51ab8c" r="11"/><path d="m14.640892 5.1330653c-1.408845 0-1.408845 2.1132706 0 2.1132706 1.408848 0 1.408848-2.1132706 0-2.1132706zm-5.2831754 2.1132706c-.5623073-.0023246-.7385455.7587072-.2324598 1.0038035l2.1132702 1.0566353c.202816.096343.444373.053965.602282-.1056635l.824176-.8241755.390955.1267962v6.4454761l-1.954776 1.954774c-.366565.488755.25089 1.106211.739645.739645l2.113271-2.11327c.09702-.09494.15378-.223589.158495-.359255v-1.891379l2.039306 2.02874-.950971 2.852915c-.0981.277296.04917.581316.327556.676248.280372.09721.585793-.05551.676248-.338124l1.056635-3.169906c.07396-.243026 0-.390955-.126797-.528317l-1.965342-1.965342v-3.6242594l.147929.052832.940406 1.9547754c.128041.269218.453336.379245.718512.243026l2.134403-1.109467c.259041-.131856.362914-.4481967.23246-.707946-.135813-.2612774-.459022-.3610921-.718512-.2218934l-1.648351.8453084-.803043-1.669484c-.06081-.1292287-.171349-.2283326-.306424-.2747251l-2.218935-.7290783-.950971-.3169907c-.187204-.0654738-.39531-.0205876-.538884.1162299l-.792477.7924765-1.7645802-.8770074c-.0747348-.0403612-.158099-.0621078-.2430262-.063398zm.5283177 2.4619602-4.2265412 1.4053249v3.529162c-.9414269 0-1.4127247 1.138142-.7471161 1.803751.6656088.665609 1.8037514.194311 1.8037514-.747115v-3.222738l2.1132706-.707946v1.817413c-.941427 0-1.4127248 1.138142-.747116 1.803751.6656086.665609 1.8037513.194311 1.8037513-.747116z" fill="#fff"/></svg>