<svg height="18" viewBox="0 0 18 18" width="18" xmlns="http://www.w3.org/2000/svg"><path d="m9.255 7.85025.0930825 1.4784-.97485.0615825-.093315-1.4784zm6.443025 1.2996c-.49857.0513975-.846975-.6184125-.846975-1.818525-.411165-.371145-2.351925 1.6575-2.351925 1.6575l.012555.027c-.4391175.3074325-.886725.6013575-1.334175.8955.2238225-.6267.4391175-1.257675.6264675-1.89765.0054-.0201375.010185-.039555.0139725-.0589725l1.65105-1.4886c-1.1004-.4474125-.679515-1.067925-1.8801-1.568175-.35835.107295-.7356525 2.22495-.813075 2.67615-.02463.0412125-.0445275.087165-.0601575.1392675-.204405.70131-.44409 1.390575-.69018 2.077425-1.6212-.4772475-3.323025-.2259525-4.944675.1845075-.844875.2138775-.847425 1.19565-.3569325 1.6527.0630015.109665.175035.1935075.3458025.22311.9777.16911 1.84365.5767275 2.650125 1.148025.5956725.4211175 1.159125-.5575425.569625-.975075-.2790075-.197535-.57009-.3761175-.869925-.537645.837-.07911 1.672125-.0232125 2.504475.2901375.3626175.1359525.7641-.04074.999975-.3311175.774975-.542385 1.584075-1.0362 2.353575-1.588275.02037-.014685.0388425-.030075.0556575-.0454725.85695-.2171925 2.7531-.7017825 2.3649-.661755zm-12.0075 1.323c.422535-.865425.894075-.86355 1.53645-.862125.2790075.001125.592125.0024.921825-.0786375l2.04705-.129315-.093315-1.47885-2.65035.1672125c-.4085625.025815-.7185975.377775-.6927825.786075.0066375.10374.03434325.20085.0783975.287775-.578625.0315-1.1487.21411-1.601775 1.21335-.4097475.01113-.788475.271905-.92775.68307-.0963975.2837475-.0582675.5798025.07887.8214l-.1371375.404775.954525.323775.07389675-.21861c.042396-.000711.084315-.00405.126-.0099525.1473225.1302675.371145.134055.522015.000711.10848-.0954525.150165-.2382675.1245825-.370665.070581-.08835.1281375-.1899525.16674-.303405.16674-.4917-.06773925-1.02225-.5272275-1.2366z" fill="#0797b8"/></svg>