<svg height="18" viewBox="0 0 18 18" width="18" xmlns="http://www.w3.org/2000/svg"><g fill="none"><circle cx="9" cy="9" fill="#fff" opacity=".6" r="9"/><circle cx="9" cy="9" fill="#0797b8" r="8.25"/><path d="m9.2125 7.541875.07756875 1.232-.812375.05131875-.0777625-1.232zm5.3691875 1.083c-.415475.04283125-.7058125-.51534375-.7058125-1.5154375-.3426375-.3092875-1.9599375 1.38125-1.9599375 1.38125l.0104625.0225c-.3659313.25619375-.7389375.50113125-1.1118125.74625.1865187-.52225.3659312-1.0480625.5220562-1.581375.0045-.01678125.0084875-.0329625.0116438-.04914375l1.375875-1.2405c-.917-.37284375-.5662625-.8899375-1.56675-1.3068125-.298625.0894125-.6130437 1.854125-.6775625 2.230125-.020525.03434375-.0371063.0726375-.0501312.11605625-.1703375.584425-.370075 1.1588125-.57515005 1.7311875-1.351-.39770625-2.7691875-.18829375-4.1205625.15375625-.7040625.17823125-.7061875.99637495-.29744375 1.37724995.05250125.0913875.1458625.1612563.28816875.185925.81475.140925 1.536375.4806063 2.2084375.9566875.49639375.3509313.9659375-.4646187.4746875-.8125625-.23250625-.1646125-.475075-.3134312-.7249375-.4480375.6975-.065925 1.3934375-.0193437 2.0870625.2417813.30218125.1132937.63674995-.03395.83331245-.2759313.6458126-.4519875 1.3200626-.86349995 1.9613126-1.32356245.0169749-.0122375.0323687-.0250625.0463812-.03789375.714125-.18099375 2.29425-.58481875 1.97075-.5514625zm-10.00625 1.1025c.3521125-.7211875.7450625-.719625 1.280375-.7184375.23250625.0009375.4934375.002.7681875-.06553125l1.705875-.1077625-.0777625-1.232375-2.208625.13934375c-.34046875.0215125-.59883125.3148125-.57731875.6550625.00553125.08645.02861937.167375.06533125.2398125-.4821875.02625-.95725.178425-1.3348125 1.011125-.34145625.009275-.6570625.2265875-.773125.569225-.08033125.2364562-.04855625.4831687.065725.6845l-.11428125.3373125.7954375.2698125.06158062-.182175c.03533-.0005925.0702625-.003375.105-.0082938.12276875.1085563.3092875.1117125.4350125.0005925.0904-.0795437.1251375-.1985562.10381875-.3088875.0588175-.073625.10678125-.1582937.13895-.2528375.13895-.40975-.05644937-.85187495-.43935625-1.03049995z" fill="#fff"/></g></svg>