<svg height="18" viewBox="0 0 24 24" width="18" xmlns="http://www.w3.org/2000/svg"><circle cx="12" cy="12" fill="#fff" opacity=".6" r="12"/><circle cx="12" cy="12" fill="#AA96BC" r="11"/><path d="m16.694 14.397v-1.1984h1.8975q.25966 0 .42943.16978.16978.16978.16978.42943 0 .23968-.16978.41945-.16978.17976-.42943.17976zm0 3.1958v-1.1984h1.8975q.25966 0 .42943.16978.16978.16978.16978.42943 0 .23968-.16978.41945-.16978.17976-.42943.17976zm-3.0959.79894q-.57924 0-.9887-.46938-.40946-.46938-.40946-1.1285h-1.8975v-2.7963h1.8975q0-.65913.40946-1.1285.40946-.46938.9887-.46938h2.4967v5.9921zm-5.6925-2.3968q-1.3382 0-2.2171-.86885-.87884-.86885-.87884-2.2271t.87884-2.2271q.87884-.86885 2.2171-.86885h1.2983q.65913 0 1.0786-.41945.41945-.41945.41945-1.0786 0-.65913-.41945-1.0786-.41945-.41945-1.0786-.41945h-2.996q-.23968 0-.41945-.17976-.17976-.17976-.17976-.41945 0-.25966.17976-.42943.17976-.16978.41945-.16978h2.996q1.1585 0 1.9275.76899t.76898 1.9275q0 1.1585-.76898 1.9275-.76898.76898-1.9275.76898h-1.2983q-.83889 0-1.3682.51932-.5293.51931-.5293 1.3782 0 .85887.5293 1.3782.5293.51931 1.3682.51931h1.7976v1.1984z" fill="#fff"/></svg>