<svg height="6" viewBox="0 0 7 6" width="7" xmlns="http://www.w3.org/2000/svg"><path d="m6.5.00381365c.27614237 0 .5.22385763.5.5v4.99618635c0 .27614237-.22385763.5-.5.5h-5.99689709c-.27614237 0-.5-.22385763-.5-.5v-4.99618635c0-.27614237.22385763-.5.5-.5zm-3.37189709.749-2.375.001v4.496h2.375zm3.121 0-2.371-.001v4.498h2.371zm-1.62410291 1.77843635c.25888348 0 .46875.20986652.46875.46875s-.20986652.46875-.46875.46875-.46875-.20986652-.46875-.46875.20986652-.46875.46875-.46875zm-2.25 0c.25888348 0 .46875.20986652.46875.46875s-.20986652.46875-.46875.46875-.46875-.20986652-.46875-.46875.20986652-.46875.46875-.46875z" fill="#747e86" transform="translate(.0041)"/></svg>