<svg height="9" viewBox="0 0 12 9" width="12" xmlns="http://www.w3.org/2000/svg"><path d="m4.50016351 0c-.38659932 0-.7.31340068-.7.7l.00059659 2.55h.751l-.001-2.501 4.125.001v7.499h-4.125l.001-2.499h-.751l-.00059659 2.55c0 .38659932.31340068.7.7.7h4.22459659c.38659932 0 .7-.31340068.7-.7v-7.6c0-.38659932-.31340068-.7-.7-.7zm1.758459 2.50813059 1.99137749 1.99137749-1.99137749 1.99236133-.53033009-.53033009 1.11942967-1.11953932-5.09772209.00011809v-.75l5.03172209-.00011809-1.05342967-1.05353932z" fill="#747e86"/></svg>