<svg height="6" viewBox="0 0 7 6" width="7" xmlns="http://www.w3.org/2000/svg"><path d="m6.49689709-.00309317c.27614237 0 .5.22385762.5.5v4.99618634c0 .27614238-.22385763.5-.5.5l-2.62189709-.00018634-.75.00709317-2.625-.00690683c-.27614237 0-.5-.22385762-.5-.5v-4.99618634c0-.27614238.22385763-.5.5-.5zm-3.37189709.749-2.375.001v4.496h2.375v-.748l-.375.00009317-.001-.75009317-.749.00009317v-1.5l.749-.00009317.001-.74990683.375-.00009317zm3.121 0-2.371-.001v.75l.375.00009317-.001.74990683.751.00009317v1.5l-.751-.00009317.001.75009317-.375-.00009317v.748h2.371z" fill="#d85961"/></svg>