<svg height="9" viewBox="0 0 11 9" width="11" xmlns="http://www.w3.org/2000/svg"><path d="m10.0510104 0c.3865993 0 .7.31340068.7.7v7.6c0 .38659932-.3134007.7-.7.7h-9.1020208c-.38659933 0-.7-.31340068-.7-.7v-7.6c0-.38659932.31340067-.7.7-.7zm-4.9240208.75h-4.128v7.5h4.128zm4.874 0h-4.124v7.5h4.124zm-2.7509896 3c.41421356 0 .75.33578644.75.75s-.33578644.75-.75.75-.75-.33578644-.75-.75.33578644-.75.75-.75zm-3.5 0c.41421356 0 .75.33578644.75.75s-.33578644.75-.75.75-.75-.33578644-.75-.75.33578644-.75.75-.75z" fill="#747e86"/></svg>