<svg height="18" viewBox="0 0 18 18" width="18" xmlns="http://www.w3.org/2000/svg"><g fill="none"><circle cx="9" cy="9" fill="#fff" opacity=".6" r="9"/><circle cx="9" cy="9" fill="#51ab8c" r="8.25"/><path d="m9.24809749 5.79006754c.06112551-.09655577.19496583-.1359272.29964779-.08825574l.85197452.3949215.0204978.00413673c.0430936.0132609.0814462.03440896.1164402.05926237l.0588503.02734512c.1034032.04787024.1624482.17633441.1317881.28656153l-.0165759.02589324c-.000433.03958792-.0043766.0793698-.0165977.11915249l-.31473 1.02146802.1079495.114388c.4055129-.21656699.7264801-.5298644 1.0836801-.91048438.3632119-.38685727.825464-.59136013 1.3366326-.59136013.0648518 0 .1272167.00329652.186475.00868876.1110722.0105527.2733063-.00600149.3539083-.03564354l.3259329-.1197561c.1644796-.06027884.3178527-.03211041.4050622.07252327.0654594.07874285.0886871.19351716.06483.32302759l-.0588479.32116043c-.0174.09655335.0043621.25464267.034607.34538528.0379925.11410632.0688848.23731954.0922571.36811587l.0293662.20169138c.0113961.09988528.0517896.26584567.0971811.3601214l.0957324.19581089c.1195308.24200711.1210036.46081149.004346.58534013-.1259773.13447531-.3851913.12682155-.6050339-.0105519l-.166732-.10317135c-.0759331-.04484931-.1549982-.0870419-.1993853-.09573967l-.0607633-.00859218-.1435464-.0083958c-.1781935-.00706626-.3990582-.01596748-.5617188-.14027882-.0180198.15787202-.032933.37834236-.0151225.59610852l.0070192.04697196.02696.11237287c.0223819.08701633.0457456.17696137.0441359.25505313-.0017082.07506486-.0207958.14662124-.0571542.21364037l-.0421113.0654686c-.013046.01742419-.0756283.10773542-.023404.17135263l1.7284958 2.10104349c.1050039.1278364.1018893.3255145-.0070823.4500431l-.7131846.8132631c-.170741.1945553-.5068146.346842-.7656182.346842h-.347687c-.2051306 0-.2838735-.0967466-.3124524-.1543631-.0287962-.0573831-.0582442-.1785879.0656727-.3420775l.5741613-.7581414c.0389369-.0515965.0348001-.1384197-.0085149-.1862819l-1.3372764-1.4699096c-.0418664-.0459789-.1369864-.0598684-.2043097-.0308766l-.1312419.051875c-.3177791.115252-.8593214.2444196-1.75177795.2968503-.24863877.0147345-.49810651.0219738-.74260854.0227947l-.76227816.8845694c-.22377007.2598176-.60129152.301853-.84247773.0934307-.24159747-.2082453-.25280046-.5855575-.02569847-.8431216l.19041864-.2156817-.2281241-.0317217c-.0834832-.0134565-.19082748.0298336-.23743578.0876441l-1.80157279 2.234079c-.16326426.2024506-.49479067.3611435-.75504289.3611435h-.32198939c-.20469601 0-.28428231-.0969638-.31349056-.1547735-.02920504-.0578097-.05989254-.1792398.06153757-.344178l1.72471319-2.341602c.05676906-.077093.11540287-.227931.12576-.3226171l.04849317-.4438059c.01202632-.11104798.02175489-.29132598.02175489-.40196355v-.34872526c-.17923979-.07150437-.53252029-.17301537-.71650042-.05573005-.08868954.05633688-.13178684.16244336-.13219851.32384851-.00209251 1.30613825-1.26042007 1.83577735-1.27305241 1.84092815-.01263233.0051508-.02589323.0076457-.03915413.0076457-.01616465 0-.03232851-.0037504-.04704129-.0113962-.02695478-.0136737-.04643422-.038309-.05367133-.0675398-.11402181-.4657601.04839768-.9743859.38603602-1.93158953l.13488128-.38214986c.11436386-.32387265.31535773-.55155411.59714673-.67651734.52715219-.23351796 1.17358564-.03397597 1.37373446.03874206.24409963-.20885689.69906014-.42475589 1.54218171-.42475589.12638776 0 .26086388.00663004.39864778.01657592zm.69367353-1.82571796c.20941218-.23102948.87645688-.83231294 1.39795928-.59528761.729136.33150227.4977202 1.0368158.5731231 1.22701713.0422849.10628354.0517816.20513464.0480795.28552333-.0053922.11436386-.1263877.16368438-.2308283.11623103l-.0979859-.04454959c-.0267359.15891827-.0895112.31390906-.1989335.44755623-.3343996.40944031-.9380251.47013122-1.3476586.13551433-.40958032-.33462817-.47029538-.9381973-.13569458-1.34780662l.00808193-.00808193c-.06567592-.05594252-.08017221-.14524049-.01614293-.2161163z" fill="#fff"/></g></svg>