<svg height="18" viewBox="0 0 18 18" width="18" xmlns="http://www.w3.org/2000/svg"><path d="m9.29771699 5.74808105c.07335061-.11586692.23395899-.16311264.35957734-.10590689l1.02236937.4739058.0245974.00496408c.0517124.01591307.0977354.04129074.1397283.07111484l.0706204.03281414c.1240837.0574443.1949378.2116013.1581456.34387385l-.0198911.03107187c-.0005196.04750551-.0052519.09524377-.0199172.14298299l-.3776759 1.22576163.1295394.1372656c.4866154-.25988039.8717761-.63583728 1.300416-1.09258125.4358543-.46422873.9905568-.70963216 1.6039591-.70963216.0778222 0 .1526601.00395582.2237701.01042651.1332866.01266324.3279675-.00720179.4246899-.04277224l.3911196-.14370732c.1973754-.07233462.3814231-.0385325.4860745.08702791.0785513.09449143.1064246.2322206.0777961.38763311l-.0706175.38539252c-.02088.11586402.0052345.30557121.0415283.41446234.0455911.13692758.0826618.28478344.1107086.44173905l.0352394.24202965c.0136753.11986233.0621476.3190148.1166173.43214568l.1148789.23497306c.1434369.29040854.1452043.55297379.0052152.70240816-.1511727.16137037-.4622296.15218585-.7260407-.01266228l-.2000784-.12380562c-.0911197-.05381918-.1859978-.10445028-.2392623-.1148876l-.072916-.01031062-.1722556-.01007496c-.2138322-.00847951-.4788699-.01916098-.6740627-.16833458-.0216237.18944642-.0395195.45401082-.0181469.71533022l.008423.05636635.032352.13484744c.0268582.10441957.0548947.21235367.0529631.30606377-.0020498.0900778-.024955.1759455-.0685851.2563684l-.0505335.0785624c-.0156553.020909-.0907539.1292825-.0280848.2056231l2.074195 2.5212522c.1260046.1534037.1222671.3906174-.0084988.5400518l-.8558216.9759156c-.2048891.2334664-.6081774.4162104-.9187417.4162104h-.4172245c-.2461567 0-.3406481-.1160958-.3749428-.1852357-.0345554-.0688597-.0698931-.2143054.0788072-.410493l.6889936-.9097697c.0467242-.0619158.0417601-.1661036-.0102179-.2235383l-1.6047318-1.7638914c-.0502396-.0551747-.1643835-.0718421-.2451716-.037052l-.1574902.0622501c-.381335.1383023-1.0311857.2933034-2.10213356.3562202-.29836653.0176814-.59772781.0263686-.89113025.0273537l-.91473379 1.0614833c-.26852408.3117811-.72154982.3622236-1.01097327.1121168-.28991697-.2498943-.30336055-.7026689-.03083816-1.0117459l.22850236-.258818-.27374892-.0380661c-.10017984-.0161477-.22899298.0358004-.28492294.1051729l-2.16188734 2.6808949c-.19591712.2429407-.59374881.4333722-.90605148.4333722h-.38638726c-.24563521 0-.34113877-.1163566-.37618868-.1857282-.03504604-.0693716-.07187104-.2150878.07384509-.4130137l2.06965583-2.8099223c.06812287-.0925116.13848344-.2735172.150912-.3871406l.05819181-.532567c.01443157-.1332576.02610586-.3495912.02610586-.4823563v-.41847031c-.21508775-.08580525-.63902434-.20761845-.85980051-.06687606-.10642744.06760425-.15814421.19493207-.1586382.38861817-.00251102 1.5673659-1.51250409 2.2029328-1.5276629 2.2091138-.0151588.0061809-.03107187.0091748-.04698495.0091748-.01939759 0-.03879422-.0045005-.05644955-.0136753-.03234573-.0164086-.05572106-.0459709-.0644056-.0810479-.13682617-.5589121.05807722-1.169263.46324322-2.3179074l.16185754-.45857981c.13723663-.38864718.37842928-.66186493.71657608-.81182081.63258263-.28022155 1.40830276-.04077116 1.64848135.04649048.29291956-.25062827.83887216-.50970707 1.85061805-.50970707.15166531 0 .31303666.00795605.47837734.0198911zm.83240821-2.19086155c.2512947-.27723537 1.0517483-.99877554 1.6775512-.71434514.8749632.39780272.5972642 1.24417896.6877477 1.47242057.0507418.12754024.062138.24616156.0576954.34262799-.0064707.13723663-.1516653.19642125-.2769939.13947723l-.1175831-.05345951c-.0320831.19070193-.1074135.37669088-.2387203.53706748-.4012795.49132837-1.1256301.56415746-1.6171902.16261719-.49149647-.40155379-.56435453-1.12583675-.1628336-1.61736794l.0096983-.00969831c-.0788111-.06713102-.0962066-.17428859-.0193715-.25933956z" fill="#747E86"/></svg>