<svg height="18" width="18" xmlns="http://www.w3.org/2000/svg"><circle cx="9" cy="9" fill="#fff" opacity=".6" r="9"/><circle cx="9" cy="9" fill="#EB785D" r="8.25"/><path d="m5.194 4.525h1.35v5.4h-1.35z" fill="#fff" fill-rule="evenodd" stroke-width=".9"/><path d="m5.194 5.2h2.7v1.35h-2.7z" fill="#fff" fill-rule="evenodd" stroke-width=".9"/><circle cx="5.869" cy="11.613" fill="none" r="1.688" stroke="#fff" stroke-width="1.5"/><path d="m12.506 11.275h-1.575l-.006-.407q0-.754.25-1.24c.166-.324.458-.735.957-1.141q.748-.608.894-.796.225-.297.225-.657 0-.497-.402-.85-.396-.359-1.07-.359-.65 0-1.087.371c-.292.247-.446.624-.555 1.13l-1.568-.194q.067-1.088.923-1.847c.576-.507 1.283-.76 2.214-.76.981 0 1.715.257 2.293.772q.87.765.87 1.787 0 .564-.322 1.069a5.7 5.7 0 0 1 -1.251 1.42q-.54.45-.675.724-.126.272-.115.978m-1.687 2.25v-1.8h1.8v1.8z" fill="#fff" fill-rule="evenodd" stroke-width=".9"/></svg>