<svg height="18" viewBox="0 0 18 18" width="18" xmlns="http://www.w3.org/2000/svg"><path d="m15.03675 11.0145.5071725-.5071725c.2747175-.2747175.2747175-.7185 0-.993225l-.014085-.014085c-.2747175-.2747175-.7185-.2747175-.993225 0l-2.01465 2.014575-6.03675-6.03675 2.014575-2.014575c.2747175-.2747175.2747175-.7185 0-.993225l-.014085-.014088c-.2747175-.2747175-.7185-.2747175-.993225 0l-.50718.5071725-.5071725-.5071725c-.2747175-.2747175-.7255425-.2747175-1.000275 0l-1.007325 1.007325-.5071725-.5071725c-.2747175-.2747175-.732585-.2747175-1.007325 0-.2747175.2747175-.2747175.732585 0 1.007325l.5071725.5071725-1.007325 1.007325c-.2747175.2747175-.2747175.7185 0 .993225l.5071725.5071725-.5071725.514215c-.2747175.2747175-.2747175.7185 0 .993225l.014088.014085c.2747175.2747175.7185.2747175.993225 0l2.014575-2.014575 6.03675 6.03675-2.014575 2.014575c-.2747175.2747175-.2747175.7185 0 .993225l.014085.014085c.2747175.2747175.7185.2747175.993225 0l.5071725-.5071725.5071725.5071725c.2747175.2747175.7185.2747175.993225 0l1.007325-1.007325.5071725.5071725c.2747175.2747175.732585.2747175 1.007325 0 .2747175-.2747175.2747175-.732585 0-1.007325l-.5071725-.5071725 1.014375-1.007325c.2747175-.2747175.2747175-.7185 0-.993225z" fill="#747E86"/></svg>