<svg height="18" viewBox="0 0 24 24" width="18" xmlns="http://www.w3.org/2000/svg"><path d="m20.049 14.686.67623-.67623c.36629-.36629.36629-.958 0-1.3243l-.01878-.01878c-.36629-.36629-.958-.36629-1.3243 0l-2.6862 2.6861-8.049-8.049 2.6861-2.6861c.36629-.36629.36629-.958 0-1.3243l-.01878-.018784c-.36629-.36629-.958-.36629-1.3243 0l-.67624.67623-.67623-.67623c-.36629-.36629-.96739-.36629-1.3337 0l-1.3431 1.3431-.67623-.67623c-.36629-.36629-.97678-.36629-1.3431 0-.36629.36629-.36629.97678 0 1.3431l.67623.67623-1.3431 1.3431c-.36629.36629-.36629.958 0 1.3243l.67623.67623-.67623.68562c-.36629.36629-.36629.958 0 1.3243l.018784.01878c.36629.36629.958.36629 1.3243 0l2.6861-2.6861 8.049 8.049-2.6861 2.6861c-.36629.36629-.36629.958 0 1.3243l.01878.01878c.36629.36629.958.36629 1.3243 0l.67623-.67623.67623.67623c.36629.36629.958.36629 1.3243 0l1.3431-1.3431.67623.67623c.36629.36629.97678.36629 1.3431 0 .36629-.36629.36629-.97678 0-1.3431l-.67623-.67623 1.3525-1.3431c.36629-.36629.36629-.958 0-1.3243z" fill="#51ab8c"/></svg>