<svg height="18" viewBox="0 0 18 18" width="18" xmlns="http://www.w3.org/2000/svg"><g fill="none"><circle cx="9" cy="9" fill="#fff" opacity=".6" r="9"/><circle cx="9" cy="9" fill="#51ab8c" r="8.25"/><path d="m13.473 10.4925.3758175-.3758175c.203565-.203565.203565-.5324025 0-.7359975l-.01044-.01044c-.203565-.203565-.5324025-.203565-.7359975 0l-1.4928 1.4928-4.473225-4.473225 1.4928-1.4928c.203565-.203565.203565-.5324025 0-.7359975l-.0104325-.01043925c-.203565-.203565-.5324025-.203565-.7359975 0l-.375825.3758175-.3758175-.3758175c-.203565-.203565-.5376225-.203565-.741165 0l-.7464075.7464075-.3758175-.3758175c-.203565-.203565-.5428425-.203565-.7464075 0s-.203565.5428425 0 .7464075l.3758175.3758175-.7464075.7464075c-.203565.203565-.203565.5324025 0 .7359975l.3758175.3758175-.3758175.38103c-.203565.203565-.203565.5324025 0 .7359975l.01043925.0104325c.203565.203565.5324025.203565.7359975 0l1.4928-1.4928 4.47322495 4.47322505-1.49279995 1.4928c-.203565.203565-.203565.5324025 0 .7359975l.0104325.01044c.203565.203565.5324025.203565.73599745 0l.3758175-.3758175.3758101.3758175c.203565.203565.5324099.203565.7359975 0l.7464075-.7464075.3758175.3758175c.203565.203565.5428425.203565.7464075 0s.203565-.5428425 0-.7464075l-.3758175-.3758175.75165-.7464075c.2035649-.203565.2035649-.5324025 0-.7359975z" fill="#fff"/></g></svg>