<svg height="18" viewBox="0 0 19 18" width="19" xmlns="http://www.w3.org/2000/svg"><g fill="none" transform="translate(.6)"><circle cx="9" cy="9" fill="#fff" opacity=".6" r="9"/><circle cx="9" cy="9" fill="#747e86" r="8.25"/><path d="m10.45 4.75c.1656854 0 .3.13431458.3.3v7.9c0 .1656854-.1343146.3-.3.3h-5.9c-.16568542 0-.3-.1343146-.3-.3v-7.9c0-.16568542.13431458-.3.3-.3zm2 .0016965h1.1c.1104569 0 .2.08954305.2.2v6.3h-1.5v-6.3c0-.11045695.0895431-.2.2-.2zm1.3 7-.6605573 1.3211146c-.0096764.0193527-.0253686.035045-.0447213.0447213-.0493979.0246989-.1094652.0046765-.1341641-.0447213l-.6605573-1.3211146zm-6.25-5.0016965c.19657385 0 .35525769.15075.35525769.3375v1.2375l1.89474231 1.125v.45l-1.89474231-.5625v1.2375l.47367693.3375v.3375l-.82893462-.225-.82893462.225v-.3375l.47367693-.3375v-1.2375l-1.89474231.5625v-.45l1.89474231-1.125v-1.2375c0-.18675.15868384-.3375.35525769-.3375z" fill="#fff" fill-rule="evenodd"/></g></svg>