<svg height="18" viewBox="0 0 24 24" width="18" xmlns="http://www.w3.org/2000/svg"><circle cx="12" cy="12" fill="#fff" opacity=".6" r="12"/><circle cx="12" cy="12" fill="#AA96BC" r="11"/><path d="m15.23 4.008a.667.667 0 0 0 -.368 1.13l1.724 1.724c.318.318.543.711.659 1.138h-.578c-1.097 0-2 .903-2 2s.903 2 2 2h.666v4.667c0 .376-.29.666-.666.666a.657.657 0 0 1 -.667-.666v-1.334c0-1.096-.903-2-2-2h-.667v-6.666a1.33 1.33 0 0 0 -1.333-1.334h-5.333a1.33 1.33 0 0 0 -1.334 1.334v10.666a1.33 1.33 0 0 0 1.334 1.334h5.333a1.33 1.33 0 0 0 1.333-1.334v-2.666h.667c.376 0 .667.29.667.666v1.334c0 1.096.903 2 2 2 1.096 0 2-.904 2-2v-8a3.884 3.884 0 0 0 -1.138-2.747l-1.724-1.725a.667.667 0 0 0 -.576-.187zm-7.898 2.659h4c.37 0 .667.297.667.666v3.334h-5.332v-3.334c0-.369.297-.666.666-.666zm9.335 2.333a1 1 0 1 1 0 2 1 1 0 0 1 0-2z" fill="#fff" stroke-dasharray=".133333 .133333" stroke-linecap="round" stroke-linejoin="round" stroke-width=".133333"/></svg>