<svg height="12" viewBox="0 0 16 16" width="12" xmlns="http://www.w3.org/2000/svg"><circle cx="8" cy="8" fill="#fff" opacity=".6" r="8" stroke-width=".666667"/><circle cx="8" cy="8" fill="#AA96BC" r="7.333" stroke-width=".666667"/><path d="m10.375 2.005a.444.444 0 0 0 -.245.754l1.15 1.149c.212.212.362.474.439.759h-.386a1.34 1.34 0 0 0 -1.333 1.333 1.34 1.34 0 0 0 1.333 1.333h.445v4.445c0 .25-.194.444-.445.444a.438.438 0 0 1 -.444-.444v-.89a1.34 1.34 0 0 0 -1.333-1.332h-.556v-5.55a.887.887 0 0 0 -.888-.89h-2.89a.887.887 0 0 0 -.888.89l-.001 7.994c0 .492.397.889.89.889h2.887a.887.887 0 0 0 .89-.889l.001-1.556h.555c.25 0 .444.194.444.445v.889a1.34 1.34 0 0 0 1.333 1.333 1.34 1.34 0 0 0 1.334-1.333v-6.668l-.002-.036a2.59 2.59 0 0 0 -.757-1.795l-1.15-1.15a.444.444 0 0 0 -.383-.125zm-4.707 2h2c.246 0 .445.199.445.445v2.222h-2.89v-2.222c0-.246.199-.445.445-.445zm5.665 1.328a.667.667 0 1 1 0 1.334.667.667 0 0 1 0-1.334z" fill="#fff" stroke-dasharray=".088889 .088889" stroke-linecap="round" stroke-linejoin="round" stroke-width=".088889"/></svg>