<svg height="18" viewBox="0 0 24 24" width="18" xmlns="http://www.w3.org/2000/svg"><g fill="none"><circle cx="12" cy="12" fill="#fff" opacity=".6" r="12"/><circle cx="12" cy="12" fill="#AA96BC" r="11"/><g fill="#fff" transform="translate(6 6)"><path d="m6.2293.0015h-.46085c-2.06 0-3.73 1.67-3.73 3.73v4.1207h7.9208v-4.1207c0-2.06-1.6699-3.73-3.73-3.73zm1.2105 6.7177h-2.8818c-.19416 0-.35156-.15741-.35156-.35156s.15741-.35156.35156-.35156h2.8818c.19416 0 .35156.15741.35156.35156s-.15738.35156-.35156.35156zm0-1.4062h-2.8818c-.19416 0-.35156-.15741-.35156-.35156s.15741-.35156.35156-.35156h2.8818c.19416 0 .35156.15741.35156.35156s-.15738.35156-.35156.35156zm0-1.4062h-2.8818c-.19416 0-.35156-.15741-.35156-.35156s.15741-.35156.35156-.35156h2.8818c.19416 0 .35156.15741.35156.35156s-.15738.35156-.35156.35156z"/><path d="m11.254 9.8099v-.90302c0-.19416-.15741-.35156-.35156-.35156h-9.8078c-.19416 0-.35156.15741-.35156.35156v.90302h10.511z"/><path d="m11.998 11.996h-11.998v-1.1317c0-.19416.15741-.35156.35156-.35156h11.295c.19416 0 .35156.15741.35156.35156v1.1317z"/></g></g></svg>