<svg height="18" viewBox="0 0 24 24" width="18" xmlns="http://www.w3.org/2000/svg"><circle cx="12" cy="12" fill="#fff" opacity=".6" r="12"/><circle cx="12" cy="12" fill="#EB785D" r="11"/><path d="m9.5 6.4h7v9.1c0 .385.315.7.7.7s.7-.315.7-.7v-9.1c0-.77-.63-1.4-1.4-1.4h-7c-.385 0-.7.315-.7.7s.315.7.7.7zm-3.5 2.8v8.4c0 .77.63 1.4 1.4 1.4h6.3c.77 0 1.4-.63 1.4-1.4v-8.4c0-.77-.63-1.4-1.4-1.4h-6.3c-.77 0-1.4.63-1.4 1.4z" fill="#fff"/><path d="m10.55 9.0831c-1.2696 2.116-3.3856 2.9624-3.3856 5.0784 0 .8464.8464 1.6928 1.6928 1.6928.4232 0 .8464 0 1.2696-.4232 0 0 .13542.8464-.8464 2.116h2.5392c-.8464-1.2696-.8464-2.116-.8464-2.116.4232.4232.8464.4232 1.2696.4232.8464 0 1.6928-.8464 1.6928-1.6928 0-2.116-2.116-2.9624-3.3856-5.0784z" fill="#EB785D"/></svg>