<svg height="18" viewBox="0 0 18 18" width="18" xmlns="http://www.w3.org/2000/svg"><g fill="none"><circle cx="9" cy="9" fill="#fff" opacity=".6" r="9"/><circle cx="9" cy="9" fill="#51ab8c" r="8.25"/><path d="m13.359585 14.0449775c.4804877 0 .87-.3895123.87-.87s-.3895123-.87-.87-.87-.87.3895123-.87.87.3895123.87.87.87zm-4.929681-1.7226v-5.248971l2.447571-1.246971c.4234029-.2146029.4234029-.8293971-.0058-1.038171l-2.76077103-1.351371c-.3886029-.1914-.8410029.087-.8410029.5161971v8.93229c0 .3190029-.261.5800029-.5800029.5800029s-.5800029-.261-.5800029-.5800029v-.4234029c-1.038171.2029971-1.74.5742-1.74 1.003371 0 .6379971 1.560171 1.159971 3.48 1.159971s3.48000003-.522 3.48000003-1.159971c0-.5521154-1.1582841-1.0130963-2.71171184-1.130187z" fill="#fff"/></g></svg>