<svg height="18" viewBox="0 0 18 18" width="18" xmlns="http://www.w3.org/2000/svg"><path d="m13.871502 15.053973c.5765853 0 1.044-.4674147 1.044-1.044s-.4674147-1.044-1.044-1.044-1.044.4674147-1.044 1.044.4674147 1.044 1.044 1.044zm-5.9156172-2.06712v-6.2987652l2.9370852-1.4963652c.5080835-.25752348.5080835-.99527652-.00696-1.2458052l-3.31292523-1.6216452c-.46632348-.22968-1.00920348.1044-1.00920348.61943652v10.71874798c0 .3828035-.3132.6960035-.69600348.6960035s-.69600348-.3132-.69600348-.6960035v-.5080835c-1.2458052.2435966-2.088.68904-2.088 1.2040452 0 .7655966 1.8722052 1.3919652 4.176 1.3919652s4.17599997-.6264 4.17599997-1.3919652c0-.6625384-1.3899408-1.2157156-3.25405415-1.3562243z" fill="#747E86"/></svg>