<svg height="18" viewBox="0 0 24 24" width="18" xmlns="http://www.w3.org/2000/svg"><circle cx="12" cy="12" fill="#fff" opacity=".6" r="12"/><circle cx="12" cy="12" fill="#AA96BC" r="11"/><path d="m7.3333 9.9996 4.6666-5.333 4.6667 5.333v8.6669h-9.3333z" fill="#fff" stroke="#fff" stroke-linecap="round" stroke-linejoin="round" stroke-width="1.333"/><path d="m2.7578 17.659a5.9999 5.9582 0 0 1 2.685-6.0597 5.9999 5.9582 0 0 1 6.6652.14442 5.9999 5.9582 0 0 1 2.4163 6.1703 5.9999 5.9582 0 0 1 -4.8158 4.5781z" fill="#AA96BC"/><g stroke="#fff" stroke-linecap="round" stroke-linejoin="round" stroke-width="1.333"><g fill="none"><path d="m5.9998 14 5.3336 5.3336"/><path d="m11.333 14-5.3336 5.3334"/><path d="m5.2819 16.666h6.7693"/><path d="m8.6666 13.233v6.8183"/></g><ellipse cx="8.6666" cy="16.666" fill="#AA96BC" rx="2.0006" ry="2.0001"/></g></svg>