<svg height="18" viewBox="0 0 18 18" width="18" xmlns="http://www.w3.org/2000/svg"><g fill="none"><circle cx="9" cy="9" fill="#fff" opacity=".6" r="9"/><circle cx="9" cy="9" fill="#51ab8c" r="8.25"/><path d="m7.1071875 15.758125-.739375-.443625 1.8928125-3.2236875-1.2125625-.7245625-1.1090625 1.7893125-.739375-.443625 3.386375-5.4861875c-.41405-.36475833-.72459167-.76155-.931625-1.190375-.207025-.42883333-.3105375-.87985417-.3105375-1.3530625 0-.37461667.03696875-.71965833.11090625-1.035125s.20456042-.66050833.39186875-1.035125l.7689375.41405c-.13801667.28589167-.2366.5545375-.29575.8059375-.05915.2513875-.088725.50524167-.088725.7615625 0 .47320833.11337083.90204167.3401125 1.2865s.60628333.7344375 1.138625 1.0499375l1.434375.842875c.5619167.325325.9784375.72705417 1.2495625 1.2051875.2711042.478125.4066563 1.0277292.4066563 1.6488125 0 .384475-.05915.7738708-.17745 1.1681875-.1183.3943333-.2760334.7689583-.4732 1.123875l-.7689375-.443625c.1675916-.3154667.2982145-.62355.3918687-.92425.0936542-.3006792.1404813-.6087625.1404813-.92425 0-.3746167-.0640792-.7172-.1922375-1.02775-.1281584-.3105375-.3203959-.5496-.5767125-.7171875zm4.2144375-8.990625c-.29575 0-.5496042-.10597708-.7615625-.31793125-.2119542-.21195417-.3179312-.46580833-.3179312-.7615625 0-.29575.105977-.54960417.3179312-.7615625.2119542-.21195417.4658083-.31793125.7615625-.31793125s.5496083.10597708.7615625.31793125.3179313.46580833.3179313.7615625c0 .29575-.1059771.54960417-.3179313.7615625-.2119542.21195417-.4658083.31793125-.7615625.31793125zm-1.39-2.7505c-.25631667 0-.468275-.08379583-.635875-.2513875-.16759167-.16759167-.2513875-.37955-.2513875-.635875s.08379583-.46828333.2513875-.635875.37955-.2513875.635875-.2513875c.2563167 0 .468275.08379583.635875.2513875s.2513875.37955.2513875.635875-.0838042.46828333-.2513875.635875c-.1675917.16759167-.37955.2513875-.635875.2513875z" fill="#fff"/></g></svg>