<svg height="18" viewBox="0 0 18 18" width="18" xmlns="http://www.w3.org/2000/svg"><path d="m6.728625 17.10975-.88725-.53235 2.271375-3.868425-1.455075-.869475-1.330875 2.147175-.88725-.53235 4.06365-6.583425c-.49686-.43771-.86951-.91386-1.11795-1.42845-.24843-.5146-.372645-1.055825-.372645-1.623675 0-.44954.0443625-.86359.1330875-1.24215s.2454725-.79261.4702425-1.24215l.922725.49686c-.16562.34307-.28392.665445-.3549.967125-.07098.301665-.10647.60629-.10647.913875 0 .56785.136045 1.08245.408135 1.5438s.72754.881325 1.36635 1.259925l1.72125 1.01145c.6743.39039 1.174125.872465 1.499475 1.446225.325325.57375.4879875 1.233275.4879875 1.978575 0 .46137-.07098.928645-.21294 1.401825-.14196.4732-.33124.92275-.56784 1.34865l-.922725-.53235c.20111-.37856.3578575-.74826.4702425-1.1091.112385-.360815.1685775-.730515.1685775-1.1091 0-.44954-.076895-.86064-.230685-1.2333-.15379-.372645-.384475-.65952-.692055-.860625zm5.057325-10.78875c-.3549 0-.659525-.1271725-.913875-.3815175-.254345-.254345-.3815175-.55897-.3815175-.913875 0-.3549.1271725-.659525.3815175-.913875.254345-.254345.55897-.3815175.913875-.3815175s.65953.1271725.913875.3815175.3815175.55897.3815175.913875c0 .3549-.1271725.659525-.3815175.913875-.254345.254345-.55897.3815175-.913875.3815175zm-1.668-3.3006c-.30758 0-.56193-.100555-.76305-.301665-.20111-.20111-.301665-.45546-.301665-.76305s.100555-.56194.301665-.76305.45546-.301665.76305-.301665c.30758 0 .56193.100555.76305.301665s.301665.45546.301665.76305-.100565.56194-.301665.76305c-.20111.20111-.45546.301665-.76305.301665z" fill="#747E86"/></svg>