<svg height="18" viewBox="0 0 18 18" width="18" xmlns="http://www.w3.org/2000/svg"><g fill="none"><circle cx="9" cy="9" fill="#fff" opacity=".6" r="9"/><circle cx="9" cy="9" fill="#51ab8c" r="8.25"/><path d="m3.62025 13.00375v-1.1431875c0-.1613917.04931458-.2914021.14794375-.3900313.09862917-.0986291.22863958-.1479437.39003125-.1479437h.2689875v1.6811875zm1.39875 0v-1.6811875h2.353625l.578325-1.26425.659 1.3045625-.61866875 1.358375c-.04483333.0986292-.10983958.1703583-.19501875.2151875-.08517917.0448333-.18156667.06725-.2891625.06725zm8.55375 0v-1.6811875h.2689875c.1613917 0 .2914021.0493146.3900313.1479437.0986291.0986292.1479437.2286396.1479437.3900313v1.1431875zm-.591775 0h-2.488125c-.1075958 0-.2039833-.0224167-.2891625-.06725s-.1501854-.1165625-.1950187-.2151875l-3.79275005-8.325h1.2508125l1.53325 3.3623125 1.53325005-3.3623125h1.2508125l-2.15187505 4.747625.99525005 2.1788125h2.353625z" fill="#fff"/></g></svg>