<svg height="18" viewBox="0 0 18 18" width="18" xmlns="http://www.w3.org/2000/svg"><path d="m2.5443 14.1645v-1.371825c0-.19367.0591775-.3496825.1775325-.4680375s.2743675-.1775325.4680375-.1775325h.322785v2.017425zm1.6785 0v-2.017425h2.82435l.69399-1.5171.7908 1.565475-.7424025 1.63005c-.0538.118355-.1318075.20443-.2340225.258225-.102215.0538-.21788.0807-.346995.0807zm10.2645 0v-2.017425h.322785c.19367 0 .3496825.0591775.4680375.1775325s.1775325.2743675.1775325.4680375v1.371825zm-.71013 0h-2.98575c-.129115 0-.24478-.0269-.346995-.0807s-.1802225-.139875-.2340225-.258225l-4.5513-9.99h1.500975l1.8399 4.034775 1.8399-4.034775h1.500975l-2.58225 5.69715 1.1943 2.614575h2.82435z" fill="#51ab8c"/></svg>