<svg height="18" viewBox="0 0 24 24" width="18" xmlns="http://www.w3.org/2000/svg"><g fill="none"><circle cx="12" cy="12" fill="#fff" opacity=".6" r="12"/><circle cx="12" cy="12" fill="#AA96BC" r="11"/><path d="m5.6868 17.168h6.8678c.37773 0 .68678.30905.68678.68678s-.30905.68678-.68678.68678h-6.8678c-.37773 0-.68678-.30905-.68678-.68678s.30905-.68678.68678-.68678zm2.2252-8.8801 1.9436-1.9436 8.7427 8.7427c.53569.53569.53569 1.4079 0 1.9436s-1.4079.53569-1.9436 0zm5.8308-3.8872 1.9436 1.9436c.53569.53569.53569 1.4079 0 1.9436l-.97523.97523-3.8803-3.8872.96836-.96836c.53569-.54256 1.4079-.54256 1.9436-.0068678zm-6.7991 4.8555 3.8872 3.8872-.96836.96836c-.53569.53569-1.4079.53569-1.9436 0l-1.9436-1.9436c-.53569-.53569-.53569-1.4079 0-1.9436z" fill="#fff"/></g></svg>