<?xml version="1.0" encoding="UTF-8"?>
<svg width="18px" height="18px" viewBox="0 0 18 18" version="1.1" xmlns="http://www.w3.org/2000/svg" xmlns:xlink="http://www.w3.org/1999/xlink">
    <title>lighthouse-m</title>
    <g id="lighthouse-m" stroke="none" fill="none" fill-rule="nonzero">
        <circle id="Oval" fill="#FFFFFF" opacity="0.6" cx="9" cy="9" r="9"></circle>
        <circle id="Oval" fill="#747E86" cx="9" cy="9" r="8.25"></circle>
        <path d="M7.00594076,10.3631798 L7.42906277,6.95491516 L10.1202074,6.95491516 L10.2886485,8.31168388 L7.00594076,10.3631798 L7.00594076,10.3631798 Z M11.3336542,13.6770803 L10.9521279,13.6770803 C10.9521661,13.6749414 10.9524334,13.6728407 10.9524334,13.6707019 C10.9524334,13.6513372 10.9505238,13.6323929 10.9468571,13.6141361 L10.4706916,9.77828659 L6.81225606,12.064632 C6.80614494,12.0684514 6.79972865,12.071316 6.79346416,12.0746011 L6.59970741,13.6354194 C6.59798866,13.6493603 6.59764491,13.6632635 6.59798866,13.6770897 L6.21559014,13.6770897 C6.0573476,13.6770897 5.929135,13.8053102 5.929135,13.9635449 C5.929135,14.1217874 6.05735546,14.25 6.21559014,14.25 L11.3336442,14.25 C11.4918867,14.25 11.6200993,14.1217795 11.6200993,13.9635449 C11.6200993,13.8053023 11.4918789,13.6770504 11.3336835,13.6770504 L11.3336542,13.6770803 Z M10.1878494,5.88540301 L9.98751623,5.88540301 L9.92793327,5.42707322 L8.97832089,5.42707322 C8.95020966,5.42707322 8.92339721,5.41183353 8.89902676,5.40152105 C8.87465631,5.39120857 8.85269721,5.37153826 8.83428718,5.35309051 C8.8066348,5.32543813 8.78054757,5.287511 8.7724123,5.24771072 C8.76970057,5.23445732 8.76190889,5.21952328 8.76190889,5.20546766 L8.76190889,5.20428359 L8.76190889,4.98149475 C8.76190889,4.96743914 8.76970057,4.95368916 8.7724123,4.94043576 C8.78597134,4.87413025 8.83493617,4.81955386 8.89585562,4.79380606 C8.92022372,4.78349358 8.95020651,4.77780266 8.97831617,4.77780266 L9.84920015,4.77780266 L9.80344338,4.41121268 C9.9058846,4.36755691 9.97768303,4.26599725 9.97768303,4.1475982 C9.97768303,3.99707136 9.86153112,3.87393447 9.71402927,3.8622902 C9.58783595,3.49974664 9.24191022,3.25 8.84290959,3.25 L8.70632915,3.25 C8.3076978,3.25 7.96210992,3.4992595 7.83560232,3.86111163 L7.81975135,3.86111163 C7.66150881,3.86111163 7.53329621,3.98933209 7.53329621,4.14756678 C7.53329621,4.2796058 7.62271031,4.39044629 7.74420507,4.4236348 L7.56178615,5.88537473 L7.32322805,5.88537473 C7.16498551,5.88537473 7.03677291,6.01359519 7.03677291,6.17182987 C7.03677291,6.25494256 7.07237041,6.32956956 7.12893701,6.38189802 L10.3821019,6.38189802 C10.4386293,6.32957191 10.474266,6.25494256 10.474266,6.17182987 C10.474266,6.01358733 10.3460063,5.88537473 10.1878109,5.88537473 L10.1878494,5.88540301 Z M13.9748275,4.26023484 C13.9099355,4.20573152 13.8273571,4.18285313 13.7439773,4.19767246 L10.2316843,4.82031836 C10.0949074,4.84457174 9.99598621,4.96343593 9.99598621,5.10238137 C9.99598621,5.2413268 10.0960939,5.36018942 10.2328707,5.38444437 L13.7469709,6.00709027 C13.7636232,6.01003119 13.7804289,6.01148264 13.7970435,6.01148264 C13.8638071,6.01148264 13.9228204,5.98814619 13.9747639,5.94452813 C14.0396944,5.89010103 14.0708644,5.80973912 14.0708644,5.72502357 L14.0708644,4.47974749 C14.0708644,4.39503195 14.0398123,4.31466925 13.9748425,4.26024293 L13.9748275,4.26023484 Z" id="Shape" fill="#FFFFFF"></path>
    </g>
</svg>