<?xml version="1.0" encoding="UTF-8"?>
<svg width="12px" height="12px" viewBox="0 0 12 12" version="1.1" xmlns="http://www.w3.org/2000/svg" xmlns:xlink="http://www.w3.org/1999/xlink">
    <title>lighthouse-s</title>
    <g id="lighthouse-s" stroke="none" fill="none" fill-rule="nonzero">
        <circle id="Oval" fill="#FFFFFF" opacity="0.6" cx="6" cy="6" r="6"></circle>
        <circle id="Oval" fill="#747E86" cx="6" cy="6" r="5.25"></circle>
        <path d="M4.68524003,6.77656895 L4.95449949,4.60767328 L6.66704607,4.60767328 L6.77423585,5.47107156 L4.68524003,6.77656895 L4.68524003,6.77656895 Z M7.43923952,8.88541473 L7.19645001,8.88541473 C7.19647436,8.88405363 7.19664446,8.88271683 7.19664446,8.88135574 C7.19664446,8.86903276 7.19542921,8.85697729 7.19309586,8.84535931 L6.89008147,6.40436419 L4.56198613,7.85931128 C4.55809723,7.86174183 4.55401414,7.86356472 4.55002765,7.86565527 L4.4267279,8.85890328 C4.42563415,8.86777476 4.4254154,8.87662225 4.42563415,8.88542073 L4.18228964,8.88542073 C4.08158984,8.88542073 4,8.96701557 4,9.06771036 C4,9.16841016 4.08159484,9.25 4.18228964,9.25 L7.43923312,9.25 C7.53993292,9.25 7.62152276,9.16840516 7.62152276,9.06771036 C7.62152276,8.96701057 7.53992792,8.88539573 7.43925812,8.88539573 L7.43923952,8.88541473 Z M6.71009098,3.92707465 L6.58260623,3.92707465 L6.54468981,3.63541023 L5.94039102,3.63541023 C5.92250205,3.63541023 5.90543959,3.62571225 5.88993112,3.61914976 C5.87442265,3.61258727 5.86044868,3.6000698 5.8487332,3.58833032 C5.83113624,3.57073336 5.81453527,3.54659791 5.80935828,3.52127046 C5.80763263,3.51283647 5.80267429,3.50333299 5.80267429,3.49438851 L5.80267429,3.49363501 L5.80267429,3.3518603 C5.80267429,3.34291581 5.80763263,3.33416583 5.80935828,3.32573185 C5.81798676,3.28353743 5.8491462,3.248807 5.88791312,3.23242204 C5.90342009,3.22585955 5.92250005,3.22223806 5.94038802,3.22223806 L6.49458691,3.22223806 L6.46546897,2.98895352 C6.53065884,2.96117258 6.57634875,2.89654371 6.57634875,2.82119886 C6.57634875,2.72540905 6.5024339,2.64704921 6.40856908,2.63963922 C6.32826424,2.40892968 6.10812968,2.25 5.85422019,2.25 L5.76730537,2.25 C5.51363087,2.25 5.29371131,2.40861968 5.21320647,2.63888922 L5.20311949,2.63888922 C5.1024197,2.63888922 5.02082986,2.72048406 5.02082986,2.82117886 C5.02082986,2.90520369 5.07772974,2.97573855 5.15504459,2.99685851 L5.03895982,3.92705665 L4.88715013,3.92705665 C4.78645033,3.92705665 4.70486049,4.00865148 4.70486049,4.10934628 C4.70486049,4.16223618 4.72751344,4.20972608 4.76351037,4.24302601 L6.83370623,4.24302601 C6.86967816,4.20972758 6.89235612,4.16223618 6.89235612,4.10934628 C6.89235612,4.00864648 6.81073628,3.92705665 6.71006648,3.92705665 L6.71009098,3.92707465 Z M9.11998616,2.89287671 C9.07869124,2.85819278 9.02614135,2.84363381 8.97308145,2.85306429 L6.73798592,3.2492935 C6.6509461,3.26472747 6.58799622,3.34036832 6.58799622,3.42878814 C6.58799622,3.51720797 6.6517011,3.59284781 6.73874092,3.60828278 L8.97498645,4.00451199 C8.98558343,4.00638349 8.99627791,4.00730714 9.00685089,4.00730714 C9.0493368,4.00730714 9.08689073,3.99245667 9.11994566,3.96469972 C9.16126508,3.93006429 9.18110054,3.87892489 9.18110054,3.825015 L9.18110054,3.03256658 C9.18110054,2.97865669 9.16134008,2.92751679 9.11999566,2.89288186 L9.11998616,2.89287671 Z" id="Shape" fill="#FFFFFF"></path>
    </g>
</svg>