<svg height="18" viewBox="0 0 18 18" width="18" xmlns="http://www.w3.org/2000/svg"><path d="m9.4386 9.1886-.29526 5.938c-.01093333.1749733-.07928.3226033-.20504.44289-.12576.1202933-.29799667.18044-.51671.18044-.17496667 0-.32533-.0601467-.45109-.18044s-.19410667-.2679233-.20504-.44289l-.29526-5.2819-2.0832-1.1974-.22965.85298 1.0006 1.7552c.08748667.1531.10662333.3171333.05741.4921-.04920667.1749667-.15036.3061933-.30346.39368s-.31713333.1093567-.4921.06561c-.17496667-.04374-.30619333-.14216-.39368-.29526l-1.1482-1.9848c-.04374-.07654667-.07108-.15856333-.08202-.24605-.01093333-.08748667-.00546667-.17497.0164-.26245l.70535-2.5589 3.7728-2.1652-1.3451-1.3451c-.12029333-.12029333-.18317333-.27065667-.18864-.45109-.00546667-.18044.05741333-.33627333.18864-.4675.12029333-.12029333.27339333-.18044.4593-.18044s.33900667.06014667.4593.18044l1.952 1.9356c.1531.1531.21598.33627.18864.54951-.02734.21324667-.13396333.37454667-.31987.4839l-1.6239.93499.78736.68894 4.921-4.0188c.1202933-.10935333.26519-.15583.43469-.13943.1695.01640333.3198633.10115333.45109.25425.09842.12029333.1448967.25698667.13943.41008-.0054667.1531-.06288.28979667-.17224.41009zm-4.921-3.2807c-.36087333 0-.66980333-.12849333-.92679-.38548s-.38548-.56591667-.38548-.92679.12849333-.66980333.38548-.92679.56591667-.38548.92679-.38548.66980333.12849333.92679.38548.38548.56591667.38548.92679-.12849333.66980333-.38548.92679-.56591667.38548-.92679.38548z" fill="#51ab8c"/></svg>