<svg height="18" viewBox="0 0 18 18" width="18" xmlns="http://www.w3.org/2000/svg"><g fill="none"><circle cx="9" cy="9" fill="#fff" opacity=".6" r="9"/><circle cx="9" cy="9" fill="#51ab8c" r="8.25"/><path d="m9.5655 9.65716667-.24605 4.94833333c-.00911111.1458111-.06606667.2688361-.17086667.369075-.1048.1002444-.24833055.1503667-.43059166.1503667-.14580556 0-.27110834-.0501223-.37590834-.1503667s-.16175555-.2232694-.17086666-.369075l-.24605-4.4015833-1.736-.99783337-.191375.71081667.83383333 1.4626667c.07290556.1275833.08885278.2642777.04784167.4100833-.04100556.1458056-.1253.2551611-.25288334.3280667-.12758333.0729055-.26427777.0911305-.41008333.054675-.14580556-.03645-.25516111-.1184667-.32806667-.24605l-.95683333-1.654c-.03645-.0637889-.05923333-.1321361-.06835-.2050417-.00911111-.07290556-.00455556-.14580833.01366667-.21870833l.58779166-2.13241667 3.144-1.80433333-1.12091666-1.12091667c-.10024445-.10024444-.15264445-.22554722-.1572-.37590833-.00455556-.15036667.04784444-.28022778.1572-.38958334.10024444-.10024444.22782777-.15036666.38275-.15036666.15492222 0 .28250555.05012222.38275.15036666l1.62666666 1.613c.12758337.12758334.17998337.280225.15719997.457925-.0227833.17770556-.11163608.31212223-.2665583.40325l-1.35325.77915834.65613333.57411666 4.10083337-3.349c.1002444-.09112777.2209916-.12985833.3622416-.11619166.14125.01366944.2665528.08429444.3759084.211875.0820166.10024444.1207472.21415555.1161916.34173333-.0045555.12758333-.0524.24149722-.1435333.34174167zm-4.10083333-2.73391667c-.30072778 0-.55816945-.10707778-.772325-.32123333-.21415556-.21415556-.32123334-.47159723-.32123334-.772325 0-.30072778.10707778-.55816945.32123334-.772325.21415555-.21415556.47159722-.32123334.772325-.32123334.30072777 0 .55816944.10707778.772325.32123334.21415555.21415555.32123333.47159722.32123333.772325 0 .30072777-.10707778.55816944-.32123333.772325-.21415556.21415555-.47159723.32123333-.772325.32123333z" fill="#fff"/></g></svg>