<svg height="18" viewBox="0 0 24 24" width="18" xmlns="http://www.w3.org/2000/svg"><g fill="none"><circle cx="12" cy="12" fill="#fff" opacity=".6" r="12"/><circle cx="12" cy="12" fill="#AA96BC" r="11"/><path d="m4.8393016 8.1229641.018198 2.1276649 2.6206275-.03546.018198 6.400728h-2.6388247l.036398 2.021282 7.2977196-.01772-.01819-2.056744-2.6752241-.03546.0182-6.418459 2.5842311.01773-.01819-1.9503594zm.8086105 7.9060379h1.2096387v-.764781zm4.5554489-5.253167 2.406409.05015 3.899154-2.469866.0386 4.03704 1.132428.02508-5.263215 3.610768h-2.264852zm8.30018 1.868071.05148 1.25374-5.623533 4.3254-.09008-1.855535zm-5.700745-4.6639088.09008 1.9056827 5.662139-3.422707-.02574-1.3289634zm-6.7259759-.4598717 6.5697679.0531916 4.913677-2.6241211-4.895477-.0531916z" fill="#fff" stroke-width="1.08707"/></g></svg>