<svg height="18" viewBox="0 0 24 24" width="18" xmlns="http://www.w3.org/2000/svg"><g fill="none"><circle cx="12" cy="12" fill="#fff" opacity=".6" r="12"/><circle cx="12" cy="12" fill="#AA96BC" r="11"/><path d="m5.7595 17.085 1.3497 1.3666 4.9051-4.8838 4.8909 4.9205 1.4221-1.4347-4.9323-4.9148 2.5567-2.5098 2.5256 2.6017.36018-3.7884-.85764-.87215.2239-.23261-1.3817-1.3775-.26713.28171-1.6405-1.6448-2.129 2.1178 1.6472 1.6551-2.3981 2.4121-2.2711-2.2099 1.8381-1.8308-2.0878-2.0729-1.8191 1.8128-.19464-.2148-1.4079 1.4073.19381.20055-1.7855 1.7692 2.1041 2.0949 1.8021-1.806 2.2164 2.2599z" fill="#fff" fill-rule="evenodd"/></g></svg>