<svg height="18" viewBox="0 0 24 24" width="18" xmlns="http://www.w3.org/2000/svg"><path d="m12 24c6.6274 0 12-5.3726 12-12s-5.3726-12-12-12-12 5.3726-12 12 5.3726 12 12 12z" fill="#fff" opacity=".6"/><path d="m12 23c6.0751 0 11-4.9249 11-11s-4.9248-11-11-11c-6.0751 0-11 4.9248-11 11s4.9248 11 11 11z" fill="#AA96BC"/><g fill="#fff"><path d="m5.0001 16.197c0 .46421.38683.85108.85105.85108h5.1664v1.7278c0 .47284.38686.85108.85108.85108h.0086c.47273 0 .85108-.38686.85108-.85108v-1.7278h5.1664c.47284 0 .85108-.38686.85108-.85108 0-.47285-.38686-.85108-.85108-.85108h-12.044c-.46421-.0085-.85115.37823-.85115.85108z"/><path d="m17.445 9.0834c-.1225 0-.245.020417-.36073.034066l-1.402-1.3951h1.0821c.37426 0 .68051-.30625.68051-.68055v-.25861c0-.50361-.53083-.83708-.98676-.60569l-1.5517.77583-1.749-1.749c-.1225-.1293-.29948-.20416-.47634-.20416h-2.0416c-.37438 0-.68063.30625-.68063.68055s.30625.68055.68063.68055h1.4768c.18375 0 .35385.074864.48311.19736l1.1637 1.1637h-2.2799c-.10885 0-.21093.027218-.30625.074864l-2.1369 1.0684c-.25861.12938-.57846.081666-.78263-.12927l-.81666-.81666c-.1293-.1225-.30625-.19736-.48319-.19736h-2.4432c-.3743 0-.68055.30625-.68055.68055 0 .37431.30625.68056.68055.68056h2.0416c-1.715 0-3.0557 1.5788-2.6474 3.362.22458.98676 1.0208 1.783 2.0076 2.0076 1.783.40833 3.362-.93239 3.362-2.6474l.95954.95957c.25865.25865.60573.40156.96646.40156h.68728c.49 0 .93916-.25865 1.1842-.68739l1.9804-3.464.68739.68739c-.76906.61926-1.1978 1.6401-.93916 2.7562.23135.97999 1.0276 1.7762 2.0076 2.0008 1.7762.40145 3.3551-.94604 3.3551-2.6541 0-1.5041-1.2179-2.7222-2.7218-2.7222zm-10.889 4.0833c-.74861 0-1.3611-.61249-1.3611-1.3611s.61249-1.3611 1.3611-1.3611 1.3611.61249 1.3611 1.3611-.61249 1.3611-1.3611 1.3611zm10.889 0c-.74864 0-1.3611-.61249-1.3611-1.3611s.61249-1.3611 1.3611-1.3611c.74853 0 1.3611.61249 1.3611 1.3611s-.61249 1.3611-1.3611 1.3611z"/></g></svg>