<svg height="18" viewBox="0 0 24 24" width="18" xmlns="http://www.w3.org/2000/svg"><g fill="none"><circle cx="12" cy="12" fill="#fff" opacity=".6" r="12"/><circle cx="12" cy="12" fill="#BE75A3" r="11"/><g fill="#fff"><path d="m9.0974 3.7509c-.324-.90257-1.1803-1.5429-2.1831-1.5429-1.2806 0-2.3143 1.0337-2.3143 2.3143 0 1.2729 1.0337 2.3143 2.3143 2.3143 1.0029 0 1.8591-.648 2.1831-1.5429h3.9883v1.5429h1.5429v-1.5429h.77142v-1.5429zm-2.1831 1.5429c-.42429 0-.77143-.34714-.77143-.77143s.34714-.77143.77143-.77143.77143.34714.77143.77143-.34714.77143-.77143.77143z" transform="translate(2 2)"/><path d="m16.667 11.5c-.105 0-.21.0175-.30917.029167l-1.2017-1.1958h.9275c.32083 0 .58333-.2625.58333-.58333v-.22167c0-.43167-.455-.7175-.84583-.51917l-1.33.665-1.4992-1.4992c-.105-.11083-.25667-.175-.40833-.175h-1.75c-.32083 0-.58333.2625-.58333.58333s.2625.58333.58333.58333h1.2658c.1575 0 .30333.064167.41417.16917l.9975.9975h-1.9542c-.093333 0-.18083.023333-.2625.064167l-1.8317.91583c-.22167.11083-.49583.07-.67083-.11083l-.7-.7c-.11083-.105-.2625-.16917-.41417-.16917h-2.0942c-.32083 0-.58333.2625-.58333.58333s.2625.58333.58333.58333h1.75c-1.47 0-2.6192 1.3533-2.2692 2.8817.1925.84583.875 1.5283 1.7208 1.7208 1.5283.35 2.8817-.79917 2.8817-2.2692l.8225.8225c.22167.22167.51917.34417.82833.34417h.58917c.42 0 .805-.22167 1.015-.58917l1.6975-2.9692.58917.58917c-.65917.53083-1.0267 1.4058-.805 2.3625.19833.84.88083 1.5225 1.7208 1.715 1.5225.34417 2.8758-.81083 2.8758-2.275 0-1.2892-1.0442-2.3333-2.3333-2.3333zm-9.3333 3.5c-.64167 0-1.1667-.525-1.1667-1.1667 0-.64167.525-1.1667 1.1667-1.1667.64167 0 1.1667.525 1.1667 1.1667 0 .64167-.525 1.1667-1.1667 1.1667zm9.3333 0c-.64167 0-1.1667-.525-1.1667-1.1667 0-.64167.525-1.1667 1.1667-1.1667.64167 0 1.1667.525 1.1667 1.1667 0 .64167-.525 1.1667-1.1667 1.1667z" transform="translate(0 2)"/></g></g></svg>