<svg height="18" viewBox="0 0 24 24" width="18" xmlns="http://www.w3.org/2000/svg"><g fill="none"><circle cx="12" cy="12" fill="#fff" opacity=".6" r="12"/><circle cx="12" cy="12" fill="#AA96BC" r="11"/><path d="m10.6 15.1v-.7h-4.893l-.007 2.8c0 .777.623 1.4 1.4 1.4h9.8c.777 0 1.4-.623 1.4-1.4v-2.8h-4.9v.7zm7-6.3h-2.807v-1.4l-1.4-1.4h-2.8l-1.4 1.4v1.4h-2.793c-.77 0-1.4.63-1.4 1.4v2.1c0 .777.623 1.4 1.4 1.4h4.2v-1.4h2.8v1.4h4.2c.77 0 1.4-.63 1.4-1.4v-2.1c0-.77-.63-1.4-1.4-1.4zm-4.2 0h-2.8v-1.4h2.8z" fill="#fff"/></g></svg>