<svg height="18" viewBox="0 0 18 18" width="18" xmlns="http://www.w3.org/2000/svg"><path d="m12.7307133 10.8403335c.6259596 0 1.2580331.239342 1.7366979.7180067.9573392.9634821.9573392 2.5160567 0 3.4733959-.4787033.4786647-1.1107383.7179971-1.7366979.7179971s-1.2580331-.2393324-1.7366979-.7179971c-.9573392-.9634821-.9573392-2.5160567 0-3.4733959.4787033-.4786744 1.110748-.7180067 1.7366979-.7180067zm0 1.2273282c-.3252463 0-.6382261.1288757-.8652823.3559319-.4786648.4787034-.4786648 1.2580332 0 1.736698.2270562.2331991.540036.3620748.8652823.3620748s.6382165-.1288757.8652823-.3559319c.4786648-.4787034.4786648-1.2580332 0-1.7366979-.2270562-.2331992-.540036-.3620749-.8652823-.3620749zm-1.0110858-10.3095942c.48561.28278.7899.5249175 1.3575 1.080375.6745275.659865 1.03695 1.125975 1.321875 1.699575.55143 1.11015.466605 2.1084-.2634375 3.100125-.1828575.2484075-.9462.99-1.308825 1.27155-.6662625.517275-1.2357.859575-1.8564 1.11585-.24268.1002-.7217807.2510311-.9126392.2903653l-.0570358.0092072c-.02552118.0021-.62071059.1655134-1.40721124.3858616l-2.40736376.6782459-2.519175 2.590575-1.54605-1.493325 2.58186-2.6329725.9487275-3.8382c.2197425-1.1376.8952-2.32335 1.995975-3.503775.6192225-.6640125.96555-.918375 1.52175-1.11765.819525-.293625 1.6161-.17988 2.55045.3641925zm-1.513335 5.85792-.59799.6098025.6098025.5979825.59799-.6098025zm-1.219575-1.19595-.59799.6098025.6098025.5979825.59799-.6098025zm2.41545-.0237-.59799.6098025.60981.59799.5979825-.60981zm-3.635025-1.17225-.59799.6098025.6098025.5979825.59799-.6098025zm2.41545-.0237-.59799.60981.6098025.5979825.59799-.60981zm2.41545-.0237-.59799.6098025.6098025.5979825.59799-.6098025zm-3.635025-1.17225-.59799.6098025.60981.59799.5979825-.60981zm2.41545-.0237-.5979825.6098025.6098025.5979825.5979825-.6098025zm-1.219575-1.19595-.59799.6098025.6098025.5979825.59799-.6098025z" fill="#747E86"/></svg>