<svg height="18" viewBox="0 0 18 18" width="18" xmlns="http://www.w3.org/2000/svg"><g fill="none"><circle cx="9" cy="9" fill="#fff" opacity=".6" r="9"/><circle cx="9" cy="9" fill="#51ab8c" r="8.25"/><path d="m12.1089277 10.5336112c.521633 0 1.048361.1994517 1.4472483.598339.7977827.8029017.7977827 2.0967139 0 2.8944965-.3989194.3988873-.9256153.598331-1.4472483.598331-.5216329 0-1.0483609-.1994437-1.4472482-.598331-.79778266-.8029017-.79778266-2.0967138 0-2.8944965.3989194-.3988953.9256233-.598339 1.4472482-.598339zm0 1.0227736c-.2710386 0-.531855.1073964-.7210686.2966099-.3988873.3989195-.3988873 1.048361 0 1.4472483.1892136.1943326.45003.301729.7210686.301729.2710387 0 .5318471-.1073964.7210687-.2966099.3988873-.3989195.3988873-1.048361 0-1.4472483-.1892136-.1943326-.45003-.301729-.7210687-.301729zm-.8425715-8.59132855c.4046751.23565.65825.43743125 1.13125.9003125.5621063.5498875.864125.9383125 1.1015625 1.4163125.4595251.925125.3888375 1.757-.2195312 2.5834375-.1523813.20700625-.7885.825-1.0906875 1.059625-.5552188.4310625-1.02975.7163125-1.547.929875-.2022333.0835-.601484.20919255-.76053265.24197105l-.04752985.0076727c-.02126765.00175-.51725882.1379279-1.17267603.3215513l-2.00613647.565205-2.0993125 2.1588125-1.288375-1.2444375 2.15155-2.1941438.79060625-3.1985c.18311875-.948.746-1.936125 1.6633125-2.9198125.51601875-.55334375.804625-.7653125 1.268125-.931375.6829375-.2446875 1.34674995-.1499 2.12537495.30349375zm-1.2611125 4.8816-.49832495.50816875.50816875.49831875.498325-.50816875zm-1.01631245-.996625-.498325.50816875.50816875.49831875.498325-.50816875zm2.01287495-.01975-.4983249.50816875.5081749.498325.4983188-.508175zm-3.02918745-.976875-.498325.50816875.50816875.49831875.498325-.50816875zm2.012875-.01975-.498325.508175.50816875.49831875.498325-.508175zm2.01287495-.01975-.498325.50816875.5081688.49831875.498325-.50816875zm-3.02918745-.976875-.498325.50816875.508175.498325.49831875-.508175zm2.01287495-.01975-.4983187.50816875.5081687.49831875.4983188-.50816875zm-1.01631245-.996625-.498325.50816875.50816875.49831875.498325-.50816875z" fill="#fff"/></g></svg>