<svg height="18" viewBox="0 0 24 24" width="18" xmlns="http://www.w3.org/2000/svg"><circle cx="12" cy="12" fill="#fff" opacity=".6" r="12"/><circle cx="12" cy="12" fill="#AA96BC" r="11"/><path d="m9.0946 5.5957c-.80117 0-1.4527.65155-1.4527 1.4527v2.1791c0 .80118.65155 1.4527 1.4527 1.4527h7.99c.80117 0 1.4527-.65155 1.4527-1.4527v-2.1791c0-.80117-.65155-1.4527-1.4527-1.4527zm-2.1791 2.1791c-.80117 0-1.4527.65155-1.4527 1.4527v2.9054c0 .80117.65155 1.4527 1.4527 1.4527h5.0845v1.4527a.72636.72636 0 0 0 -.72636.72636v3.6318a.72636.72636 0 0 0 .72636.72636h1.4527a.72636.72636 0 0 0 .72636-.72636v-3.6318a.72636.72636 0 0 0 -.72636-.72636v-1.4527c0-.80117-.65155-1.4527-1.4527-1.4527h-5.0845z" fill="#fff"/></svg>