<svg height="18" viewBox="0 0 18 18" width="18" xmlns="http://www.w3.org/2000/svg"><g fill="none"><circle cx="9" cy="9" fill="#fff" opacity=".6" r="9"/><circle cx="9" cy="9" fill="#51ab8c" r="8.25"/><path d="m12.10875 10.6335c.521625 0 1.0483625.19945 1.44725.5983375.7978125.802875.7978125 2.0966875 0 2.8945-.3989375.3988875-.9256188.5983313-1.44725.5983313-.521625 0-1.0483625-.1994438-1.44725-.5983313-.7978125-.802875-.7978125-2.0966875 0-2.8945.3989375-.3988937.925625-.5983375 1.44725-.5983375zm0 1.02275c-.2710313 0-.53185.1074-.7210625.2966125-.3988875.3989375-.3988875 1.0483625 0 1.44725.1892062.1943375.450025.3017313.7210625.3017313.2710312 0 .5318437-.1074.7210625-.2966125.3988875-.3989375.3988875-1.0483625 0-1.44725-.1892063-.1943375-.450025-.3017313-.7210625-.3017313zm-.2535063-8.4869375c.5505375.06848125.982875.2741125 1.3443125.6394375.3389876.3425875.5382188.748125.6165375 1.2550625.0343813.222525-.0061249.8413125-.0704625 1.0760625-.0999562.36484375-.2602.70875-.4780999 1.026125-.2139102.31152734-.580419.66636035-.918501.89624396l-.1595798.09969081-1.5522653.78145744-2.40296645 1.20473279-.16541789.1043584c-.17336181.1213663-.3694.3054568-.90054643.8456634l-1.44370912 1.4766121-.1335868.1329907c-.38429022.3778415-.41836907.3598582-.60861476.3873754-.09461875.0136875-.1795375.0152813-.2255125.0041875-.1701875-.0409375-.2436375-.09385-.573925-.4134562l-.19923502-.1956808c-.28349303-.2848507-.48703203-.5286772-.46432748-.7043817.03037875-.2350625.1843375-.4040125.4649125-.43425.2152875-.0232.47521875.2341812.5115375.2132437l.03441897-.0295208c.0272336-.0252157.06893801-.0655452.12256916-.1184281l.41442469-.4167798 1.10610286-1.1423534c.54960129-.57663754.64085389-.70256736.78010932-.9596054l.17830882-.37164261c.07554033-.16110971.16699345-.35819262.25995368-.56060739l.24378255-.5458316c.3759961-.85513889.62866537-1.48150173 1.18121745-2.5409809.18959375-.35155.61019375-.8380625.9335625-1.07975.30475625-.2278375.67699995-.41494375 1.06449995-.53501875.2434438-.07544375.7936875-.1256625 1.0405-.09495625z" fill="#fff"/></g></svg>