<svg height="18" viewBox="0 0 18 18" width="18" xmlns="http://www.w3.org/2000/svg"><path d="m12.7305 10.8402c.62595 0 1.258035.23934 1.7367.718005.957375.96345.957375 2.516025 0 3.4734-.478725.478665-1.1107425.7179975-1.7367.7179975-.62595 0-1.258035-.2393325-1.7367-.7179975-.957375-.96345-.957375-2.516025 0-3.4734.478725-.4786725 1.11075-.718005 1.7367-.718005zm0 1.2273c-.3252375 0-.63822.12888-.865275.355935-.478665.478725-.478665 1.258035 0 1.7367.2270475.233205.54003.3620775.865275.3620775.3252375 0 .6382125-.12888.865275-.355935.478665-.478725.478665-1.258035 0-1.7367-.2270475-.233205-.54003-.3620775-.865275-.3620775zm-.3042075-10.184325c.660645.0821775 1.17945.328935 1.613175.767325.406785.411105.6458625.89775.739845 1.506075.0412575.26703-.00735 1.009575-.084555 1.291275-.1199475.4378125-.31224.8505-.57372 1.23135-.2566922.37383281-.6965027.79963242-1.1022011 1.07549275l-.1914958.11962898-1.8627183.93774893-2.8835598 1.44567934-.19850147.1252301c-.20803417.1456396-.44328.3665481-1.08065571 1.014796l-1.73245095 1.7719346-.16030416.1595889c-.46114826.4534097-.50204288.4318297-.73033771.4648504-.1135425.016425-.215445.0183375-.270615.005025-.204225-.049125-.292365-.11262-.68871-.4961475l-.23908202-.2348169c-.34019164-.3418208-.58443843-.6344126-.55719298-.8452581.0364545-.282075.221205-.484815.557895-.5211.258345-.02784.5702625.2810175.613845.2558925l.04130277-.035425c.03268031-.0302588.08272561-.0786542.14708299-.1421137l.49730963-.5001357 1.32732342-1.37082412c.65952155-.69196504.76902467-.84308083.93613119-1.15152648l.21397059-.44597113c.09064839-.19333166.20039214-.42983114.31194441-.67272887l.29253906-.65499792c.45119531-1.02616666.75439844-1.77780208 1.41746094-3.04917708.2275125-.42186.7322325-1.005675 1.120275-1.2957.3657075-.273405.8124-.4979325 1.2774-.6420225.2921325-.0905325.952425-.150795 1.2486-.1139475z" fill="#747E86"/></svg>