<svg height="18" viewBox="0 0 24 24" width="18" xmlns="http://www.w3.org/2000/svg"><circle cx="12" cy="12" fill="#fff" opacity=".6" r="12"/><circle cx="12" cy="12" fill="#EB785D" r="11"/><path d="m7.0781 5.9961c-.10394 0-.22223.00669-.32617.013672-.86615.083803-1.3858.39146-1.6699.62891l-.20703.17383-.26367-.13281c-.18016-.090787-.42205-.12476-.69922-.089844-.27024.027934-.51357.097304-.66602.16016-.083151.027934-.13849.097837-.15234.18164-.013858.083803.021621.16874.083984.22461.048505.041902.096027.075286.14453.11719.15244.11872.69427.50261 1.207.65625l.2832.083984.068359.20312c.11087.33521.29938.83868.54883 1.3555.27717.57266.57509 1.0111.87305 1.3184.29796.30728.59569.46094.88672.46094.020788-.007.040643-.0059.068359-.0059.31875-.027893.61081-.23808.86719-.61519.23559-.3422.44307-.81572.60938-1.4023.1663-.57964.25618-1.1396.30469-1.5098l.027344-.22266.22266-.10547c.45733-.21649.91466-.68449 1.0879-.87305.05543-.055869.10384-.11796.15234-.17383.05543-.062852.06873-.15448.04102-.23828-.027721-.083803-.096541-.13838-.17969-.15234-.22866-.034918-.47767-.050248-.68555-.029297-.32567.034918-.58282.13347-.74219.28711l-.22852.22266-.26367-.16602c-.38804-.24443-.86596-.37109-1.3926-.37109zm5.834 2.0039c-.38804 0-.75371.12696-1.0586.35742l-.1875.13867-.21484-.089844c-.21481-.090787-.43628-.13281-.67188-.13281-.31182 0-.60974.083813-.87305.23047l-.0625.035156c-.062363.034918-.10528.09032-.11914.16016-.055434.29331-.12495.57837-.20117.84375-.19402.67741-.43465 1.2294-.71875 1.6484-.4019.58662-.89469.90898-1.4629.96484h-.013672c-.083151.007-.15285.05516-.1875.125-.034646.06984-.034646.15365 0 .23047.13858.24443.34039.4616.58984.61523l.20703.125-.013672.24414v.07813c0 .53774.27049 1.0317.70703 1.332v2.5156c0 .26538.2152.48047.47852.48047.26331 0 .47656-.21509.47656-.48047v-1.9902c.21481.31426.52054.54451.88086.65625v2.4512c0 .26538.2152.48242.47852.48242.26331 0 .47852-.21704.47852-.48242v-2.3965c.11087-.02793.22028-.06161.32422-.10352l.20898-.0918.1875.13281c.29796.20951.64359.31445 1.0039.31445.30489 0 .60192-.076.86524-.22266l.20117-.11328.20117.11328c.24252.13967.52059.21567.80469.22266v1.0469c0 .26538.2152.48242.47852.48242s.47656-.21704.47656-.48242v-1.2988c.13166-.07682.25739-.17342.36133-.28516l.11719-.12695h.17383c.04158 0 .08928.0011.13086-.0059v2.8145c0 .26538.2152.48242.47852.48242s.47852-.21704.47852-.48242v-3.1914c.38111-.30728.62305-.76949.62305-1.2793 0-.28633-.07607-.57281-.22852-.82422l-.125-.20898.125-.20898c.14551-.25141.22852-.53789.22852-.82422 0-.3841-.13141-.74072-.38086-1.041l-.13867-.16797.02148-.06836c.37418.29331.81658.58694 1.0938.44727.09701-.04889.17982-.14744.24219-.28711.09008-.23046.09027-.43922-.01367-.63476-.20787-.38406-.81001-.61615-1.3574-.75582-.25638-.60059-.87223-1.0195-1.5859-1.0195-.09008 0-.18815.00752-.28516.021484l-.17969.027344-.13867-.11719c-.31182-.26538-.71315-.40625-1.1289-.40625-.24945 0-.49204.049543-.7207.1543l-.16797.076172-.16602-.076172c-.22866-.09777-.47125-.1543-.7207-.1543z" fill="#fff"/></svg>