<svg height="18" viewBox="0 0 24 24" width="18" xmlns="http://www.w3.org/2000/svg"><path d="m11.595 3c-1.109 0-2.008.84822-2.008 1.8947 0 1.0465.89899 1.8947 2.008 1.8947 1.109 0 2.008-.84822 2.008-1.8947 0-1.0465-.89899-1.8947-2.008-1.8947zm-5.7729 3.7894.502 1.8948c.25099.94735.85053.94735 1.6001.94735h1.6628c.59612.94735.31592 2.4875.502 3.9352h-.90987c-1.004 0-2.6041.94735-1.6001 2.8421l1.506 2.8422c1.004 1.8947 2.5099.47368 2.008-.47368l-1.506-2.8422c-.25099-.47368.26536-.47368.502-.47368h2.4778s1.1885 2.3436 2.5884 4.0497c.51677.62972 1.0892 1.4887 1.8057 1.4887.50198 0 1.3622-.73205.44668-1.763-1.7145-1.9307-2.8006-3.9212-2.8006-4.8686 0-1.1019-.20515-3.4225-.50198-4.7368h1.506c.48994.92658 1.3499 2.3684 1.3499 2.3684.55494.90706 1.4674.83852 1.4674 0 0-.11492-.01467-.36235-.14013-.64122l-1.4222-3.1482c-.09288-.20548-.25442-.47368-1.004-.47368h-7.7809l-.75299-2.3685c-.30119-.94735-1.757-.94735-1.757 0 0 .47368.17786 1.0488.25099 1.421z" fill="#51ab8c"/></svg>