<svg height="18" viewBox="0 0 24 24" width="18" xmlns="http://www.w3.org/2000/svg"><circle cx="12" cy="12" fill="#fff" opacity=".6" r="12"/><circle cx="12" cy="12" fill="#AA96BC" r="11"/><path d="m9.0215 4.6055h.17578c.63524 0 1.1055.45379 1.1055.99414v6.3984c0 .54035-.47022.99414-1.1055.99414h-.17578c-.63524 0-1.1055-.45379-1.1055-.99414v-6.3984c0-.54035.47022-.99414 1.1055-.99414zm3.0898 9.0918h6.1777c.63524 0 1.1035.45379 1.1035.99414v.39844c0 .54035-.46827.99414-1.1035.99414h-6.1777c-.63524 0-1.1055-.45379-1.1055-.99414v-.39844c0-.54035.47022-.99414 1.1055-.99414zm-6.5117-8.0977v6.4004h1.5098v-6.4004zm5.5098 0v6.3984c0 .004.000027.0078 0 .01172a1.0206 1.0206 0 0 1 .87305.88672c.04298-.0028.08531-.0059.12891-.0059h6.1777c.03767 0 .07412.0038.11133.0059v-2.3066c0-2.7556-2.2327-4.9902-4.9883-4.9902zm.89062 11.285v1.5156h6.4004v-1.5156c-.03721.0021-.07366.0059-.11133.0059h-6.1777c-.03767 0-.07412-.0038-.11133-.0059z" fill="#fff"/></svg>