<svg height="18" viewBox="0 0 19 18" width="19" xmlns="http://www.w3.org/2000/svg"><g fill="none" transform="translate(.4181)"><circle cx="9" cy="9" fill="#fff" opacity=".6" r="9"/><circle cx="9" cy="9" fill="#747e86" r="8.25"/><path d="m10.45 4.75c.1656854 0 .3.13431458.3.3v7.9c0 .1656854-.1343146.3-.3.3h-5.9c-.16568542 0-.3-.1343146-.3-.3v-7.9c0-.16568542.13431458-.3.3-.3zm3.3 7.0016965-.6605573 1.3211146c-.0096764.0193527-.0253686.035045-.0447213.0447213-.0493979.0246989-.1094652.0046765-.1341641-.0447213l-.6605573-1.3211146zm-4.00000021-.0016965h-4.5v.5h4.5zm3.80000021-6.9983035c.1104569 0 .2.08954305.2.2v6.3h-1.5v-6.3c0-.11045695.0895431-.2.2-.2zm-3.80000021 5.4983035h-4.5v.5h4.5zm0-1.5h-4.5v.5h4.5zm0-1.5h-4.5v.5h4.5zm0-1.5h-4.5v.5h4.5z" fill="#fff" fill-rule="evenodd"/></g></svg>