<svg height="18" viewBox="0 0 24 24" width="18" xmlns="http://www.w3.org/2000/svg"><circle cx="12" cy="12" fill="#fff" opacity=".6" r="12"/><circle cx="12" cy="12" fill="#0797b8" r="11"/><g fill="#fff"><path d="m5.9316 17.09c-.943 0-1.5048.5205-1.9746.85156-.40228.28349-.71292.43683-.85742.47852a11 11 0 0 0 1.3828 1.5781c.23481-.14128.44324-.29241.62695-.42188.48213-.33976.84217-.48633.82227-.48633-.019918 0 .3373.14324.79883.47656s1.0277.85742 1.9707.85742c.943-.000013 1.5045-.51978 1.9727-.84766.46817-.32787.82081-.48633.91211-.48633.091299.000001.54727.18704 1.0938.52148.54648.33444 1.18.81299 2.1211.82812.94109.01509 1.5744-.47679 2.0664-.80078.49202-.32399.84722-.48242.94922-.48242.10199.000002.55774.1859 1.1074.50977.18097.10663.37435.22728.58398.3418a11 11 0 0 0 1.3984-1.5977c-.18907-.060699-.54714-.21954-.9668-.4668-.54644-.32196-1.1865-.7871-2.123-.78711-.9365 0-1.5621.49068-2.0508.8125-.48873.32182-.83618.47226-.93359.4707-.09733-.0016-.55973-.19682-1.1094-.5332-.54964-.33638-1.1895-.81639-2.1367-.81641-.9472 0-1.5749.50889-2.0586.84766-.48373.33877-.84609.48633-.82617.48633.019902 0-.3373-.1452-.79883-.47852-.46152-.33332-1.0277-.85546-1.9707-.85547z"/><path d="m12 3.2847c-1.2926 0-2.3379 1.0475-2.3379 2.3398.0002482 1.2913 1.0456 2.3398 2.3379 2.3398 1.2911 0 2.3379-1.0485 2.3379-2.3398 0-1.2926-1.0468-2.3398-2.3379-2.3398zm-2.584 5.2793c-1.6559 0-3.0098 1.3424-3.0098 2.9961v4.5586c1.066.13059 1.6293.67608 2.0332.97852v-4.8242h.52148s.00267 3.0451.00391 4.8379c.49189-.34641 1.2552-1.0215 2.6211-1.0215 1.3751.000017 2.1089.62555 2.6602.96289.25145.15389.45709.24341.58594.30078.05212-.02549.11758-.06272.19922-.10938v-4.9707h.52734v4.627c.4514-.30797 1.0843-.67658 2.0352-.73047v-4.6094c0-1.6537-1.3553-2.9961-3.0098-2.9961z"/></g></svg>