<?xml version="1.0" encoding="UTF-8"?>
<svg width="18px" height="18px" viewBox="0 0 18 18" version="1.1" xmlns="http://www.w3.org/2000/svg" xmlns:xlink="http://www.w3.org/1999/xlink">
    <title>recycling-centre-m</title>
    <g id="recycling-centre-m" stroke="none" fill="none" fill-rule="nonzero">
        <circle id="Oval" fill="#FFFFFF" opacity="0.6" cx="9" cy="9" r="9"></circle>
        <circle id="Oval" fill="#747E86" cx="9" cy="9" r="8.25"></circle>
        <path d="M6.1353,6.5751025 L6.8502975,5.3901025 L7.3653,4.5351025 C7.5603,4.210105 8.0303025,4.210105 8.225325,4.5351025 L8.9653275,5.7651025 L8.3503275,6.7950775 L7.850325,7.6050775 L6.1353,6.5751025 Z M14.11005,9.4851025 L13.310025,8.1551275 L11.58,9.1551025 L12.684975,11.0001025 L13.2499725,11.0001025 C13.629975,11.0001025 13.974975,10.7851 14.1449475,10.4451025 C14.2149472,10.3051 14.2499475,10.1551 14.2499475,10.000105 C14.2499475,9.820105 14.1999472,9.6451075 14.109945,9.4851025 L14.11005,9.4851025 Z M11.250075,13.5000775 L12.000075,13.5000775 C12.3800775,13.5000775 12.7250775,13.285075 12.89505,12.9450775 L13.6200525,11.5000525 L11.2500525,11.5000525 L11.2500525,10.5000775 L9.2500275,12.5001025 L11.2500525,14.5001275 L11.2500525,13.5001525 L11.250075,13.5000775 Z M8.250075,11.5000525 L6.10005,11.5000525 L5.68005,12.2050525 C5.53005,12.45505 5.5200525,12.765055 5.65005,13.0300525 C5.7900525,13.3150525 6.08505,13.500055 6.410025,13.500055 L8.25,13.500055 L8.25,11.50003 L8.250075,11.5000525 Z M6.31005,10.1750275 L7.175025,10.695025 L6.4900275,7.950025 L3.7500525,8.6350225 L4.6000275,9.1450225 L4.39503,9.4900225 C4.2200325,9.78502 4.2050325,10.14502 4.36002975,10.450025 L5.17505475,12.0799975 L6.31002975,10.1749975 L6.31005,10.1750275 Z M11.760075,5.5700275 L11.1100725,4.4850025 C10.92507,4.1850025 10.6000725,4 10.2500475,4 L8.4850725,4 L10.0450725,6.600025 L9.1850475,7.1150275 L11.9300475,7.800025 L12.615045,5.055025 L11.760045,5.5700275 L11.760075,5.5700275 Z" id="Shape" fill="#FFFFFF"></path>
    </g>
</svg>