<?xml version="1.0" encoding="UTF-8"?>
<svg width="18px" height="18px" viewBox="0 0 18 18" version="1.1" xmlns="http://www.w3.org/2000/svg" xmlns:xlink="http://www.w3.org/1999/xlink">
    <title>sauna-m</title>
    <g id="sauna-m" stroke="none" fill="none" fill-rule="evenodd">
        <path d="M16.5980474,5.34246801 C16.7468507,5.43708529 16.7719933,5.65393124 16.6774834,5.80280272 L16.2747841,6.44622828 C15.4418772,7.79759698 14.8650886,8.8728762 14.518396,9.70308327 L14.4417487,9.89404056 C13.9674663,11.3122064 13.6214547,12.6672387 13.4037139,13.9591376 C12.9931409,15.8209689 12.0934828,16.5 10.3526752,16.5 L10.1879901,16.4948917 C9.04399189,16.4237233 8.09238221,15.616254 7.81508138,14.5330987 L7.78256249,14.3870442 L12.4802588,14.3870442 L12.9192453,12.5029487 C13.1641511,11.3203921 13.5393508,10.1424778 14.0572521,8.87121473 C14.3573782,8.1345122 15.0432541,6.98547029 16.109563,5.44151572 C16.2193202,5.28257002 16.4350611,5.23883232 16.5980474,5.34246801 Z M5.52052512,11.0946422 L5.89251109,15.3540235 L5.01400515,15.3540751 C4.53170194,15.3540751 4.12652667,14.9914259 4.07326519,14.5120726 L3.69311107,11.0946938 L5.52052512,11.0946422 Z M7.60194279,11.0946422 L7.60177542,13.912943 L7.1957144,13.9137796 L7.35650537,14.6359521 C7.4148855,14.8641548 7.49764583,15.0812718 7.60163715,15.2846499 L7.60194279,15.3540235 L6.5579211,15.3540235 L6.1849886,11.0946422 L7.60194279,11.0946422 Z M9.90674134,11.0946422 L9.65952986,13.912943 L8.30220701,13.912943 L8.30237438,11.0946422 L9.90674134,11.0946422 Z M12.2118737,11.0946938 L11.8980714,13.912943 L10.3249399,13.912943 L10.5712048,11.0946422 L12.2118737,11.0946938 Z M12.4497844,9.08805194 C12.5543351,9.08805194 12.6390902,9.17280705 12.6390902,9.27735777 L12.5214752,10.5724082 C12.512564,10.6698739 12.4308278,10.744478 12.3329557,10.744478 L3.57291984,10.744478 C3.47504765,10.744478 3.39331144,10.6698739 3.3844003,10.5724082 L3.26757155,9.29459385 C3.25805233,9.19047738 3.33473855,9.09835745 3.43885502,9.08883823 L12.4497844,9.08805194 Z M5.14759262,6.83620746 L5.31323523,8.72831929 L3.42997595,8.72837085 L3.33707583,7.88636833 C3.27934735,7.366812 3.65373279,6.89883019 4.17328912,6.84110171 L4.22547235,6.8367609 L5.14759262,6.83620746 Z M7.60194279,6.83620746 L7.60194279,8.72831929 L5.97769871,8.72831929 L5.81300264,6.83620746 L7.60194279,6.83620746 Z M10.2796738,6.83526093 L10.1140312,8.72831929 L8.30237438,8.72831929 L8.30237438,6.83526093 L10.2796738,6.83526093 Z M11.6280597,6.83531249 C12.1508133,6.83531249 12.5745889,7.25908804 12.5745889,7.78184167 L12.5731405,7.8341851 L12.4750088,8.72837085 L10.7784947,8.72831929 L10.9441373,6.83526093 L11.6280597,6.83531249 Z M6.69454404,1.80746008 C6.60290187,1.56267538 6.330174,1.43852882 6.0853893,1.53017098 C5.84060459,1.62181315 5.71645803,1.89454102 5.80810019,2.13932572 C5.92294379,2.44608361 5.96706035,2.7016911 5.94828971,2.90437832 C5.94335237,2.95769221 5.93639298,2.98485172 5.91058649,3.03015079 L5.84699221,3.13085102 C5.70484418,3.35222019 5.62953523,3.54741847 5.60223122,3.85013034 C5.56191484,4.29710675 5.63999563,4.70140842 5.84168281,5.04999312 C5.9725813,5.27623067 6.26209725,5.35351824 6.4883348,5.22261975 C6.68943483,5.10626554 6.77284601,4.86458394 6.69696491,4.65341954 L6.66096142,4.57596776 C6.56186855,4.40470125 6.52145614,4.19544613 6.54493341,3.93516019 C6.5548191,3.82556028 6.57021312,3.76886418 6.60935807,3.69858229 L6.67301707,3.59662085 C6.80227388,3.39646347 6.86800347,3.23766893 6.89078591,2.99166183 C6.92401615,2.63283825 6.85598891,2.23869429 6.69454404,1.80746008 Z M8.40199548,1.80746008 C8.31035332,1.56267538 8.03762545,1.43852882 7.79284074,1.53017098 C7.54805603,1.62181315 7.42390947,1.89454102 7.51555164,2.13932572 C7.63039524,2.44608361 7.67451179,2.7016911 7.65574116,2.90437832 C7.65080382,2.95769221 7.64384442,2.98485172 7.61803793,3.03015079 L7.55444366,3.13085102 C7.41229563,3.35222019 7.33698667,3.54741847 7.30968267,3.85013034 C7.26936629,4.29710675 7.34744708,4.70140842 7.54913425,5.04999312 C7.68003274,5.27623067 7.9695487,5.35351824 8.19578624,5.22261975 C8.39688628,5.10626554 8.48029745,4.86458394 8.40441636,4.65341954 L8.36841287,4.57596776 C8.26931999,4.40470125 8.22890758,4.19544613 8.25238485,3.93516019 C8.26227055,3.82556028 8.27766457,3.76886418 8.31680951,3.69858229 L8.38046851,3.59662085 C8.50972533,3.39646347 8.57545491,3.23766893 8.59823735,2.99166183 C8.6314676,2.63283825 8.56344036,2.23869429 8.40199548,1.80746008 Z M10.1094469,1.80746008 C10.0178048,1.56267538 9.74507689,1.43852882 9.50029219,1.53017098 C9.25550748,1.62181315 9.13136092,1.89454102 9.22300308,2.13932572 C9.33784668,2.44608361 9.38196324,2.7016911 9.3631926,2.90437832 C9.35825526,2.95769221 9.35129587,2.98485172 9.32548938,3.03015079 L9.2618951,3.13085102 C9.11974707,3.35222019 9.04443812,3.54741847 9.01713411,3.85013034 C8.97681773,4.29710675 9.05489852,4.70140842 9.2565857,5.04999312 C9.38748419,5.27623067 9.67700014,5.35351824 9.90323769,5.22261975 C10.1043377,5.10626554 10.1877489,4.86458394 10.1118678,4.65341954 L10.0758643,4.57596776 C9.97677144,4.40470125 9.93635903,4.19544613 9.9598363,3.93516019 C9.96972199,3.82556028 9.98511601,3.76886418 10.024261,3.69858229 L10.08792,3.59662085 C10.2171768,3.39646347 10.2829064,3.23766893 10.3056888,2.99166183 C10.338919,2.63283825 10.2708918,2.23869429 10.1094469,1.80746008 Z" id="Shape" fill="#747E86"></path>
    </g>
</svg>