<svg height="18" viewBox="0 0 24 24" width="18" xmlns="http://www.w3.org/2000/svg"><circle cx="12" cy="12" fill="#fff" opacity=".6" r="12"/><circle cx="12" cy="12" fill="#AA96BC" r="11"/><path d="m11.566 2.6328-2.5312 3.543-.0058593.0078126a4 4 0 0 0 -.52148.73828l-2.1113-.80273 1.4844 3.2637h8.7207l-.7832-1.7207a4 4 0 0 0 -.39258-.875l1.7441-1.4199-4.3008-.41797a4 4 0 0 0 -.86914-.095703 4 4 0 0 0 -.074219.0058594l-.35938-2.2266zm-6.0664 7.918c-.554 0-1 .446-1 1v.89844c0 .554.446 1 1 1h.56445v5.1445c0 .554.41769 1 .93555 1s.93555-.446.93555-1v-5.1445h8.1523v5.1445c0 .554.4072 1 .91211 1s.91211-.446.91211-1v-5.1445h.58789c.554 0 1-.446 1-1v-.89844c0-.554-.446-1-1-1h-13z" fill="#fff"/></svg>