<svg height="18" viewBox="0 0 18 18" width="18" xmlns="http://www.w3.org/2000/svg"><g fill="none"><path d="m7.125 10.05c-.28995 0-.525.23505-.525.525s.23505.525.525.525.525-.23505.525-.525-.23505-.525-.525-.525zm2.1 0c-.28995 0-.525.23505-.525.525s.23505.525.525.525.525-.23505.525-.525-.23505-.525-.525-.525zm2.1 0c-.28995 0-.525.23505-.525.525s.23505.525.525.525.525-.23505.525-.525-.23505-.525-.525-.525zm-5.25 1.575c-.28995 0-.525.23505-.525.525s.23505.525.525.525.525-.23505.525-.525-.23505-.525-.525-.525zm2.1 0c-.28995 0-.525.23505-.525.525s.23505.525.525.525.525-.23505.525-.525-.23505-.525-.525-.525zm2.1 0c-.28995 0-.525.23505-.525.525s.23505.525.525.525.525-.23505.525-.525-.23505-.525-.525-.525zm2.1 0c-.28995 0-.525.23505-.525.525s.23505.525.525.525.525-.23505.525-.525-.23505-.525-.525-.525zm-7.35 1.575c-.28995 0-.525.23505-.525.525s.23505.525.525.525.525-.23505.525-.525-.23505-.525-.525-.525zm2.1 0c-.28995 0-.525.23505-.525.525s.23505.525.525.525.525-.23505.525-.525-.23505-.525-.525-.525zm2.1 0c-.28995 0-.525.23505-.525.525s.23505.525.525.525.525-.23505.525-.525-.23505-.525-.525-.525zm2.1 0c-.28995 0-.525.23505-.525.525s.23505.525.525.525.525-.23505.525-.525-.23505-.525-.525-.525zm2.1 0c-.28995 0-.525.23505-.525.525s.23505.525.525.525.525-.23505.525-.525-.23505-.525-.525-.525z" fill="#0797b8"/><path d="m8.7 3.75v1.0992c-1.333125.223845-2.392425 1.273575-2.625 2.5758h6.3c-.232545-1.302225-1.291875-2.351925-2.625-2.5758v-1.0992zm-3.15 4.2v1.05h7.35v-1.05z" fill="#747e86"/></g></svg>