<svg height="18" viewBox="0 0 24 24" width="18" xmlns="http://www.w3.org/2000/svg"><path d="m11.6 5v1.4656c-1.7775.29846-3.1899 1.6981-3.5 3.4344h8.4c-.31006-1.7363-1.7225-3.1359-3.5-3.4344v-1.4656zm-4.2 5.6v1.4h9.8v-1.4zm2.1 2.8c-.3866 0-.7.3134-.7.7s.3134.7.7.7.7-.3134.7-.7-.3134-.7-.7-.7zm2.8 0c-.3866 0-.7.3134-.7.7s.3134.7.7.7.7-.3134.7-.7-.3134-.7-.7-.7zm2.8 0c-.3866 0-.7.3134-.7.7s.3134.7.7.7.7-.3134.7-.7-.3134-.7-.7-.7zm-7 2.1c-.3866 0-.7.3134-.7.7s.3134.7.7.7.7-.3134.7-.7-.3134-.7-.7-.7zm2.8 0c-.3866 0-.7.3134-.7.7s.3134.7.7.7.7-.3134.7-.7-.3134-.7-.7-.7zm2.8 0c-.3866 0-.7.3134-.7.7s.3134.7.7.7.7-.3134.7-.7-.3134-.7-.7-.7zm2.8 0c-.3866 0-.7.3134-.7.7s.3134.7.7.7.7-.3134.7-.7-.3134-.7-.7-.7zm-9.8 2.1c-.3866 0-.7.3134-.7.7s.3134.7.7.7.7-.3134.7-.7-.3134-.7-.7-.7zm2.8 0c-.3866 0-.7.3134-.7.7s.3134.7.7.7.7-.3134.7-.7-.3134-.7-.7-.7zm2.8 0c-.3866 0-.7.3134-.7.7s.3134.7.7.7.7-.3134.7-.7-.3134-.7-.7-.7zm2.8 0c-.3866 0-.7.3134-.7.7s.3134.7.7.7.7-.3134.7-.7-.3134-.7-.7-.7zm2.8 0c-.3866 0-.7.3134-.7.7s.3134.7.7.7.7-.3134.7-.7-.3134-.7-.7-.7z" fill="#0797B8"/></svg>