<svg height="18" viewBox="0 0 18 18" width="18" xmlns="http://www.w3.org/2000/svg"><g fill="none"><circle cx="9" cy="9" fill="#fff" opacity=".6" r="9"/><circle cx="9" cy="9" fill="#51ab8c" r="8.25"/><path d="m9.9925 4.35325c0-.53804375.5955875-.97825 1.3235-.97825s1.3235.44021875 1.3235.97825-.5955875.97825-1.3235.97825-1.3235-.44021875-1.3235-.97825zm-3.805125 9.538125c-.271325 0-.496325.1663063-.496325.36685 0 .2005438.225.36685.496325.36685s.496325-.1663062.496325-.36685c0-.2005437-.225-.36685-.496325-.36685zm5.625 0c-.271325 0-.496325.1663063-.496325.36685 0 .2005438.225.36685.496325.36685s.496325-.1663062.496325-.36685c0-.2005437-.225-.36685-.496325-.36685zm2.3095625-1.7119375c-.158825 0-.2977938.0538063-.3904438.1467375-.3639687.3570625-.9396875.5869563-1.58825.5869563h-.1654437v-2.93481255l-2.8588125-1.306 1.1911875-1.4135625c.761.9 2.117625 1.49675 3.6529375 1.49675v-.97825c-1.22425 0-2.2765-.547825-2.7330625-1.3304375l-.3441188-.59185c-.1257375-.210325-.4897062-.52336875-1.09193745-.52336875h-3.7720625l-1.6544375 1.9565 1.125.51848125 1.257375-1.49675h1.555125l-1.58825 1.87825c-.20515.2445625-.2580875.5429375-.13896875.816875l.88675 2.02987505-2.0646875 1.839125c-.4632375-.0782625-.8603125-.2788063-1.131625-.547825-.09265-.0929375-.2382375-.1467375-.39705625-.1467375-.291175 0-.496325.1760875-.496325.36685 0 .0733687.03308812.1516312.0992625.2201062.54265.5380438 1.4095625.8804375 2.382375.8804375h6.28687495c.9728125 0 1.8396875-.3423937 2.382375-.8804375.066175-.068475.0992625-.1467375.0992625-.2201062 0-.1907625-.2117625-.36685-.5029437-.36685zm-3.467625.7336875h-3.5735l1.919125-1.7119375-.66175-1.614125 2.3161875 1.0760625z" fill="#fff"/></g></svg>