<svg height="18" viewBox="0 0 18 18" width="18" xmlns="http://www.w3.org/2000/svg"><path d="m10.191 3.4239c0-.6456525.714705-1.1739 1.5882-1.1739s1.5882.5282625 1.5882 1.1739-.714705 1.1739-1.5882 1.1739-1.5882-.5282625-1.5882-1.1739zm-4.56615 11.44575c-.32559 0-.59559.1995675-.59559.44022s.27.44022.59559.44022.59559-.1995675.59559-.44022-.27-.44022-.59559-.44022zm6.75 0c-.32559 0-.59559.1995675-.59559.44022s.27.44022.59559.44022.59559-.1995675.59559-.44022-.27-.44022-.59559-.44022zm2.771475-2.054325c-.19059 0-.3573525.0645675-.4685325.176085-.4367625.428475-1.127625.7043475-1.9059.7043475h-.1985325v-3.521775l-3.430575-1.5672 1.429425-1.696275c.9132 1.08 2.54115 1.7961 4.383525 1.7961v-1.1739c-1.4691 0-2.7318-.65739-3.279675-1.596525l-.4129425-.71022c-.150885-.25239-.5876475-.6280425-1.310325-.6280425h-4.526475l-1.985325 2.3478 1.35.6221775 1.50885-1.7961h1.86615l-1.9059 2.2539c-.24618.293475-.309705.651525-.1667625.98025l1.0641 2.43585-2.477625 2.20695c-.555885-.093915-1.032375-.3345675-1.35795-.65739-.11118-.111525-.285885-.176085-.4764675-.176085-.34941 0-.59559.211305-.59559.44022 0 .0880425.03970575.1819575.119115.2641275.65118.6456525 1.691475 1.056525 2.85885 1.056525h7.54425c1.167375 0 2.207625-.4108725 2.85885-1.056525.07941-.08217.119115-.176085.119115-.2641275 0-.228915-.254115-.44022-.6035325-.44022zm-4.16115.880425h-4.2882l2.30295-2.054325-.7941-1.93695 2.779425 1.291275z" fill="#747E86"/></svg>