<svg height="18" viewBox="0 0 18 18" width="18" xmlns="http://www.w3.org/2000/svg"><g fill="none"><circle cx="9" cy="9" fill="#fff" opacity=".6" r="9"/><circle cx="9" cy="9" fill="#51ab8c" r="8.25"/><path d="m12.25625 4.359375c0 .61875-.50625 1.125-1.125 1.125s-1.125-.50625-1.125-1.125.50625-1.125 1.125-1.125 1.125.50625 1.125 1.125zm-1.53 9.225.4275.151875c.34875.118125.714375.185625 1.1025.185625.4725 0 .928125-.10125 1.33875-.28125l.63.635625c-.590625.309375-1.26.489375-1.96875.489375-.48375 0-.945-.07875-1.378125-.230625l-7.903125-2.88.28125-.793125 3.88125 1.411875.9675-2.4975-2.008125-2.098125c-.500625-.52875-.376875-1.389375.253125-1.755l1.9575-1.130625c.61875-.36 1.4175-.05625 1.636875.624375l.185625.6075c.2475.79875.8325 1.445625 1.591875 1.76625l.2925-.9.804375.25875-.63 1.940625c-1.378125-.225-2.52-1.164375-3.02625-2.43l-1.423125.815625 1.704375 1.94625-1.24875 3.24 1.738125.63 1.18125-3.6225c.25875.10125.52875.174375.81.230625z" fill="#fff"/></g></svg>