<svg height="18" viewBox="0 0 18 18" width="18" xmlns="http://www.w3.org/2000/svg"><path d="m13.3875 3.43125c0 .7425-.6075 1.35-1.35 1.35s-1.35-.6075-1.35-1.35.6075-1.35 1.35-1.35 1.35.6075 1.35 1.35zm-1.836 11.07.513.18225c.4185.14175.85725.22275 1.323.22275.567 0 1.11375-.1215 1.6065-.3375l.756.76275c-.70875.37125-1.512.58725-2.3625.58725-.5805 0-1.134-.0945-1.65375-.27675l-9.48375-3.456.3375-.95175 4.6575 1.69425 1.161-2.997-2.40975-2.51775c-.60075-.6345-.45225-1.66725.30375-2.106l2.349-1.35675c.7425-.432 1.701-.0675 1.96425.74925l.22275.729c.297.9585.999 1.73475 1.91025 2.1195l.351-1.08.96525.3105-.756 2.32875c-1.65375-.27-3.024-1.39725-3.6315-2.916l-1.70775.97875 2.04525 2.3355-1.4985 3.888 2.08575.756 1.4175-4.347c.3105.1215.6345.20925.972.27675z" fill="#51ab8c"/></svg>