<svg height="18" viewBox="0 0 24 24" width="18" xmlns="http://www.w3.org/2000/svg"><circle cx="12" cy="12" fill="#fff" opacity=".6" r="12"/><circle cx="12" cy="12" fill="#EB785D" r="11"/><path d="m2.977 8.1665q.308 0 .429.198.099.143.121.495.429-.726 1.397-.726.616 0 1.188.286l.506.253q.176.088.297.088.143 0 .242-.143l.165-.242q.154-.22.473-.22.363 0 .605.308.253.308.253.781 0 .792-.605 1.54-.176.209-.561.638-.792.869-1.078 1.386-.275.506-.275 1.078 0 .187.055.572.055.374.055.561 0 .385-.253.616t-.682.231q-.594 0-.935-.451-.341-.462-.341-1.265 0-1.287.858-2.167.418-.429 1.012-.913.715-.583 1.056-.968-.462.209-.814.209-.473 0-1.155-.385l-.506-.286q-.187-.099-.341-.099-.33 0-.33.363 0 .011.022.099l.099.374q.055.209.055.385 0 .88-.858.88-.814 0-.814-.77 0-.231.033-.451.088-.583.088-.682 0-.143-.055-.429-.055-.297-.055-.44 0-.308.176-.506.187-.198.473-.198zm6.515 0q.308 0 .429.198.099.143.121.495.429-.726 1.397-.726.616 0 1.188.286l.506.253q.176.088.297.088.143 0 .242-.143l.165-.242q.154-.22.473-.22.363 0 .605.308.253.308.253.781 0 .792-.605 1.54-.176.209-.561.638-.792.869-1.078 1.386-.275.506-.275 1.078 0 .187.055.572.055.374.055.561 0 .385-.253.616t-.682.231q-.594 0-.935-.451-.341-.462-.341-1.265 0-1.287.858-2.167.418-.429 1.012-.913.715-.583 1.056-.968-.462.209-.814.209-.473 0-1.155-.385l-.506-.286q-.187-.099-.341-.099-.33 0-.33.363 0 .011.022.099l.099.374q.055.209.055.385 0 .88-.858.88-.814 0-.814-.77 0-.231.033-.451.088-.583.088-.682 0-.143-.055-.429-.055-.297-.055-.44 0-.308.176-.506.187-.198.473-.198zm6.515 0q.308 0 .429.198.099.143.121.495.429-.726 1.397-.726.616 0 1.188.286l.506.253q.176.088.297.088.143 0 .242-.143l.165-.242q.154-.22.473-.22.363 0 .605.308.253.308.253.781 0 .792-.605 1.54-.176.209-.561.638-.792.869-1.078 1.386-.275.506-.275 1.078 0 .187.055.572.055.374.055.561 0 .385-.253.616t-.682.231q-.594 0-.935-.451-.341-.462-.341-1.265 0-1.287.858-2.167.418-.429 1.012-.913.715-.583 1.056-.968-.462.209-.814.209-.473 0-1.155-.385l-.506-.286q-.187-.099-.341-.099-.33 0-.33.363 0 .011.022.099l.099.374q.055.209.055.385 0 .88-.858.88-.814 0-.814-.77 0-.231.033-.451.088-.583.088-.682 0-.143-.055-.429-.055-.297-.055-.44 0-.308.176-.506.187-.198.473-.198z" fill="#fff"/></svg>