<svg height="18" viewBox="0 0 18 18" width="18" xmlns="http://www.w3.org/2000/svg"><path d="m9 2.25c-3.726 0-6.75 3.024-6.75 6.75s3.024 6.75 6.75 6.75 6.75-3.024 6.75-6.75-3.024-6.75-6.75-6.75zm.675 2.2275.91125-.64125c1.2285.378 2.27475 1.188 2.9565 2.2545l-.26325.9045-.91125.3105-2.69325-1.88325zm-2.26125-.64125.91125.64125v.945l-2.69325 1.88325-.91125-.3105-.26325-.9045c.68175-1.05975 1.728-1.86975 2.9565-2.2545zm-1.73475 8.613-.7695.0675c-.81675-.945-1.3095-2.1735-1.3095-3.51675 0-.081.00675-.15525.0135-.23625l.675-.49275.9315.324.9855 2.9295zm5.0085 1.674c-.53325.1755-1.10025.27675-1.6875.27675s-1.15425-.10125-1.6875-.27675l-.46575-1.00575.432-.7425h3.44925l.432.74925zm-.15525-3.09825h-3.0645l-.91125-2.7135 2.4435-1.7145 2.45025 1.7145zm2.55825 1.49175-.7695-.0675-.53325-.92475.9855-2.9295.93825-.31725.675.49275c.00675.07425.0135.1485.0135.2295 0 1.34325-.49275 2.57175-1.3095 3.51675z" fill="#747E86" fill-rule="evenodd"/></svg>