<svg height="18" viewBox="0 0 18 18" width="18" xmlns="http://www.w3.org/2000/svg"><g fill="none"><circle cx="9" cy="9" fill="#fff" opacity=".6" r="9"/><circle cx="9" cy="9" fill="#51ab8c" r="8.25"/><path d="m9 3.375c-3.105 0-5.625 2.52-5.625 5.625s2.52 5.625 5.625 5.625 5.625-2.52 5.625-5.625-2.52-5.625-5.625-5.625zm.5625 1.85625.759375-.534375c1.02375.315 1.895625.99 2.46375 1.87875l-.219375.75375-.759375.25875-2.244375-1.569375zm-1.884375-.534375.759375.534375v.7875l-2.244375 1.569375-.759375-.25875-.219375-.75375c.568125-.883125 1.44-1.558125 2.46375-1.87875zm-1.445625 7.1775-.64125.05625c-.680625-.7875-1.09125-1.81125-1.09125-2.930625 0-.0675.005625-.129375.01125-.196875l.5625-.410625.77625.27.82125 2.44125zm4.17375 1.395c-.444375.14625-.916875.230625-1.40625.230625s-.961875-.084375-1.40625-.230625l-.388125-.838125.36-.61875h2.874375l.36.624375zm-.129375-2.581875h-2.55375l-.759375-2.26125 2.03625-1.42875 2.041875 1.42875zm2.131875 1.243125-.64125-.05625-.444375-.770625.82125-2.44125.781875-.264375.5625.410625c.005625.061875.01125.12375.01125.19125 0 1.119375-.410625 2.143125-1.09125 2.930625z" fill="#fff" fill-rule="evenodd"/></g></svg>