<svg height="18" viewBox="0 0 24 24" width="18" xmlns="http://www.w3.org/2000/svg"><circle cx="12" cy="12" fill="#fff" opacity=".6" r="12"/><circle cx="12" cy="12" fill="#51ab8c" r="11"/><path d="m7.1 6h1.4l2.1 1.4-2.1 1.4v.93412c1.0296-.1489 2.225-.23412 3.5-.23412s2.4704.085218 3.5.23412v-3.7341h1.4l2.1 1.4-2.1 1.4v1.2002c1.296.31761 2.1.76021 2.1 1.2498 0 .96649-3.134 1.75-7 1.75s-7-.78351-7-1.75c0-.48954.80405-.93214 2.1-1.2498v-4.0002zm4.9 4.55c-2.3196 0-3.5.1201-3.5.69999 0 .57988 1.1804.7 3.5.7s3.5-.12012 3.5-.7c0-.57989-1.1804-.69999-3.5-.69999zm0 3.675c2.6658 0 5.0415-.46564 6.5804-1.1919l-.98035 5.5669h-3.5v-1.4c0-.77322-.62678-1.4-1.4-1.4h-1.4c-.77321 0-1.4.62678-1.4 1.4v1.4h-3.5l-.98035-5.5669c1.5388.72625 3.9146 1.1919 6.5804 1.1919z" fill="#fff"/></svg>