<svg height="12" viewBox="0 0 16 16" width="12" xmlns="http://www.w3.org/2000/svg"><circle cx="8" cy="8" fill="#fff" opacity=".6" r="8"/><circle cx="8" cy="8" fill="#51ab8c" r="7.3333"/><path d="m4.7333 4h.93333l1.4.93333-1.4.93333v.62275c.68641-.099269 1.4833-.15608 2.3333-.15608s1.6469.056812 2.3333.15608v-2.4894h.93333l1.4.93333-1.4.93333v.80017c.86399.21174 1.4.5068 1.4.83317 0 .64433-2.0894 1.1667-4.6667 1.1667s-4.6667-.52234-4.6667-1.1667c0-.32636.53603-.62143 1.4-.83317v-2.6668zm3.2667 3.0333c-1.5464 0-2.3333.080066-2.3333.46666 0 .38659.78694.46667 2.3333.46667 1.5464 0 2.3333-.08008 2.3333-.46667 0-.3866-.78694-.46666-2.3333-.46666zm0 2.45c1.7772 0 3.361-.31043 4.3869-.79459l-.65357 3.7113h-2.3333v-.93333c0-.51548-.41785-.93333-.93333-.93333h-.93333c-.51547 0-.93333.41785-.93333.93333v.93333h-2.3333l-.65357-3.7113c1.0259.48417 2.6097.79459 4.3869.79459z" fill="#fff"/></svg>