<svg height="18" viewBox="0 0 18 18" width="18" xmlns="http://www.w3.org/2000/svg"><g fill="none"><circle cx="9" cy="9" fill="#fff" opacity=".6" r="9"/><circle cx="9" cy="9" fill="#0797b8" r="8.25"/><path d="m10.946875 4.3125c-.09885 0-.27115.048-.3515625.094l-2.488 1.4063125c-.33276875.182-.46285.752125-.2433875 1.0936875l.7571875 1.1875-3.218125 2.1563125 1.73075.8125 1.866-.875 1.866.875.7301875-.875-2.2445625-3.4688125 1.893-1.125c.3762375-.2174.3635125-.5902.3245188-.8125-.03695-.2107-.2784188-.4687-.6219938-.4687zm1.5144375 2.375c-.7169375 0-1.2980625.671625-1.2980625 1.5s.5811688 1.5 1.2980625 1.5c.7169375 0 1.2980625-.671625 1.2980625-1.5s-.5811687-1.5-1.2980625-1.5zm-3.4615625 4.5-1.73075 1-2.1634375-.9375-1.73075.9375v1.5l1.73075-1 2.1634375 1 1.73075-1.0625 1.73075 1.0625 1.73075-1.0625 2.1634375 1.0625v-1.5l-2.1634375-1-1.73075 1z" fill="#fff"/></g></svg>