<svg height="18" viewBox="0 0 18 18" width="18" xmlns="http://www.w3.org/2000/svg"><path d="m11.33625 3.375c-.11862 0-.32538.0576-.421875.1128l-2.9856 1.687575c-.3993225.2184-.55542.90255-.292065 1.312425l.908625 1.425-3.86175 2.587575 2.0769.975 2.2392-1.05 2.2392 1.05.876225-1.05-2.693475-4.162575 2.2716-1.35c.451485-.26088.436215-.70824.3894225-.975-.04434-.25284-.3341025-.56244-.7463925-.56244zm1.817325 2.85c-.860325 0-1.557675.80595-1.557675 1.8s.6974025 1.8 1.557675 1.8c.860325 0 1.557675-.80595 1.557675-1.8s-.6974025-1.8-1.557675-1.8zm-4.153875 5.4-2.0769 1.2-2.596125-1.125-2.0769 1.125v1.8l2.0769-1.2 2.596125 1.2 2.0769-1.275 2.0769 1.275 2.0769-1.275 2.596125 1.275v-1.8l-2.596125-1.2-2.0769 1.2z" fill="#0797b8"/></svg>