<svg height="18" viewBox="0 0 18 18" width="18" xmlns="http://www.w3.org/2000/svg"><g fill="none"><circle cx="9" cy="9" fill="#fff" opacity=".6" r="9"/><circle cx="9" cy="9" fill="#51ab8c" r="8.25"/><path d="m12.349375 9.659375c.5856563 0 1.1231875.193225 1.56425.5117812.2935563-.6226562.4406563-1.29731245.4406563-1.97174995 0-2.1528125-1.6606875-4.5540625-4.52993755-4.5540625-1.2541875 0-2.5191875.495075-3.462875 1.4396875l-1.1436875 1.14425c-.03242937.0515625-.05398062.06828125-.0841125.1183875l4.8270625 4.81712495c.43855625-.877 1.33825005-1.50549995 2.38862505-1.50549995zm-2.630125 2.1924375-4.992375-4.982125c-.271175.4739875-.40591875.9584375-.40591875 1.42825 0 .6375.24501875 1.2515625.7175 1.7243125l.7658125.7663125-1.9329375 1.698c-.15016875.1306063-.22618125.313625-.22618125.4971688 0 .1676062.0634375.3355499.19174375.4643875l.7124375.714125c.128575.128625.296275.1922062.46345625.1922062.1830625 0 .3655375-.0761875.4958875-.2267625l1.6954375-1.93875.7521875.7525625c.49421875.49445 1.1384375.735625 1.78625.735625.094825 0 .1926-.005625.287075-.0158687-.22095625-.3885875-.3582125-.8329375-.3582125-1.3115-.0002925-.1638126.0016875-.3225063.04783125-.4979063zm2.61125-1.5055c-1.10875 0-2.0084375.8790625-2.0084375 1.98575 0 1.087875.8995 2.0043125 2.0084375 2.0043125 1.090125 0 2.0084375-.8790625 2.0084375-2.0043125.0002106-1.087875-.8995-1.98575-2.0084375-1.98575z" fill="#fff"/></g></svg>