<svg height="18" viewBox="0 0 18 18" width="18" xmlns="http://www.w3.org/2000/svg"><path d="m13.01925 9.79125c.7027875 0 1.347825.23187 1.8771.6141375.3522675-.7471875.5287875-1.556775.5287875-2.3661 0-2.583375-1.992825-5.464875-5.435925-5.464875-1.505025 0-3.023025.59409-4.15545 1.727625l-1.372425 1.3731c-.03891525.061875-.06477675.0819375-.100935.142065l5.792475 5.78055c.5262675-1.0524 1.6059-1.8066 2.86635-1.8066zm-3.15615 2.630925-5.99085-5.97855c-.32541.568785-.4871025 1.150125-.4871025 1.7139 0 .765.2940225 1.501875.861 2.069175l.918975.919575-2.319525 2.0376c-.1802025.1567275-.2714175.37635-.2714175.5966025 0 .2011275.076125.40266.2300925.557265l.854925.85695c.15429.15435.35553.2306475.5561475.2306475.219675 0 .438645-.091425.595065-.272115l2.034525-2.3265.902625.903075c.5930625.59334 1.366125.88275 2.1435.88275.11379 0 .23112-.00675.34449-.0190425-.2651475-.466305-.429855-.999525-.429855-1.5738-.000351-.196575.002025-.3870075.0573975-.5974875zm3.1335-1.8066c-1.3305 0-2.410125 1.054875-2.410125 2.3829 0 1.30545 1.0794 2.405175 2.410125 2.405175 1.30815 0 2.410125-1.054875 2.410125-2.405175.0002527-1.30545-1.0794-2.3829-2.410125-2.3829z" fill="#747E86"/></svg>