<svg height="18" viewBox="0 0 18 18" width="18" xmlns="http://www.w3.org/2000/svg"><g fill="none"><circle cx="9" cy="9" fill="#fff" opacity=".6" r="9"/><circle cx="9" cy="9" fill="#51ab8c" r="8.25"/><path d="m12.1089278 10.0336112c.5216329 0 1.0483609.1994517 1.4472482.598339.7977827.8029017.7977827 2.0967139 0 2.8944965-.3989194.3988873-.9256153.598331-1.4472482.598331-.521633 0-1.048361-.1994437-1.4472483-.598331-.79778266-.8029017-.79778266-2.0967138 0-2.8944965.3989194-.3988953.9256233-.598339 1.4472483-.598339zm0 1.0227735c-.2710387 0-.5318551.1073965-.7210687.29661-.3988873.3989195-.3988873 1.048361 0 1.4472483.1892136.1943326.45003.301729.7210687.301729.2710386 0 .531847-.1073964.7210686-.2966099.3988873-.3989195.3988873-1.048361 0-1.4472483-.1892136-.1943326-.45003-.3017291-.7210686-.3017291zm-4.10676489-6.8784433c1.49843918-1.498399 3.68719219-1.73876324 4.88387019-.54208525 1.1965575 1.19659763.9511304 3.38543104-.5421656 4.88378985-.8181706.81826705-1.9841501 1.28875172-2.79219504 1.29897945l-.7441048-.00297886c-.69260928.00825034-1.47396717.09874953-2.0685827.69336511l-2.16834098 2.1683409-.72618769-.7261877 2.16834097-2.16834094c.82334596-.82331381.68015847-2.00464256.6903862-2.8126875.0102864-.81310778.48072848-1.97394409 1.29897945-2.79219506zm4.15775489.17896728c-.7875525-.78244948-2.35759471-.53694204-3.43662199.54208525-1.0790514 1.07910765-1.32452669 2.6541805-.54208525 3.43662195.78756054.78244948 2.35760274.53694204 3.43662994-.54208525 1.0790434-1.07910765 1.3245187-2.6541805.5420773-3.43662195z" fill="#fff"/></g></svg>