<svg height="18" viewBox="0 0 18 18" width="18" xmlns="http://www.w3.org/2000/svg"><path d="m12.7307133 10.8403335c.6259596 0 1.2580331.239342 1.7366979.7180067.9573392.9634821.9573392 2.5160567 0 3.4733959-.4787033.4786647-1.1107383.7179971-1.7366979.7179971s-1.2580331-.2393324-1.7366979-.7179971c-.9573392-.9634821-.9573392-2.5160567 0-3.4733959.4787033-.4786744 1.110748-.7180067 1.7366979-.7180067zm0 1.2273282c-.3252463 0-.6382261.1288757-.8652823.3559319-.4786648.4787034-.4786648 1.2580332 0 1.736698.2270562.2331991.540036.3620748.8652823.3620748s.6382165-.1288757.8652823-.3559319c.4786648-.4787034.4786648-1.2580332 0-1.7366979-.2270562-.2331992-.540036-.3620749-.8652823-.3620749zm-4.9281178-8.25413202c1.79812701-1.7980788 4.4246307-2.08651588 5.8606443-.6505023 1.4358689 1.43591715 1.1413564 4.06251725-.6505988 5.86054782-.9818047.9819205-2.3809801 1.5465021-3.35063405 1.5587753l-.89292576-.0035746c-.83113114.0099004-1.7687606.1184994-2.48229924.8320381l-2.60200917 2.6020092-.87142524-.8714253 2.60200917-2.6020091c.98801515-.98797662.81619016-2.40557112.82846345-3.37522505.01234368-.97572933.57687416-2.3687329 1.55877534-3.35063407zm4.9893058.21476074c-.945063-.93893938-2.82911359-.64433045-4.12394633.65050229-1.29486168 1.29492918-1.58943203 3.18501661-.65050229 4.12394634.94507264.93893938 2.82912322.64433046 4.12395602-.65050229 1.294852-1.29492918 1.5894223-3.18501661.6504926-4.12394634z" fill="#747E86"/></svg>