<svg height="12" viewBox="0 0 16 16" width="12" xmlns="http://www.w3.org/2000/svg"><g fill="none"><circle cx="8" cy="8" fill="#fff" opacity=".6" r="8"/><circle cx="8" cy="8" fill="#EB785D" r="7.3333"/><g fill="#fff" transform="translate(3.3333 3.3333)"><path d="m0 6.3c0 1.4187 1.148 2.5667 2.5667 2.5667s2.5667-1.148 2.5667-2.5667v-3.0333h-5.1333v3.0333zm2.5667.93333c-.644 0-1.1667-.31267-1.1667-.7h2.3333c0 .38733-.52267.7-1.1667.7zm1.1667-2.5667c.25667 0 .46667.21.46667.46667s-.21.46667-.46667.46667-.46667-.21-.46667-.46667.21-.46667.46667-.46667zm-2.3333 0c.25667 0 .46667.21.46667.46667s-.21.46667-.46667.46667-.46667-.21-.46667-.46667.21-.46667.46667-.46667z"/><path d="m4.2 0v2.8h1.4v1.1667c0-.38733.52267-.7 1.1667-.7s1.1667.31267 1.1667.7h-2.3333v1.1667.182c.35.17733.74667.28467 1.1667.28467 1.4187 0 2.5667-1.148 2.5667-2.5667v-3.0333h-5.1333zm1.4 2.3707c-.25667 0-.46667-.21-.46667-.46667s.21-.46667.46667-.46667.46667.21.46667.46667c0 .26133-.21.46667-.46667.46667zm2.3333 0c-.25667 0-.46667-.21-.46667-.46667s.21-.46667.46667-.46667.46667.21.46667.46667c0 .26133-.21.46667-.46667.46667z"/></g></g></svg>