<svg height="18" viewBox="0 0 24 24" width="18" xmlns="http://www.w3.org/2000/svg"><g fill="none"><circle cx="12" cy="12" fill="#fff" opacity=".6" r="12"/><circle cx="12" cy="12" fill="#EB785D" r="11"/><g fill="#fff" transform="translate(5 5)"><path d="m0 9.45c0 2.128 1.722 3.85 3.85 3.85s3.85-1.722 3.85-3.85v-4.55h-7.7zm3.85 1.4c-.966 0-1.75-.469-1.75-1.05h3.5c0 .581-.784 1.05-1.75 1.05zm1.75-3.85c.385 0 .7.315.7.7s-.315.7-.7.7-.7-.315-.7-.7.315-.7.7-.7zm-3.5 0c.385 0 .7.315.7.7s-.315.7-.7.7-.7-.315-.7-.7.315-.7.7-.7z"/><path d="m6.3 0v4.2h2.1v1.75c0-.581.784-1.05 1.75-1.05s1.75.469 1.75 1.05h-3.5v1.75.273c.525.266 1.12.427 1.75.427 2.128 0 3.85-1.722 3.85-3.85v-4.55h-7.7zm2.1 3.556c-.385 0-.7-.315-.7-.7s.315-.7.7-.7.7.315.7.7c0 .392-.315.7-.7.7zm3.5 0c-.385 0-.7-.315-.7-.7s.315-.7.7-.7.7.315.7.7c0 .392-.315.7-.7.7z"/></g></g></svg>