<svg height="12" viewBox="0 0 16 16" width="12" xmlns="http://www.w3.org/2000/svg"><circle cx="8" cy="8" fill="#fff" opacity=".6" r="8"/><circle cx="8" cy="8" fill="#EB785D" r="7"/><path d="m8 3v.7619h1.6l-.4-.38095.4-.38095zm0 1.1429 2.8 2.6667v.7619s.0976.38095.6.38095.6-.38095.6-.38095v-.7619zm0 0 .4 2.6667v.7619s.1984.38095.8.38095.8-.38095.8-.38095v-.7619zm0 0-2 2.6667v.7619s.1984.38095.8.38095.8-.38095.8-.38095v-.7619zm0 0-4 2.6667v.7619s.0976.38095.6.38095.6-.38095.6-.38095v-.7619zm-2.4 3.8095s-.3968.38095-1 .38095c-.086 0-.1643-.0097143-.2375-.02381l-.3625 2.6905h2.8l.4-1.5238h1.6l.4 1.5238h2.8l-.3625-2.6905c-.0732.014095-.1515.02381-.2375.02381-.6948 0-1-.38095-1-.38095s-.4592.38095-1.2.38095c-.6388 0-1.2-.38095-1.2-.38095s-.5644.38095-1.2.38095c-.7304 0-1.2-.38095-1.2-.38095z" fill="#fff"/></svg>