<svg height="18" viewBox="0 0 24 24" width="18" xmlns="http://www.w3.org/2000/svg"><circle cx="12" cy="12" fill="#fff" opacity=".6" r="12"/><circle cx="12" cy="12" fill="#EB785D" r="11"/><path d="m12 5v1.1429h2.4l-.6-.57143.6-.57143h-2.4zm0 1.7143 4.2 4v1.1428s.1464.57143.9.57143.9-.57143.9-.57143v-1.1428zm0 0 .6 4v1.1428s.2976.57143 1.2.57143 1.2-.57143 1.2-.57143v-1.1428zm0 0-3 4v1.1428s.2976.57143 1.2.57143 1.2-.57143 1.2-.57143v-1.1428zm0 0-6 4v1.1428s.1464.57143.9.57143.9-.57143.9-.57143v-1.1428zm-3.6 5.7143s-.5952.57143-1.5.57143c-.129 0-.24645-.01457-.35625-.03571l-.54375 4.0357h4.2l.6-2.2857h2.4l.6 2.2857h4.2l-.54375-4.0357c-.1098.02114-.22725.03571-.35625.03571-1.0422 0-1.5-.57143-1.5-.57143s-.6888.57143-1.8.57143c-.9582 0-1.8-.57143-1.8-.57143s-.8466.57143-1.8.57143c-1.0956 0-1.8-.57143-1.8-.57143z" fill="#fff"/></svg>