<svg height="18" viewBox="0 0 24 24" width="18" xmlns="http://www.w3.org/2000/svg"><g fill="none"><circle cx="12" cy="12" fill="#fff" opacity=".6" r="12"/><circle cx="12" cy="12" fill="#AA96BC" r="11"/><path d="m12 5c-3.8661 0-7 2.9847-7 6.6667 0 2.9347 1.5094 3.4588 1.5094 4.3542 0 .406-1.6863.97917 3.0625.97917h4.8562c4.7488 0 3.0625-.57317 3.0625-.97917-.0007-.89533 1.5094-1.4195 1.5094-4.3542 0-3.682-3.1339-6.6667-7-6.6667zm0 2c2.7062 0 4.9 2.0893 4.9 4.6667 0 2.5773-2.1938 4.6667-4.9 4.6667s-4.9-2.0893-4.9-4.6667c0-2.5773 2.1938-4.6667 4.9-4.6667zm0 .66667c-.1596 0-.32655.0041667-.48125.020833l-.21875 2.1042c-.2366.081333-.46795.20283-.65625.35417l-2.0125-.85417c-.1869.24067-.35385.4935-.48125.77083l1.7938 1.25c-.0217.116-.04375.23283-.04375.35417 0 .12133.02205.23883.04375.35417l-1.7938 1.25c.1274.27733.29435.53083.48125.77083l2.0125-.85417c.1883.15133.41965.27283.65625.35417l.21875 2.1042c.154.017333.32165.020833.48125.020833s.32655-.0041667.48125-.020833l.21875-2.1042c.2366-.081333.46795-.20283.65625-.35417l2.0125.85417c.1869-.24067.35385-.4935.48125-.77083l-1.7938-1.25c.021-.116.04375-.23283.04375-.35417 0-.12133-.02205-.23883-.04375-.35417l1.7938-1.25c-.1274-.27733-.29435-.53083-.48125-.77083l-2.0125.85417c-.1883-.15133-.41965-.27283-.65625-.35417l-.21875-2.1042c-.154-.017333-.32165-.020833-.48125-.020833zm0 3c.5796 0 1.05.448 1.05 1s-.4704 1-1.05 1-1.05-.448-1.05-1 .4704-1 1.05-1z" fill="#fff"/></g></svg>