<?xml version="1.0" encoding="UTF-8"?>
<svg width="18px" height="18px" viewBox="0 0 18 18" version="1.1" xmlns="http://www.w3.org/2000/svg" xmlns:xlink="http://www.w3.org/1999/xlink">
    <title>toll_booth-m</title>
    <g id="toll_booth-m" stroke="none" fill="none" fill-rule="nonzero">
        <path d="M6.60018429,3 L3.60018429,4.8 L3.60018429,13.8 L3.00018429,13.8 L3.00018429,15 L10.2001843,15 L10.2001843,13.8 L9.60018429,13.8 L9.60018429,11.0437714 L10.4439386,10.5000171 L10.3126929,9.18756 L9.60019286,9.61880571 L9.60019286,4.80003429 L6.60019286,3 L6.60018429,3 Z M4.80018429,6 L8.40018429,6 L8.40018429,10.2 L4.80018429,10.2 L4.80018429,6 L4.80018429,6 Z M14.3436129,6.6 L13.8561129,6.9 L13.9873586,8.21245714 L14.9998157,7.61245714 L14.34357,6.6 L14.3436129,6.6 Z M13.3123843,7.2 L12.2999271,7.85624571 L12.4124271,9.18747429 L13.4436557,8.51247429 L13.31241,7.2 L13.3123843,7.2 Z M11.8123843,8.15622857 L10.7999271,8.81247429 L10.9124271,10.1437029 L11.9436557,9.48745714 L11.81241,8.15622857 L11.8123843,8.15622857 Z" id="Shape" fill="#747E86"></path>
    </g>
</svg>