<svg height="18" viewBox="0 0 18 18" width="18" xmlns="http://www.w3.org/2000/svg"><path d="m9 2.25c-3.726 0-6.75 3.024-6.75 6.75s3.024 6.75 6.75 6.75 6.75-3.024 6.75-6.75-3.024-6.75-6.75-6.75zm.675 1.39725c2.07225.2565 3.75975 1.701 4.4145 3.618l-4.4145-2.5515zm-3.375.68175c.7965-.46575 2.24775-.7155 2.025-.6885v4.96125l-2.025 1.16775zm-2.27475 6.7635c-.27-.648-.42525-1.35-.42525-2.0925 0-1.3635.513-2.6055 1.35-3.55725v5.1165zm.68175 1.16775 4.293-2.484 2.025 1.16775-4.7115 2.72025c-.62775-.35775-1.1745-.83025-1.6065-1.404zm4.293 2.13975c-.3645 0-.72225-.0405-1.0665-.108l4.4415-2.565.918.5265c-.9855 1.30275-2.538 2.1465-4.293 2.1465zm.675-5.7915v-2.3355l4.725 2.73375c0 .7425-.15525 1.4445-.42525 2.08575z" fill="#747E86"/></svg>