<svg height="18" viewBox="0 0 18 18" width="18" xmlns="http://www.w3.org/2000/svg"><g fill="none"><circle cx="9" cy="9" fill="#fff" opacity=".6" r="9"/><circle cx="9" cy="9" fill="#51ab8c" r="8.25"/><path d="m9 3.375c-3.105 0-5.625 2.52-5.625 5.625s2.52 5.625 5.625 5.625 5.625-2.52 5.625-5.625-2.52-5.625-5.625-5.625zm.5625 1.164375c1.726875.21375 3.133125 1.4175 3.67875 3.015l-3.67875-2.12625zm-2.8125.568125c.66375-.388125 1.873125-.59625 1.6875-.57375v4.134375l-1.6875.973125zm-1.895625 5.63625c-.225-.54-.354375-1.125-.354375-1.74375 0-1.13625.4275-2.17125 1.125-2.964375v4.26375zm.568125.973125 3.5775-2.07 1.6875.973125-3.92625 2.266875c-.523125-.298125-.97875-.691875-1.33875-1.17zm3.5775 1.783125c-.30375 0-.601875-.03375-.88875-.09l3.70125-2.1375.765.43875c-.82125 1.085625-2.115 1.78875-3.5775 1.78875zm.5625-4.82625v-1.94625l3.9375 2.278125c0 .61875-.129375 1.20375-.354375 1.738125z" fill="#fff"/></g></svg>