<svg height="18" viewBox="0 0 24 24" width="18" xmlns="http://www.w3.org/2000/svg"><path d="m12 12.967-2.7672 3.3823-.24053 2.6503h6.0144l-.23409-2.7692-2.7726-3.2633zm5.6869.13275-4.6388-2.949 4.6388-2.9508c.3812-.24337.41771-.67295.081609-.96149l-1.2134-1.0426c-.33503-.28762-.83542-.25535-1.1189.071904l-3.4351 3.9833-3.4394-3.9833c-.28241-.32726-.7828-.35952-1.1178-.071904l-1.2155 1.0426c-.33503.28762-.29744.71812.083757.95964l4.642 2.9508-4.641 2.9518c-.3812.24245-.41771.67203-.081609.96056l1.2123 1.0426c.33503.28762.83542.25535 1.12-.07006l3.4362-3.9842 3.4362 3.9815c.28348.32818.7828.35952 1.1189.070982l1.2155-1.0408c.3361-.28854.29744-.71904-.083757-.96149z" fill="#9c6136"/></svg>