<svg height="18" viewBox="0 0 18 18" width="18" xmlns="http://www.w3.org/2000/svg"><g fill="none"><circle cx="9" cy="9" fill="#fff" opacity=".6" r="9"/><circle cx="9" cy="9" fill="#51ab8c" r="8.25"/><path d="m9 3.8034c-.71750073 0-1.29915.58164927-1.29915 1.29915s.58164927 1.29915 1.29915 1.29915 1.29915-.58164927 1.29915-1.29915-.58164927-1.29915-1.29915-1.29915zm-.33747 3.247875c-.38325 0-.747855.1693425-.994725.46815l-.8703 1.03905c-.94185 1.117275-2.18865 1.740675-3.643725 1.740675v1.29915c1.799325 0 3.371325-.759975 4.547025-2.1111v1.461525l-2.5209 1.007325c-.4352175.1753875-.7269375.6042075-.7269375 1.078425 0 .64308.5190525 1.162125 1.162125 1.162125h1.436175v-.3247875c0-.8964.7275225-1.6239 1.6239-1.6239h1.948725c.1818825 0 .3247875.142905.3247875.3247875s-.142905.3247875-.3247875.3247875h-1.948725c-.539145 0-.9744.4352175-.9744.9744v.3247875h4.68405c.64308 0 1.162125-.5190525 1.162125-1.162125 0-.4741875-.29175-.903075-.7269375-1.078425l-2.5209-1.007325v-1.461525c1.1757 1.351125 2.7477 2.1111 4.547025 2.1111v-1.29915c-1.455075 0-2.70195-.6233925-3.63735-1.740675l-.8703-1.03905c-.24684-.2988075-.611415-.46815-.99465-.46815z" fill="#fff"/></g></svg>