<svg height="18" viewBox="0 0 18 18" width="18" xmlns="http://www.w3.org/2000/svg"><path d="m9.000055 2.64855417c-.87694534 0-1.58785.71090466-1.58785 1.58785s.71090466 1.58785 1.58785 1.58785 1.58785-.71090466 1.58785-1.58785-.71090466-1.58785-1.58785-1.58785zm-.41246333 3.969625c-.46841667 0-.914045.20697416-1.215775.57218333l-1.0637 1.26995c-1.15115 1.36555833-2.67501667 2.1274917-4.45344167 2.1274917v1.58785c2.199175 0 4.12050833-.9288584 5.557475-2.58023337v1.78630837l-3.0811 1.231175c-.5319325.2143625-.88847917.7384758-.88847917 1.318075 0 .7859866.6343975 1.420375 1.420375 1.420375h1.755325v-.3969625c0-1.0956.88919417-1.9847667 1.98476667-1.9847667h2.381775c.2223008 0 .3969625.1746617.3969625.3969625s-.1746617.3969625-.3969625.3969625h-2.381775c-.658955 0-1.19093333.5319325-1.19093333 1.1909333v.3969625h5.72495003c.7859866 0 1.420375-.6343975 1.420375-1.420375 0-.5795625-.3565834-1.1037583-.8884792-1.318075l-3.0811-1.231175v-1.7863083c1.4369667 1.651375 3.3583 2.5802333 5.557475 2.5802333v-1.58785c-1.778425 0-3.3023833-.76192413-4.44565-2.12749163l-1.0637-1.26995c-.3016933-.36520917-.747285-.57218334-1.21568333-.57218334z" fill="#51ab8c"/></svg>