<svg height="12" viewBox="0 0 16 16" width="12" xmlns="http://www.w3.org/2000/svg"><g fill="none"><circle cx="8" cy="8" fill="#fff" opacity=".6" r="8"/><circle cx="8" cy="8" fill="#EB785D" r="7.3333"/><path d="m9.8519 3.3333c-.98765 1.4359-1.128 2.6349-2.2222 3.5897-1.0453.91201-2.963.59891-2.963 1.9146v.47858c0 .47866.49383.93405.49383 1.4359v.47866c0 .71795-.24692.71795-.49383 1.4359h.49383l.98765-1.4359v1.4359h.74074v-2.8718h.74074v2.8718h.74074v-2.1538l.74074 2.1538h.49383l-.75618-3.0064c.29111-.17216.26235-.49043.26235-.82263v-1.4359l1.1111-2.6325 1.1111.35897c0-.033744-.0003852-.33169 0-.35897 0 0-.18038-.17482-.24691-.23929l-1.2346-1.1966z" fill="#fff"/></g></svg>