<svg height="18" viewBox="0 0 24 24" width="18" xmlns="http://www.w3.org/2000/svg"><g fill="none"><circle cx="12" cy="12" fill="#fff" opacity=".6" r="12"/><circle cx="12" cy="12" fill="#EB785D" r="11"/><path d="m14.778 5c-1.4815 2.1538-1.692 3.9524-3.3333 5.3846-1.5679 1.368-4.4444.89837-4.4444 2.8718v.71788c0 .71798.74074 1.4011.74074 2.1538v.71798c0 1.0769-.37038 1.0769-.74074 2.1538h.74074l1.4815-2.1538v2.1538h1.1111v-4.3077h1.1111v4.3077h1.1111v-3.2308l1.1111 3.2308h.74074l-1.1343-4.5096c.43667-.25825.39352-.73565.39352-1.2339v-2.1538l1.6667-3.9488 1.6667.53846c0-.050615-.0005778-.49754 0-.53846 0 0-.27057-.26223-.37037-.35894l-1.8519-1.7949z" fill="#fff"/></g></svg>